solid CATIA STL
  facet normal -1.000000e+000  0.000000e+000  0.000000e+000
    outer loop
      vertex  0.000000e+000  0.000000e+000  0.000000e+000
      vertex  0.000000e+000  0.000000e+000  5.700000e+001
      vertex  0.000000e+000  7.500000e+001  0.000000e+000
    endloop
  endfacet
  facet normal -1.000000e+000  0.000000e+000  0.000000e+000
    outer loop
      vertex  0.000000e+000  7.500000e+001  0.000000e+000
      vertex  0.000000e+000  0.000000e+000  5.700000e+001
      vertex  0.000000e+000  7.500000e+001  5.700000e+001
    endloop
  endfacet
  facet normal  0.000000e+000 -1.000000e+000  0.000000e+000
    outer loop
      vertex  3.000000e+000  0.000000e+000  6.000000e+001
      vertex  2.072949e+000  0.000000e+000  5.985317e+001
      vertex  7.000000e+000  0.000000e+000  6.000000e+001
    endloop
  endfacet
  facet normal  0.000000e+000 -9.999999e-001  -0.000000e+000
    outer loop
      vertex  2.000000e+000  0.000000e+000  5.800000e+001
      vertex  5.729490e-001  0.000000e+000  5.876336e+001
      vertex  1.468305e-001  0.000000e+000  5.792705e+001
    endloop
  endfacet
  facet normal  0.000000e+000 -1.000000e+000  -0.000000e+000
    outer loop
      vertex  2.000000e+000  0.000000e+000  5.800000e+001
      vertex  1.468305e-001  0.000000e+000  5.792705e+001
      vertex  0.000000e+000  0.000000e+000  5.700000e+001
    endloop
  endfacet
  facet normal  0.000000e+000 -1.000000e+000  0.000000e+000
    outer loop
      vertex  2.000000e+000  0.000000e+000  5.800000e+001
      vertex  0.000000e+000  0.000000e+000  5.700000e+001
      vertex  0.000000e+000  0.000000e+000  0.000000e+000
    endloop
  endfacet
  facet normal  0.000000e+000 -1.000000e+000  0.000000e+000
    outer loop
      vertex  2.000000e+000  0.000000e+000  5.800000e+001
      vertex  0.000000e+000  0.000000e+000  0.000000e+000
      vertex  2.000000e+000  0.000000e+000  0.000000e+000
    endloop
  endfacet
  facet normal  0.000000e+000 -1.000000e+000  0.000000e+000
    outer loop
      vertex  2.000000e+000  0.000000e+000  5.800000e+001
      vertex  7.000000e+000  0.000000e+000  5.800000e+001
      vertex  5.729490e-001  0.000000e+000  5.876336e+001
    endloop
  endfacet
  facet normal  0.000000e+000 -1.000000e+000  0.000000e+000
    outer loop
      vertex  5.729490e-001  0.000000e+000  5.876336e+001
      vertex  7.000000e+000  0.000000e+000  5.800000e+001
      vertex  7.000000e+000  0.000000e+000  6.000000e+001
    endloop
  endfacet
  facet normal  0.000000e+000 -1.000000e+000  0.000000e+000
    outer loop
      vertex  5.729490e-001  0.000000e+000  5.876336e+001
      vertex  7.000000e+000  0.000000e+000  6.000000e+001
      vertex  1.236644e+000  0.000000e+000  5.942705e+001
    endloop
  endfacet
  facet normal  0.000000e+000 -1.000000e+000  0.000000e+000
    outer loop
      vertex  1.236644e+000  0.000000e+000  5.942705e+001
      vertex  7.000000e+000  0.000000e+000  6.000000e+001
      vertex  2.072949e+000  0.000000e+000  5.985317e+001
    endloop
  endfacet
  facet normal  -0.000000e+000  0.000000e+000  1.000000e+000
    outer loop
      vertex  7.000000e+000  7.500000e+001  6.000000e+001
      vertex  3.000000e+000  7.500000e+001  6.000000e+001
      vertex  7.000000e+000  0.000000e+000  6.000000e+001
    endloop
  endfacet
  facet normal  0.000000e+000  0.000000e+000  1.000000e+000
    outer loop
      vertex  7.000000e+000  0.000000e+000  6.000000e+001
      vertex  3.000000e+000  7.500000e+001  6.000000e+001
      vertex  3.000000e+000  0.000000e+000  6.000000e+001
    endloop
  endfacet
  facet normal  0.000000e+000  1.000000e+000  -0.000000e+000
    outer loop
      vertex  2.000000e+000  7.500000e+001  5.800000e+001
      vertex  2.000000e+000  7.500000e+001  0.000000e+000
      vertex  0.000000e+000  7.500000e+001  0.000000e+000
    endloop
  endfacet
  facet normal  0.000000e+000  1.000000e+000  0.000000e+000
    outer loop
      vertex  2.000000e+000  7.500000e+001  5.800000e+001
      vertex  0.000000e+000  7.500000e+001  0.000000e+000
      vertex  0.000000e+000  7.500000e+001  5.700000e+001
    endloop
  endfacet
  facet normal  0.000000e+000  1.000000e+000  0.000000e+000
    outer loop
      vertex  2.000000e+000  7.500000e+001  5.800000e+001
      vertex  0.000000e+000  7.500000e+001  5.700000e+001
      vertex  1.468305e-001  7.500000e+001  5.792705e+001
    endloop
  endfacet
  facet normal  0.000000e+000  9.999999e-001  0.000000e+000
    outer loop
      vertex  2.000000e+000  7.500000e+001  5.800000e+001
      vertex  1.468305e-001  7.500000e+001  5.792705e+001
      vertex  5.729490e-001  7.500000e+001  5.876336e+001
    endloop
  endfacet
  facet normal  0.000000e+000  1.000000e+000  0.000000e+000
    outer loop
      vertex  2.000000e+000  7.500000e+001  5.800000e+001
      vertex  5.729490e-001  7.500000e+001  5.876336e+001
      vertex  7.000000e+000  7.500000e+001  5.800000e+001
    endloop
  endfacet
  facet normal  -0.000000e+000  1.000000e+000  0.000000e+000
    outer loop
      vertex  7.000000e+000  7.500000e+001  5.800000e+001
      vertex  5.729490e-001  7.500000e+001  5.876336e+001
      vertex  1.236644e+000  7.500000e+001  5.942705e+001
    endloop
  endfacet
  facet normal  -0.000000e+000  1.000000e+000  0.000000e+000
    outer loop
      vertex  7.000000e+000  7.500000e+001  5.800000e+001
      vertex  1.236644e+000  7.500000e+001  5.942705e+001
      vertex  2.072949e+000  7.500000e+001  5.985317e+001
    endloop
  endfacet
  facet normal  -0.000000e+000  1.000000e+000  0.000000e+000
    outer loop
      vertex  7.000000e+000  7.500000e+001  5.800000e+001
      vertex  2.072949e+000  7.500000e+001  5.985317e+001
      vertex  3.000000e+000  7.500000e+001  6.000000e+001
    endloop
  endfacet
  facet normal  -0.000000e+000  1.000000e+000  0.000000e+000
    outer loop
      vertex  7.000000e+000  7.500000e+001  5.800000e+001
      vertex  3.000000e+000  7.500000e+001  6.000000e+001
      vertex  7.000000e+000  7.500000e+001  6.000000e+001
    endloop
  endfacet
  facet normal -9.876884e-001  0.000000e+000  1.564344e-001
    outer loop
      vertex  0.000000e+000  7.500000e+001  5.700000e+001
      vertex  0.000000e+000  0.000000e+000  5.700000e+001
      vertex  1.468305e-001  7.500000e+001  5.792705e+001
    endloop
  endfacet
  facet normal -9.876884e-001  0.000000e+000  1.564344e-001
    outer loop
      vertex  1.468305e-001  7.500000e+001  5.792705e+001
      vertex  0.000000e+000  0.000000e+000  5.700000e+001
      vertex  1.468305e-001  0.000000e+000  5.792705e+001
    endloop
  endfacet
  facet normal -8.910063e-001  0.000000e+000  4.539909e-001
    outer loop
      vertex  1.468305e-001  7.500000e+001  5.792705e+001
      vertex  1.468305e-001  0.000000e+000  5.792705e+001
      vertex  5.729490e-001  7.500000e+001  5.876336e+001
    endloop
  endfacet
  facet normal -8.910063e-001  0.000000e+000  4.539909e-001
    outer loop
      vertex  5.729490e-001  7.500000e+001  5.876336e+001
      vertex  1.468305e-001  0.000000e+000  5.792705e+001
      vertex  5.729490e-001  0.000000e+000  5.876336e+001
    endloop
  endfacet
  facet normal -7.071073e-001  0.000000e+000  7.071062e-001
    outer loop
      vertex  5.729490e-001  7.500000e+001  5.876336e+001
      vertex  5.729490e-001  0.000000e+000  5.876336e+001
      vertex  1.236644e+000  7.500000e+001  5.942705e+001
    endloop
  endfacet
  facet normal -7.071073e-001  0.000000e+000  7.071062e-001
    outer loop
      vertex  1.236644e+000  7.500000e+001  5.942705e+001
      vertex  5.729490e-001  0.000000e+000  5.876336e+001
      vertex  1.236644e+000  0.000000e+000  5.942705e+001
    endloop
  endfacet
  facet normal -4.539892e-001  0.000000e+000  8.910072e-001
    outer loop
      vertex  1.236644e+000  7.500000e+001  5.942705e+001
      vertex  1.236644e+000  0.000000e+000  5.942705e+001
      vertex  2.072949e+000  7.500000e+001  5.985317e+001
    endloop
  endfacet
  facet normal -4.539892e-001  0.000000e+000  8.910072e-001
    outer loop
      vertex  2.072949e+000  7.500000e+001  5.985317e+001
      vertex  1.236644e+000  0.000000e+000  5.942705e+001
      vertex  2.072949e+000  0.000000e+000  5.985317e+001
    endloop
  endfacet
  facet normal -1.564355e-001  0.000000e+000  9.876882e-001
    outer loop
      vertex  2.072949e+000  7.500000e+001  5.985317e+001
      vertex  2.072949e+000  0.000000e+000  5.985317e+001
      vertex  3.000000e+000  7.500000e+001  6.000000e+001
    endloop
  endfacet
  facet normal -1.564355e-001  0.000000e+000  9.876882e-001
    outer loop
      vertex  3.000000e+000  7.500000e+001  6.000000e+001
      vertex  2.072949e+000  0.000000e+000  5.985317e+001
      vertex  3.000000e+000  0.000000e+000  6.000000e+001
    endloop
  endfacet
  facet normal -1.000000e+000  0.000000e+000  0.000000e+000
    outer loop
      vertex  2.000000e+000  1.375000e+001  0.000000e+000
      vertex  2.000000e+000  1.375000e+001 -1.813131e+001
      vertex  2.000000e+000  4.000000e+000  0.000000e+000
    endloop
  endfacet
  facet normal -1.000000e+000  0.000000e+000  0.000000e+000
    outer loop
      vertex  2.000000e+000  4.000000e+000  0.000000e+000
      vertex  2.000000e+000  1.375000e+001 -1.813131e+001
      vertex  2.000000e+000  4.000000e+000 -1.813131e+001
    endloop
  endfacet
  facet normal -1.000000e+000  0.000000e+000  0.000000e+000
    outer loop
      vertex  2.000000e+000  1.375000e+001 -1.813131e+001
      vertex  2.000000e+000  1.125000e+001 -2.500000e+001
      vertex  2.000000e+000  4.000000e+000 -1.813131e+001
    endloop
  endfacet
  facet normal -1.000000e+000  0.000000e+000  0.000000e+000
    outer loop
      vertex  2.000000e+000  4.000000e+000 -1.813131e+001
      vertex  2.000000e+000  1.125000e+001 -2.500000e+001
      vertex  2.000000e+000  6.500000e+000 -2.500000e+001
    endloop
  endfacet
  facet normal  1.000000e+000  -0.000000e+000  0.000000e+000
    outer loop
      vertex  4.900000e+000  1.375000e+001  9.000000e+000
      vertex  4.900000e+000  4.000000e+000  9.000000e+000
      vertex  4.900000e+000  1.375000e+001  3.000000e+000
    endloop
  endfacet
  facet normal  1.000000e+000  0.000000e+000  0.000000e+000
    outer loop
      vertex  4.900000e+000  1.375000e+001  3.000000e+000
      vertex  4.900000e+000  4.000000e+000  9.000000e+000
      vertex  4.900000e+000  4.000000e+000  0.000000e+000
    endloop
  endfacet
  facet normal  1.000000e+000  0.000000e+000  0.000000e+000
    outer loop
      vertex  4.900000e+000  1.375000e+001  3.000000e+000
      vertex  4.900000e+000  4.000000e+000  0.000000e+000
      vertex  4.900000e+000  1.375000e+001  0.000000e+000
    endloop
  endfacet
  facet normal  1.000000e+000  -0.000000e+000  0.000000e+000
    outer loop
      vertex  4.900000e+000  1.375000e+001  0.000000e+000
      vertex  4.900000e+000  4.000000e+000  0.000000e+000
      vertex  4.900000e+000  1.375000e+001 -1.813131e+001
    endloop
  endfacet
  facet normal  1.000000e+000  0.000000e+000  0.000000e+000
    outer loop
      vertex  4.900000e+000  1.375000e+001 -1.813131e+001
      vertex  4.900000e+000  4.000000e+000  0.000000e+000
      vertex  4.900000e+000  4.000000e+000 -1.813131e+001
    endloop
  endfacet
  facet normal  1.000000e+000  -0.000000e+000  0.000000e+000
    outer loop
      vertex  4.900000e+000  1.375000e+001 -1.813131e+001
      vertex  4.900000e+000  4.000000e+000 -1.813131e+001
      vertex  4.900000e+000  1.125000e+001 -2.500000e+001
    endloop
  endfacet
  facet normal  1.000000e+000  0.000000e+000  0.000000e+000
    outer loop
      vertex  4.900000e+000  1.125000e+001 -2.500000e+001
      vertex  4.900000e+000  4.000000e+000 -1.813131e+001
      vertex  4.900000e+000  6.500000e+000 -2.500000e+001
    endloop
  endfacet
  facet normal  0.000000e+000  0.000000e+000 -9.999999e-001
    outer loop
      vertex  4.900000e+000  1.125000e+001 -2.500000e+001
      vertex  4.900000e+000  6.500000e+000 -2.500000e+001
      vertex  2.000000e+000  1.125000e+001 -2.500000e+001
    endloop
  endfacet
  facet normal  0.000000e+000  0.000000e+000 -9.999999e-001
    outer loop
      vertex  2.000000e+000  1.125000e+001 -2.500000e+001
      vertex  4.900000e+000  6.500000e+000 -2.500000e+001
      vertex  2.000000e+000  6.500000e+000 -2.500000e+001
    endloop
  endfacet
  facet normal  0.000000e+000 -1.000000e+000  0.000000e+000
    outer loop
      vertex  4.900000e+000  4.000000e+000  0.000000e+000
      vertex  2.000000e+000  4.000000e+000  0.000000e+000
      vertex  4.900000e+000  4.000000e+000 -1.813131e+001
    endloop
  endfacet
  facet normal  0.000000e+000 -1.000000e+000  0.000000e+000
    outer loop
      vertex  4.900000e+000  4.000000e+000 -1.813131e+001
      vertex  2.000000e+000  4.000000e+000  0.000000e+000
      vertex  2.000000e+000  4.000000e+000 -1.813131e+001
    endloop
  endfacet
  facet normal  -0.000000e+000 -9.396927e-001 -3.420201e-001
    outer loop
      vertex  2.000000e+000  6.500000e+000 -2.500000e+001
      vertex  4.900000e+000  6.500000e+000 -2.500000e+001
      vertex  2.000000e+000  4.000000e+000 -1.813131e+001
    endloop
  endfacet
  facet normal  0.000000e+000 -9.396927e-001 -3.420201e-001
    outer loop
      vertex  2.000000e+000  4.000000e+000 -1.813131e+001
      vertex  4.900000e+000  6.500000e+000 -2.500000e+001
      vertex  4.900000e+000  4.000000e+000 -1.813131e+001
    endloop
  endfacet
  facet normal  0.000000e+000  1.000000e+000  -0.000000e+000
    outer loop
      vertex  4.900000e+000  1.375000e+001  0.000000e+000
      vertex  4.900000e+000  1.375000e+001 -1.813131e+001
      vertex  2.000000e+000  1.375000e+001  0.000000e+000
    endloop
  endfacet
  facet normal  0.000000e+000  1.000000e+000  0.000000e+000
    outer loop
      vertex  2.000000e+000  1.375000e+001  0.000000e+000
      vertex  4.900000e+000  1.375000e+001 -1.813131e+001
      vertex  2.000000e+000  1.375000e+001 -1.813131e+001
    endloop
  endfacet
  facet normal  0.000000e+000  9.396927e-001 -3.420201e-001
    outer loop
      vertex  2.000000e+000  1.125000e+001 -2.500000e+001
      vertex  2.000000e+000  1.375000e+001 -1.813131e+001
      vertex  4.900000e+000  1.125000e+001 -2.500000e+001
    endloop
  endfacet
  facet normal  0.000000e+000  9.396927e-001 -3.420201e-001
    outer loop
      vertex  4.900000e+000  1.125000e+001 -2.500000e+001
      vertex  2.000000e+000  1.375000e+001 -1.813131e+001
      vertex  4.900000e+000  1.375000e+001 -1.813131e+001
    endloop
  endfacet
  facet normal -1.000000e+000  0.000000e+000  0.000000e+000
    outer loop
      vertex  2.000000e+000  7.100000e+001  0.000000e+000
      vertex  2.000000e+000  7.100000e+001 -1.813131e+001
      vertex  2.000000e+000  6.125000e+001  1.776357e-015
    endloop
  endfacet
  facet normal -1.000000e+000  0.000000e+000  0.000000e+000
    outer loop
      vertex  2.000000e+000  6.125000e+001  1.776357e-015
      vertex  2.000000e+000  7.100000e+001 -1.813131e+001
      vertex  2.000000e+000  6.125000e+001 -1.813131e+001
    endloop
  endfacet
  facet normal -1.000000e+000  0.000000e+000  0.000000e+000
    outer loop
      vertex  2.000000e+000  7.100000e+001 -1.813131e+001
      vertex  2.000000e+000  6.850000e+001 -2.500000e+001
      vertex  2.000000e+000  6.125000e+001 -1.813131e+001
    endloop
  endfacet
  facet normal -1.000000e+000  0.000000e+000  0.000000e+000
    outer loop
      vertex  2.000000e+000  6.125000e+001 -1.813131e+001
      vertex  2.000000e+000  6.850000e+001 -2.500000e+001
      vertex  2.000000e+000  6.375000e+001 -2.500000e+001
    endloop
  endfacet
  facet normal  0.000000e+000  0.000000e+000 -9.999999e-001
    outer loop
      vertex  4.900000e+000  6.850000e+001 -2.500000e+001
      vertex  4.900000e+000  6.375000e+001 -2.500000e+001
      vertex  2.000000e+000  6.850000e+001 -2.500000e+001
    endloop
  endfacet
  facet normal  0.000000e+000  0.000000e+000 -9.999999e-001
    outer loop
      vertex  2.000000e+000  6.850000e+001 -2.500000e+001
      vertex  4.900000e+000  6.375000e+001 -2.500000e+001
      vertex  2.000000e+000  6.375000e+001 -2.500000e+001
    endloop
  endfacet
  facet normal  1.000000e+000  -0.000000e+000  0.000000e+000
    outer loop
      vertex  4.900000e+000  7.100000e+001  9.000000e+000
      vertex  4.900000e+000  6.125000e+001  9.000000e+000
      vertex  4.900000e+000  7.100000e+001  0.000000e+000
    endloop
  endfacet
  facet normal  1.000000e+000  0.000000e+000  0.000000e+000
    outer loop
      vertex  4.900000e+000  7.100000e+001  0.000000e+000
      vertex  4.900000e+000  6.125000e+001  9.000000e+000
      vertex  4.900000e+000  6.125000e+001  3.000000e+000
    endloop
  endfacet
  facet normal  1.000000e+000  0.000000e+000  0.000000e+000
    outer loop
      vertex  4.900000e+000  7.100000e+001  0.000000e+000
      vertex  4.900000e+000  6.125000e+001  3.000000e+000
      vertex  4.900000e+000  6.125000e+001  1.776357e-015
    endloop
  endfacet
  facet normal  1.000000e+000  0.000000e+000  0.000000e+000
    outer loop
      vertex  4.900000e+000  7.100000e+001  0.000000e+000
      vertex  4.900000e+000  6.125000e+001  1.776357e-015
      vertex  4.900000e+000  7.100000e+001 -1.813131e+001
    endloop
  endfacet
  facet normal  1.000000e+000  0.000000e+000  0.000000e+000
    outer loop
      vertex  4.900000e+000  7.100000e+001 -1.813131e+001
      vertex  4.900000e+000  6.125000e+001  1.776357e-015
      vertex  4.900000e+000  6.125000e+001 -1.813131e+001
    endloop
  endfacet
  facet normal  1.000000e+000  -0.000000e+000  0.000000e+000
    outer loop
      vertex  4.900000e+000  7.100000e+001 -1.813131e+001
      vertex  4.900000e+000  6.125000e+001 -1.813131e+001
      vertex  4.900000e+000  6.850000e+001 -2.500000e+001
    endloop
  endfacet
  facet normal  1.000000e+000  0.000000e+000  0.000000e+000
    outer loop
      vertex  4.900000e+000  6.850000e+001 -2.500000e+001
      vertex  4.900000e+000  6.125000e+001 -1.813131e+001
      vertex  4.900000e+000  6.375000e+001 -2.500000e+001
    endloop
  endfacet
  facet normal  0.000000e+000  1.000000e+000  0.000000e+000
    outer loop
      vertex  4.900000e+000  7.100000e+001 -1.813131e+001
      vertex  2.000000e+000  7.100000e+001 -1.813131e+001
      vertex  4.900000e+000  7.100000e+001  0.000000e+000
    endloop
  endfacet
  facet normal  0.000000e+000  1.000000e+000  0.000000e+000
    outer loop
      vertex  4.900000e+000  7.100000e+001  0.000000e+000
      vertex  2.000000e+000  7.100000e+001 -1.813131e+001
      vertex  2.000000e+000  7.100000e+001  0.000000e+000
    endloop
  endfacet
  facet normal  0.000000e+000  9.396927e-001 -3.420201e-001
    outer loop
      vertex  4.900000e+000  6.850000e+001 -2.500000e+001
      vertex  2.000000e+000  6.850000e+001 -2.500000e+001
      vertex  4.900000e+000  7.100000e+001 -1.813131e+001
    endloop
  endfacet
  facet normal  0.000000e+000  9.396927e-001 -3.420201e-001
    outer loop
      vertex  4.900000e+000  7.100000e+001 -1.813131e+001
      vertex  2.000000e+000  6.850000e+001 -2.500000e+001
      vertex  2.000000e+000  7.100000e+001 -1.813131e+001
    endloop
  endfacet
  facet normal  0.000000e+000 -1.000000e+000  -0.000000e+000
    outer loop
      vertex  4.900000e+000  6.125000e+001 -1.813131e+001
      vertex  4.900000e+000  6.125000e+001  1.776357e-015
      vertex  2.000000e+000  6.125000e+001 -1.813131e+001
    endloop
  endfacet
  facet normal  0.000000e+000 -1.000000e+000  0.000000e+000
    outer loop
      vertex  2.000000e+000  6.125000e+001 -1.813131e+001
      vertex  4.900000e+000  6.125000e+001  1.776357e-015
      vertex  2.000000e+000  6.125000e+001  1.776357e-015
    endloop
  endfacet
  facet normal  0.000000e+000 -9.396927e-001 -3.420201e-001
    outer loop
      vertex  4.900000e+000  6.375000e+001 -2.500000e+001
      vertex  4.900000e+000  6.125000e+001 -1.813131e+001
      vertex  2.000000e+000  6.375000e+001 -2.500000e+001
    endloop
  endfacet
  facet normal  0.000000e+000 -9.396927e-001 -3.420201e-001
    outer loop
      vertex  2.000000e+000  6.375000e+001 -2.500000e+001
      vertex  4.900000e+000  6.125000e+001 -1.813131e+001
      vertex  2.000000e+000  6.125000e+001 -1.813131e+001
    endloop
  endfacet
  facet normal  0.000000e+000  1.000000e+000  -0.000000e+000
    outer loop
      vertex  7.000000e+000  4.000000e+000  5.800000e+001
      vertex  7.000000e+000  4.000000e+000  0.000000e+000
      vertex  4.900000e+000  4.000000e+000  0.000000e+000
    endloop
  endfacet
  facet normal  0.000000e+000  9.999999e-001  0.000000e+000
    outer loop
      vertex  7.000000e+000  4.000000e+000  5.800000e+001
      vertex  4.900000e+000  4.000000e+000  0.000000e+000
      vertex  4.900000e+000  4.000000e+000  9.000000e+000
    endloop
  endfacet
  facet normal  0.000000e+000  1.000000e+000  -0.000000e+000
    outer loop
      vertex  7.000000e+000  4.000000e+000  5.800000e+001
      vertex  4.900000e+000  4.000000e+000  9.000000e+000
      vertex  2.000000e+000  4.000000e+000  9.000000e+000
    endloop
  endfacet
  facet normal  0.000000e+000  9.999999e-001  0.000000e+000
    outer loop
      vertex  7.000000e+000  4.000000e+000  5.800000e+001
      vertex  2.000000e+000  4.000000e+000  9.000000e+000
      vertex  2.000000e+000  4.000000e+000  5.800000e+001
    endloop
  endfacet
  facet normal  0.000000e+000 -1.000000e+000  -0.000000e+000
    outer loop
      vertex  7.000000e+000  7.100000e+001  0.000000e+000
      vertex  7.000000e+000  7.100000e+001  5.800000e+001
      vertex  4.900000e+000  7.100000e+001  0.000000e+000
    endloop
  endfacet
  facet normal  0.000000e+000 -9.999999e-001  0.000000e+000
    outer loop
      vertex  4.900000e+000  7.100000e+001  0.000000e+000
      vertex  7.000000e+000  7.100000e+001  5.800000e+001
      vertex  4.900000e+000  7.100000e+001  9.000000e+000
    endloop
  endfacet
  facet normal  0.000000e+000 -9.999999e-001  0.000000e+000
    outer loop
      vertex  7.000000e+000  7.100000e+001  5.800000e+001
      vertex  2.000000e+000  7.100000e+001  5.800000e+001
      vertex  4.900000e+000  7.100000e+001  9.000000e+000
    endloop
  endfacet
  facet normal  0.000000e+000 -1.000000e+000  0.000000e+000
    outer loop
      vertex  4.900000e+000  7.100000e+001  9.000000e+000
      vertex  2.000000e+000  7.100000e+001  5.800000e+001
      vertex  2.000000e+000  7.100000e+001  9.000000e+000
    endloop
  endfacet
  facet normal  0.000000e+000 -1.000000e+000  0.000000e+000
    outer loop
      vertex  7.000000e+000  1.375000e+001  3.000000e+000
      vertex  4.900000e+000  1.375000e+001  3.000000e+000
      vertex  7.000000e+000  1.375000e+001  0.000000e+000
    endloop
  endfacet
  facet normal  0.000000e+000 -1.000000e+000  0.000000e+000
    outer loop
      vertex  7.000000e+000  1.375000e+001  0.000000e+000
      vertex  4.900000e+000  1.375000e+001  3.000000e+000
      vertex  4.900000e+000  1.375000e+001  0.000000e+000
    endloop
  endfacet
  facet normal  -0.000000e+000  1.000000e+000  0.000000e+000
    outer loop
      vertex  7.000000e+000  6.125000e+001  0.000000e+000
      vertex  4.900000e+000  6.125000e+001  1.776357e-015
      vertex  7.000000e+000  6.125000e+001  3.000000e+000
    endloop
  endfacet
  facet normal  0.000000e+000  1.000000e+000  0.000000e+000
    outer loop
      vertex  7.000000e+000  6.125000e+001  3.000000e+000
      vertex  4.900000e+000  6.125000e+001  1.776357e-015
      vertex  4.900000e+000  6.125000e+001  3.000000e+000
    endloop
  endfacet
  facet normal  9.999999e-001  -0.000000e+000  0.000000e+000
    outer loop
      vertex  2.000000e+000  7.100000e+001  5.800000e+001
      vertex  2.000000e+000  4.000000e+000  5.800000e+001
      vertex  2.000000e+000  4.000000e+000  9.000000e+000
    endloop
  endfacet
  facet normal  1.000000e+000  0.000000e+000  0.000000e+000
    outer loop
      vertex  2.000000e+000  7.100000e+001  5.800000e+001
      vertex  2.000000e+000  4.000000e+000  9.000000e+000
      vertex  2.000000e+000  1.375000e+001  9.000000e+000
    endloop
  endfacet
  facet normal  1.000000e+000  0.000000e+000  0.000000e+000
    outer loop
      vertex  2.000000e+000  7.100000e+001  5.800000e+001
      vertex  2.000000e+000  1.375000e+001  9.000000e+000
      vertex  2.000000e+000  6.125000e+001  9.000000e+000
    endloop
  endfacet
  facet normal  1.000000e+000  0.000000e+000  0.000000e+000
    outer loop
      vertex  2.000000e+000  7.100000e+001  5.800000e+001
      vertex  2.000000e+000  6.125000e+001  9.000000e+000
      vertex  2.000000e+000  7.100000e+001  9.000000e+000
    endloop
  endfacet
  facet normal  1.000000e+000  0.000000e+000  0.000000e+000
    outer loop
      vertex  2.000000e+000  1.375000e+001  3.000000e+000
      vertex  2.000000e+000  6.125000e+001  3.000000e+000
      vertex  2.000000e+000  1.375000e+001  9.000000e+000
    endloop
  endfacet
  facet normal  1.000000e+000  -0.000000e+000  0.000000e+000
    outer loop
      vertex  2.000000e+000  1.375000e+001  9.000000e+000
      vertex  2.000000e+000  6.125000e+001  3.000000e+000
      vertex  2.000000e+000  6.125000e+001  9.000000e+000
    endloop
  endfacet
  facet normal  0.000000e+000 -1.000000e+000  -0.000000e+000
    outer loop
      vertex  4.900000e+000  6.125000e+001  3.000000e+000
      vertex  4.900000e+000  6.125000e+001  9.000000e+000
      vertex  2.000000e+000  6.125000e+001  3.000000e+000
    endloop
  endfacet
  facet normal  0.000000e+000 -1.000000e+000  0.000000e+000
    outer loop
      vertex  2.000000e+000  6.125000e+001  3.000000e+000
      vertex  4.900000e+000  6.125000e+001  9.000000e+000
      vertex  2.000000e+000  6.125000e+001  9.000000e+000
    endloop
  endfacet
  facet normal  0.000000e+000  1.000000e+000  -0.000000e+000
    outer loop
      vertex  4.900000e+000  1.375000e+001  9.000000e+000
      vertex  4.900000e+000  1.375000e+001  3.000000e+000
      vertex  2.000000e+000  1.375000e+001  9.000000e+000
    endloop
  endfacet
  facet normal  0.000000e+000  1.000000e+000  0.000000e+000
    outer loop
      vertex  2.000000e+000  1.375000e+001  9.000000e+000
      vertex  4.900000e+000  1.375000e+001  3.000000e+000
      vertex  2.000000e+000  1.375000e+001  3.000000e+000
    endloop
  endfacet
  facet normal  0.000000e+000  0.000000e+000  1.000000e+000
    outer loop
      vertex  4.900000e+000  6.125000e+001  9.000000e+000
      vertex  4.900000e+000  7.100000e+001  9.000000e+000
      vertex  2.000000e+000  6.125000e+001  9.000000e+000
    endloop
  endfacet
  facet normal  0.000000e+000  0.000000e+000  1.000000e+000
    outer loop
      vertex  2.000000e+000  6.125000e+001  9.000000e+000
      vertex  4.900000e+000  7.100000e+001  9.000000e+000
      vertex  2.000000e+000  7.100000e+001  9.000000e+000
    endloop
  endfacet
  facet normal  0.000000e+000  0.000000e+000  1.000000e+000
    outer loop
      vertex  4.900000e+000  4.000000e+000  9.000000e+000
      vertex  4.900000e+000  1.375000e+001  9.000000e+000
      vertex  2.000000e+000  4.000000e+000  9.000000e+000
    endloop
  endfacet
  facet normal  0.000000e+000  0.000000e+000  1.000000e+000
    outer loop
      vertex  2.000000e+000  4.000000e+000  9.000000e+000
      vertex  4.900000e+000  1.375000e+001  9.000000e+000
      vertex  2.000000e+000  1.375000e+001  9.000000e+000
    endloop
  endfacet
  facet normal  0.000000e+000  0.000000e+000 -1.000000e+000
    outer loop
      vertex  7.000000e+000  1.375000e+001  0.000000e+000
      vertex  4.900000e+000  1.375000e+001  0.000000e+000
      vertex  7.000000e+000  6.125000e+001  0.000000e+000
    endloop
  endfacet
  facet normal  0.000000e+000  0.000000e+000 -9.999999e-001
    outer loop
      vertex  2.000000e+000  2.000000e+000  0.000000e+000
      vertex  2.000000e+000  4.000000e+000  0.000000e+000
      vertex  4.900000e+000  4.000000e+000  0.000000e+000
    endloop
  endfacet
  facet normal  0.000000e+000  -0.000000e+000 -1.000000e+000
    outer loop
      vertex  2.000000e+000  2.000000e+000  0.000000e+000
      vertex  4.900000e+000  4.000000e+000  0.000000e+000
      vertex  7.000000e+000  4.000000e+000  0.000000e+000
    endloop
  endfacet
  facet normal  0.000000e+000  -0.000000e+000 -1.000000e+000
    outer loop
      vertex  2.000000e+000  2.000000e+000  0.000000e+000
      vertex  7.000000e+000  4.000000e+000  0.000000e+000
      vertex  7.000000e+000  2.000000e+000  0.000000e+000
    endloop
  endfacet
  facet normal  0.000000e+000  3.739699e-017 -1.000000e+000
    outer loop
      vertex  2.000000e+000  1.375000e+001  0.000000e+000
      vertex  2.000000e+000  6.125000e+001  1.776357e-015
      vertex  4.900000e+000  6.125000e+001  1.776357e-015
    endloop
  endfacet
  facet normal -8.458843e-016  8.904045e-017 -1.000000e+000
    outer loop
      vertex  2.000000e+000  1.375000e+001  0.000000e+000
      vertex  4.900000e+000  6.125000e+001  1.776357e-015
      vertex  7.000000e+000  6.125000e+001  0.000000e+000
    endloop
  endfacet
  facet normal  0.000000e+000  0.000000e+000 -1.000000e+000
    outer loop
      vertex  2.000000e+000  1.375000e+001  0.000000e+000
      vertex  7.000000e+000  6.125000e+001  0.000000e+000
      vertex  4.900000e+000  1.375000e+001  0.000000e+000
    endloop
  endfacet
  facet normal  -0.000000e+000  -0.000000e+000 -1.000000e+000
    outer loop
      vertex  0.000000e+000  7.500000e+001  0.000000e+000
      vertex  2.000000e+000  7.500000e+001  0.000000e+000
      vertex  2.000000e+000  7.300000e+001  0.000000e+000
    endloop
  endfacet
  facet normal  -0.000000e+000  -0.000000e+000 -1.000000e+000
    outer loop
      vertex  0.000000e+000  7.500000e+001  0.000000e+000
      vertex  2.000000e+000  7.300000e+001  0.000000e+000
      vertex  2.000000e+000  7.100000e+001  0.000000e+000
    endloop
  endfacet
  facet normal -3.643809e-016 -1.821904e-016 -1.000000e+000
    outer loop
      vertex  0.000000e+000  7.500000e+001  0.000000e+000
      vertex  2.000000e+000  7.100000e+001  0.000000e+000
      vertex  2.000000e+000  6.125000e+001  1.776357e-015
    endloop
  endfacet
  facet normal  1.145283e-015  3.739699e-017 -1.000000e+000
    outer loop
      vertex  0.000000e+000  7.500000e+001  0.000000e+000
      vertex  2.000000e+000  6.125000e+001  1.776357e-015
      vertex  2.000000e+000  1.375000e+001  0.000000e+000
    endloop
  endfacet
  facet normal  -0.000000e+000  -0.000000e+000 -1.000000e+000
    outer loop
      vertex  0.000000e+000  7.500000e+001  0.000000e+000
      vertex  2.000000e+000  1.375000e+001  0.000000e+000
      vertex  2.000000e+000  4.000000e+000  0.000000e+000
    endloop
  endfacet
  facet normal  -0.000000e+000  -0.000000e+000 -1.000000e+000
    outer loop
      vertex  0.000000e+000  7.500000e+001  0.000000e+000
      vertex  2.000000e+000  4.000000e+000  0.000000e+000
      vertex  2.000000e+000  2.000000e+000  0.000000e+000
    endloop
  endfacet
  facet normal  -0.000000e+000  -0.000000e+000 -1.000000e+000
    outer loop
      vertex  0.000000e+000  7.500000e+001  0.000000e+000
      vertex  2.000000e+000  2.000000e+000  0.000000e+000
      vertex  2.000000e+000  0.000000e+000  0.000000e+000
    endloop
  endfacet
  facet normal  0.000000e+000  0.000000e+000 -1.000000e+000
    outer loop
      vertex  0.000000e+000  7.500000e+001  0.000000e+000
      vertex  2.000000e+000  0.000000e+000  0.000000e+000
      vertex  0.000000e+000  0.000000e+000  0.000000e+000
    endloop
  endfacet
  facet normal  0.000000e+000  0.000000e+000 -9.999999e-001
    outer loop
      vertex  2.000000e+000  7.100000e+001  0.000000e+000
      vertex  2.000000e+000  7.300000e+001  0.000000e+000
      vertex  4.900000e+000  7.100000e+001  0.000000e+000
    endloop
  endfacet
  facet normal  0.000000e+000  0.000000e+000 -1.000000e+000
    outer loop
      vertex  4.900000e+000  7.100000e+001  0.000000e+000
      vertex  2.000000e+000  7.300000e+001  0.000000e+000
      vertex  7.000000e+000  7.300000e+001  0.000000e+000
    endloop
  endfacet
  facet normal  0.000000e+000  -0.000000e+000 -1.000000e+000
    outer loop
      vertex  4.900000e+000  7.100000e+001  0.000000e+000
      vertex  7.000000e+000  7.300000e+001  0.000000e+000
      vertex  7.000000e+000  7.100000e+001  0.000000e+000
    endloop
  endfacet
  facet normal  0.000000e+000  0.000000e+000  1.000000e+000
    outer loop
      vertex  7.000000e+000  6.125000e+001  3.000000e+000
      vertex  4.900000e+000  1.375000e+001  3.000000e+000
      vertex  7.000000e+000  1.375000e+001  3.000000e+000
    endloop
  endfacet
  facet normal  0.000000e+000  0.000000e+000  1.000000e+000
    outer loop
      vertex  4.900000e+000  1.375000e+001  3.000000e+000
      vertex  7.000000e+000  6.125000e+001  3.000000e+000
      vertex  2.000000e+000  1.375000e+001  3.000000e+000
    endloop
  endfacet
  facet normal  0.000000e+000  0.000000e+000  1.000000e+000
    outer loop
      vertex  2.000000e+000  1.375000e+001  3.000000e+000
      vertex  7.000000e+000  6.125000e+001  3.000000e+000
      vertex  4.900000e+000  6.125000e+001  3.000000e+000
    endloop
  endfacet
  facet normal  0.000000e+000  0.000000e+000  1.000000e+000
    outer loop
      vertex  2.000000e+000  1.375000e+001  3.000000e+000
      vertex  4.900000e+000  6.125000e+001  3.000000e+000
      vertex  2.000000e+000  6.125000e+001  3.000000e+000
    endloop
  endfacet
  facet normal  1.000000e+000  -0.000000e+000  0.000000e+000
    outer loop
      vertex  7.000000e+000  7.500000e+001  6.000000e+001
      vertex  7.000000e+000  0.000000e+000  6.000000e+001
      vertex  7.000000e+000  0.000000e+000  5.800000e+001
    endloop
  endfacet
  facet normal  1.000000e+000  0.000000e+000  0.000000e+000
    outer loop
      vertex  7.000000e+000  7.500000e+001  6.000000e+001
      vertex  7.000000e+000  0.000000e+000  5.800000e+001
      vertex  7.000000e+000  2.000000e+000  5.800000e+001
    endloop
  endfacet
  facet normal  1.000000e+000  0.000000e+000  0.000000e+000
    outer loop
      vertex  7.000000e+000  7.500000e+001  6.000000e+001
      vertex  7.000000e+000  2.000000e+000  5.800000e+001
      vertex  7.000000e+000  4.000000e+000  5.800000e+001
    endloop
  endfacet
  facet normal  1.000000e+000  0.000000e+000  0.000000e+000
    outer loop
      vertex  7.000000e+000  7.500000e+001  6.000000e+001
      vertex  7.000000e+000  4.000000e+000  5.800000e+001
      vertex  7.000000e+000  7.100000e+001  5.800000e+001
    endloop
  endfacet
  facet normal  1.000000e+000  0.000000e+000  0.000000e+000
    outer loop
      vertex  7.000000e+000  7.500000e+001  6.000000e+001
      vertex  7.000000e+000  7.100000e+001  5.800000e+001
      vertex  7.000000e+000  7.300000e+001  5.800000e+001
    endloop
  endfacet
  facet normal  1.000000e+000  0.000000e+000  0.000000e+000
    outer loop
      vertex  7.000000e+000  7.500000e+001  6.000000e+001
      vertex  7.000000e+000  7.300000e+001  5.800000e+001
      vertex  7.000000e+000  7.500000e+001  5.800000e+001
    endloop
  endfacet
  facet normal  1.000000e+000  0.000000e+000  0.000000e+000
    outer loop
      vertex  7.000000e+000  2.000000e+000  0.000000e+000
      vertex  7.000000e+000  4.000000e+000  0.000000e+000
      vertex  7.000000e+000  2.000000e+000  5.800000e+001
    endloop
  endfacet
  facet normal  1.000000e+000  -0.000000e+000  0.000000e+000
    outer loop
      vertex  7.000000e+000  2.000000e+000  5.800000e+001
      vertex  7.000000e+000  4.000000e+000  0.000000e+000
      vertex  7.000000e+000  4.000000e+000  5.800000e+001
    endloop
  endfacet
  facet normal  1.000000e+000  0.000000e+000  0.000000e+000
    outer loop
      vertex  7.000000e+000  7.100000e+001  0.000000e+000
      vertex  7.000000e+000  7.300000e+001  0.000000e+000
      vertex  7.000000e+000  7.100000e+001  5.800000e+001
    endloop
  endfacet
  facet normal  1.000000e+000  -0.000000e+000  0.000000e+000
    outer loop
      vertex  7.000000e+000  7.100000e+001  5.800000e+001
      vertex  7.000000e+000  7.300000e+001  0.000000e+000
      vertex  7.000000e+000  7.300000e+001  5.800000e+001
    endloop
  endfacet
  facet normal  0.000000e+000  0.000000e+000 -1.000000e+000
    outer loop
      vertex  7.000000e+000  2.000000e+000  5.800000e+001
      vertex  7.000000e+000  0.000000e+000  5.800000e+001
      vertex  2.000000e+000  2.000000e+000  5.800000e+001
    endloop
  endfacet
  facet normal  0.000000e+000  0.000000e+000 -1.000000e+000
    outer loop
      vertex  2.000000e+000  2.000000e+000  5.800000e+001
      vertex  7.000000e+000  0.000000e+000  5.800000e+001
      vertex  2.000000e+000  0.000000e+000  5.800000e+001
    endloop
  endfacet
  facet normal  0.000000e+000  0.000000e+000 -1.000000e+000
    outer loop
      vertex  7.000000e+000  7.500000e+001  5.800000e+001
      vertex  7.000000e+000  7.300000e+001  5.800000e+001
      vertex  2.000000e+000  7.500000e+001  5.800000e+001
    endloop
  endfacet
  facet normal  0.000000e+000  0.000000e+000 -1.000000e+000
    outer loop
      vertex  2.000000e+000  7.500000e+001  5.800000e+001
      vertex  7.000000e+000  7.300000e+001  5.800000e+001
      vertex  2.000000e+000  7.300000e+001  5.800000e+001
    endloop
  endfacet
  facet normal  0.000000e+000  1.000000e+000  -0.000000e+000
    outer loop
      vertex  7.000000e+000  7.300000e+001  5.800000e+001
      vertex  7.000000e+000  7.300000e+001  0.000000e+000
      vertex  2.000000e+000  7.300000e+001  5.800000e+001
    endloop
  endfacet
  facet normal  0.000000e+000  1.000000e+000  0.000000e+000
    outer loop
      vertex  2.000000e+000  7.300000e+001  5.800000e+001
      vertex  7.000000e+000  7.300000e+001  0.000000e+000
      vertex  2.000000e+000  7.300000e+001  0.000000e+000
    endloop
  endfacet
  facet normal  0.000000e+000 -1.000000e+000  -0.000000e+000
    outer loop
      vertex  7.000000e+000  2.000000e+000  0.000000e+000
      vertex  7.000000e+000  2.000000e+000  5.800000e+001
      vertex  2.000000e+000  2.000000e+000  0.000000e+000
    endloop
  endfacet
  facet normal  0.000000e+000 -1.000000e+000  0.000000e+000
    outer loop
      vertex  2.000000e+000  2.000000e+000  0.000000e+000
      vertex  7.000000e+000  2.000000e+000  5.800000e+001
      vertex  2.000000e+000  2.000000e+000  5.800000e+001
    endloop
  endfacet
  facet normal  1.000000e+000  0.000000e+000  0.000000e+000
    outer loop
      vertex  2.000000e+000  7.300000e+001  0.000000e+000
      vertex  2.000000e+000  7.500000e+001  0.000000e+000
      vertex  2.000000e+000  7.300000e+001  5.800000e+001
    endloop
  endfacet
  facet normal  1.000000e+000  -0.000000e+000  0.000000e+000
    outer loop
      vertex  2.000000e+000  7.300000e+001  5.800000e+001
      vertex  2.000000e+000  7.500000e+001  0.000000e+000
      vertex  2.000000e+000  7.500000e+001  5.800000e+001
    endloop
  endfacet
  facet normal  1.000000e+000  0.000000e+000  0.000000e+000
    outer loop
      vertex  2.000000e+000  0.000000e+000  0.000000e+000
      vertex  2.000000e+000  2.000000e+000  0.000000e+000
      vertex  2.000000e+000  0.000000e+000  5.800000e+001
    endloop
  endfacet
  facet normal  1.000000e+000  -0.000000e+000  0.000000e+000
    outer loop
      vertex  2.000000e+000  0.000000e+000  5.800000e+001
      vertex  2.000000e+000  2.000000e+000  0.000000e+000
      vertex  2.000000e+000  2.000000e+000  5.800000e+001
    endloop
  endfacet
  facet normal  0.000000e+000  0.000000e+000 -1.000000e+000
    outer loop
      vertex  7.000000e+000  7.100000e+001  5.800000e+001
      vertex  7.000000e+000  4.000000e+000  5.800000e+001
      vertex  2.000000e+000  7.100000e+001  5.800000e+001
    endloop
  endfacet
  facet normal  0.000000e+000  0.000000e+000 -1.000000e+000
    outer loop
      vertex  2.000000e+000  7.100000e+001  5.800000e+001
      vertex  7.000000e+000  4.000000e+000  5.800000e+001
      vertex  2.000000e+000  4.000000e+000  5.800000e+001
    endloop
  endfacet
  facet normal  1.000000e+000  0.000000e+000  0.000000e+000
    outer loop
      vertex  7.000000e+000  1.375000e+001  0.000000e+000
      vertex  7.000000e+000  6.125000e+001  0.000000e+000
      vertex  7.000000e+000  1.375000e+001  3.000000e+000
    endloop
  endfacet
  facet normal  1.000000e+000  -0.000000e+000  0.000000e+000
    outer loop
      vertex  7.000000e+000  1.375000e+001  3.000000e+000
      vertex  7.000000e+000  6.125000e+001  0.000000e+000
      vertex  7.000000e+000  6.125000e+001  3.000000e+000
    endloop
  endfacet
endsolid CATIA STL
