solid CATIA STL
  facet normal  0.000000e+000  0.000000e+000 -1.000000e+000
    outer loop
      vertex  2.000000e+000  6.481418e+001 -2.500000e+001
      vertex  4.888114e+000  6.465059e+001 -2.500000e+001
      vertex  2.011886e+000  6.465059e+001 -2.500000e+001
    endloop
  endfacet
  facet normal  0.000000e+000  0.000000e+000 -1.000000e+000
    outer loop
      vertex  2.011886e+000  6.465059e+001 -2.500000e+001
      vertex  4.888114e+000  6.465059e+001 -2.500000e+001
      vertex  4.710189e+000  6.419039e+001 -2.500000e+001
    endloop
  endfacet
  facet normal  0.000000e+000  0.000000e+000 -1.000000e+000
    outer loop
      vertex  2.011886e+000  6.465059e+001 -2.500000e+001
      vertex  4.710189e+000  6.419039e+001 -2.500000e+001
      vertex  2.189811e+000  6.419039e+001 -2.500000e+001
    endloop
  endfacet
  facet normal  0.000000e+000  0.000000e+000 -1.000000e+000
    outer loop
      vertex  2.189811e+000  6.419039e+001 -2.500000e+001
      vertex  4.710189e+000  6.419039e+001 -2.500000e+001
      vertex  4.355301e+000  6.386670e+001 -2.500000e+001
    endloop
  endfacet
  facet normal  0.000000e+000  0.000000e+000 -9.999999e-001
    outer loop
      vertex  2.189811e+000  6.419039e+001 -2.500000e+001
      vertex  4.355301e+000  6.386670e+001 -2.500000e+001
      vertex  2.544699e+000  6.386670e+001 -2.500000e+001
    endloop
  endfacet
  facet normal  0.000000e+000  0.000000e+000 -9.999999e-001
    outer loop
      vertex  2.544699e+000  6.386670e+001 -2.500000e+001
      vertex  4.355301e+000  6.386670e+001 -2.500000e+001
      vertex  3.900000e+000  6.375000e+001 -2.500000e+001
    endloop
  endfacet
  facet normal  0.000000e+000  0.000000e+000 -9.999999e-001
    outer loop
      vertex  2.544699e+000  6.386670e+001 -2.500000e+001
      vertex  3.900000e+000  6.375000e+001 -2.500000e+001
      vertex  3.000000e+000  6.375000e+001 -2.500000e+001
    endloop
  endfacet
  facet normal  0.000000e+000  0.000000e+000 -1.000000e+000
    outer loop
      vertex  4.888114e+000  6.465059e+001 -2.500000e+001
      vertex  2.000000e+000  6.481418e+001 -2.500000e+001
      vertex  4.900000e+000  6.481418e+001 -2.500000e+001
    endloop
  endfacet
  facet normal  0.000000e+000  0.000000e+000 -1.000000e+000
    outer loop
      vertex  4.900000e+000  6.481418e+001 -2.500000e+001
      vertex  2.000000e+000  6.481418e+001 -2.500000e+001
      vertex  2.000000e+000  6.743582e+001 -2.500000e+001
    endloop
  endfacet
  facet normal  0.000000e+000  0.000000e+000 -1.000000e+000
    outer loop
      vertex  4.900000e+000  6.481418e+001 -2.500000e+001
      vertex  2.000000e+000  6.743582e+001 -2.500000e+001
      vertex  4.900000e+000  6.743582e+001 -2.500000e+001
    endloop
  endfacet
  facet normal  0.000000e+000  0.000000e+000 -1.000000e+000
    outer loop
      vertex  4.900000e+000  6.743582e+001 -2.500000e+001
      vertex  2.000000e+000  6.743582e+001 -2.500000e+001
      vertex  2.011886e+000  6.759941e+001 -2.500000e+001
    endloop
  endfacet
  facet normal  0.000000e+000  0.000000e+000 -1.000000e+000
    outer loop
      vertex  4.900000e+000  6.743582e+001 -2.500000e+001
      vertex  2.011886e+000  6.759941e+001 -2.500000e+001
      vertex  4.888114e+000  6.759941e+001 -2.500000e+001
    endloop
  endfacet
  facet normal  0.000000e+000  0.000000e+000 -1.000000e+000
    outer loop
      vertex  4.888114e+000  6.759941e+001 -2.500000e+001
      vertex  2.011886e+000  6.759941e+001 -2.500000e+001
      vertex  2.189811e+000  6.805961e+001 -2.500000e+001
    endloop
  endfacet
  facet normal  0.000000e+000  0.000000e+000 -1.000000e+000
    outer loop
      vertex  4.888114e+000  6.759941e+001 -2.500000e+001
      vertex  2.189811e+000  6.805961e+001 -2.500000e+001
      vertex  4.710189e+000  6.805961e+001 -2.500000e+001
    endloop
  endfacet
  facet normal  0.000000e+000  0.000000e+000 -1.000000e+000
    outer loop
      vertex  4.710189e+000  6.805961e+001 -2.500000e+001
      vertex  2.189811e+000  6.805961e+001 -2.500000e+001
      vertex  2.544699e+000  6.838330e+001 -2.500000e+001
    endloop
  endfacet
  facet normal  0.000000e+000  0.000000e+000 -9.999999e-001
    outer loop
      vertex  4.710189e+000  6.805961e+001 -2.500000e+001
      vertex  2.544699e+000  6.838330e+001 -2.500000e+001
      vertex  4.355301e+000  6.838330e+001 -2.500000e+001
    endloop
  endfacet
  facet normal  0.000000e+000  0.000000e+000 -9.999999e-001
    outer loop
      vertex  4.355301e+000  6.838330e+001 -2.500000e+001
      vertex  2.544699e+000  6.838330e+001 -2.500000e+001
      vertex  3.000000e+000  6.850000e+001 -2.500000e+001
    endloop
  endfacet
  facet normal  0.000000e+000  0.000000e+000 -9.999999e-001
    outer loop
      vertex  4.355301e+000  6.838330e+001 -2.500000e+001
      vertex  3.000000e+000  6.850000e+001 -2.500000e+001
      vertex  3.900000e+000  6.850000e+001 -2.500000e+001
    endloop
  endfacet
  facet normal  0.000000e+000 -9.396926e-001 -3.420201e-001
    outer loop
      vertex  3.900000e+000  6.375000e+001 -2.500000e+001
      vertex  3.900000e+000  6.125000e+001 -1.813131e+001
      vertex  3.000000e+000  6.375000e+001 -2.500000e+001
    endloop
  endfacet
  facet normal  0.000000e+000 -9.396926e-001 -3.420201e-001
    outer loop
      vertex  3.000000e+000  6.375000e+001 -2.500000e+001
      vertex  3.900000e+000  6.125000e+001 -1.813131e+001
      vertex  3.000000e+000  6.125000e+001 -1.813131e+001
    endloop
  endfacet
  facet normal  0.000000e+000 -1.000000e+000  -0.000000e+000
    outer loop
      vertex  3.900000e+000  6.125000e+001 -1.813131e+001
      vertex  3.900000e+000  6.125000e+001  0.000000e+000
      vertex  3.000000e+000  6.125000e+001 -1.813131e+001
    endloop
  endfacet
  facet normal  0.000000e+000 -1.000000e+000  0.000000e+000
    outer loop
      vertex  3.000000e+000  6.125000e+001 -1.813131e+001
      vertex  3.900000e+000  6.125000e+001  0.000000e+000
      vertex  3.000000e+000  6.125000e+001  0.000000e+000
    endloop
  endfacet
  facet normal  1.000000e+000  0.000000e+000  0.000000e+000
    outer loop
      vertex  4.900000e+000  6.225000e+001  0.000000e+000
      vertex  4.900000e+000  6.125000e+001  2.000000e+000
      vertex  4.900000e+000  6.125000e+001  0.000000e+000
    endloop
  endfacet
  facet normal  1.000000e+000  0.000000e+000  0.000000e+000
    outer loop
      vertex  4.900000e+000  7.000000e+001  0.000000e+000
      vertex  4.900000e+000  7.100000e+001  0.000000e+000
      vertex  4.900000e+000  6.125000e+001  2.000000e+000
    endloop
  endfacet
  facet normal  1.000000e+000  0.000000e+000  0.000000e+000
    outer loop
      vertex  4.900000e+000  7.000000e+001  0.000000e+000
      vertex  4.900000e+000  6.125000e+001  2.000000e+000
      vertex  4.900000e+000  6.225000e+001  0.000000e+000
    endloop
  endfacet
  facet normal  1.000000e+000  -0.000000e+000  0.000000e+000
    outer loop
      vertex  4.900000e+000  7.000000e+001  0.000000e+000
      vertex  4.900000e+000  6.225000e+001  0.000000e+000
      vertex  4.900000e+000  6.225000e+001 -1.795498e+001
    endloop
  endfacet
  facet normal  1.000000e+000  0.000000e+000  0.000000e+000
    outer loop
      vertex  4.900000e+000  7.000000e+001  0.000000e+000
      vertex  4.900000e+000  6.225000e+001 -1.795498e+001
      vertex  4.900000e+000  7.000000e+001 -1.795498e+001
    endloop
  endfacet
  facet normal  1.000000e+000  0.000000e+000  0.000000e+000
    outer loop
      vertex  4.900000e+000  6.125000e+001  2.000000e+000
      vertex  4.900000e+000  7.100000e+001  0.000000e+000
      vertex  4.900000e+000  6.125000e+001  9.000000e+000
    endloop
  endfacet
  facet normal  1.000000e+000  -0.000000e+000  0.000000e+000
    outer loop
      vertex  4.900000e+000  6.125000e+001  9.000000e+000
      vertex  4.900000e+000  7.100000e+001  0.000000e+000
      vertex  4.900000e+000  7.100000e+001  9.000000e+000
    endloop
  endfacet
  facet normal  1.000000e+000  0.000000e+000  0.000000e+000
    outer loop
      vertex  4.900000e+000  6.481418e+001 -2.500000e+001
      vertex  4.900000e+000  6.743582e+001 -2.500000e+001
      vertex  4.900000e+000  6.225000e+001 -1.795498e+001
    endloop
  endfacet
  facet normal  1.000000e+000  -0.000000e+000  0.000000e+000
    outer loop
      vertex  4.900000e+000  6.225000e+001 -1.795498e+001
      vertex  4.900000e+000  6.743582e+001 -2.500000e+001
      vertex  4.900000e+000  7.000000e+001 -1.795498e+001
    endloop
  endfacet
  facet normal  0.000000e+000  0.000000e+000 -1.000000e+000
    outer loop
      vertex  3.900000e+000  1.375000e+001  0.000000e+000
      vertex  3.000000e+000  1.375000e+001  0.000000e+000
      vertex  3.000000e+000  6.125000e+001  0.000000e+000
    endloop
  endfacet
  facet normal  0.000000e+000  0.000000e+000 -1.000000e+000
    outer loop
      vertex  4.900000e+000  4.000000e+000  0.000000e+000
      vertex  4.766026e+000  4.500000e+000  0.000000e+000
      vertex  4.900000e+000  5.000000e+000  0.000000e+000
    endloop
  endfacet
  facet normal  0.000000e+000  0.000000e+000 -1.000000e+000
    outer loop
      vertex  4.900000e+000  4.000000e+000  0.000000e+000
      vertex  4.400000e+000  4.133975e+000  0.000000e+000
      vertex  4.766026e+000  4.500000e+000  0.000000e+000
    endloop
  endfacet
  facet normal  -0.000000e+000  0.000000e+000 -1.000000e+000
    outer loop
      vertex  2.000000e+000  7.300000e+001  0.000000e+000
      vertex  2.133975e+000  7.050000e+001  0.000000e+000
      vertex  2.000000e+000  7.000000e+001  0.000000e+000
    endloop
  endfacet
  facet normal  -0.000000e+000  0.000000e+000 -1.000000e+000
    outer loop
      vertex  2.000000e+000  7.300000e+001  0.000000e+000
      vertex  2.500000e+000  7.086603e+001  0.000000e+000
      vertex  2.133975e+000  7.050000e+001  0.000000e+000
    endloop
  endfacet
  facet normal  -0.000000e+000  0.000000e+000 -1.000000e+000
    outer loop
      vertex  3.000000e+000  6.125000e+001  0.000000e+000
      vertex  2.500000e+000  1.361602e+001  0.000000e+000
      vertex  2.133975e+000  1.325000e+001  0.000000e+000
    endloop
  endfacet
  facet normal  -0.000000e+000  0.000000e+000 -1.000000e+000
    outer loop
      vertex  3.000000e+000  6.125000e+001  0.000000e+000
      vertex  3.000000e+000  1.375000e+001  0.000000e+000
      vertex  2.500000e+000  1.361602e+001  0.000000e+000
    endloop
  endfacet
  facet normal  0.000000e+000  0.000000e+000 -1.000000e+000
    outer loop
      vertex  7.000000e+000  2.000000e+000  0.000000e+000
      vertex  4.900000e+000  4.000000e+000  0.000000e+000
      vertex  7.000000e+000  4.000000e+000  0.000000e+000
    endloop
  endfacet
  facet normal  0.000000e+000  0.000000e+000 -1.000000e+000
    outer loop
      vertex  7.000000e+000  7.300000e+001  0.000000e+000
      vertex  7.000000e+000  7.100000e+001  0.000000e+000
      vertex  4.900000e+000  7.100000e+001  0.000000e+000
    endloop
  endfacet
  facet normal  0.000000e+000  0.000000e+000 -1.000000e+000
    outer loop
      vertex  7.000000e+000  7.300000e+001  0.000000e+000
      vertex  4.900000e+000  7.100000e+001  0.000000e+000
      vertex  3.900000e+000  7.100000e+001  0.000000e+000
    endloop
  endfacet
  facet normal  0.000000e+000  0.000000e+000 -1.000000e+000
    outer loop
      vertex  7.000000e+000  7.300000e+001  0.000000e+000
      vertex  3.900000e+000  7.100000e+001  0.000000e+000
      vertex  3.000000e+000  7.100000e+001  0.000000e+000
    endloop
  endfacet
  facet normal  -0.000000e+000  0.000000e+000 -1.000000e+000
    outer loop
      vertex  7.000000e+000  7.300000e+001  0.000000e+000
      vertex  3.000000e+000  7.100000e+001  0.000000e+000
      vertex  2.500000e+000  7.086603e+001  0.000000e+000
    endloop
  endfacet
  facet normal  0.000000e+000  0.000000e+000 -1.000000e+000
    outer loop
      vertex  7.000000e+000  7.300000e+001  0.000000e+000
      vertex  2.500000e+000  7.086603e+001  0.000000e+000
      vertex  2.000000e+000  7.300000e+001  0.000000e+000
    endloop
  endfacet
  facet normal  0.000000e+000  -0.000000e+000 -1.000000e+000
    outer loop
      vertex  3.900000e+000  4.000000e+000  0.000000e+000
      vertex  4.400000e+000  4.133975e+000  0.000000e+000
      vertex  4.900000e+000  4.000000e+000  0.000000e+000
    endloop
  endfacet
  facet normal  -0.000000e+000  -0.000000e+000 -1.000000e+000
    outer loop
      vertex  3.900000e+000  4.000000e+000  0.000000e+000
      vertex  4.900000e+000  4.000000e+000  0.000000e+000
      vertex  7.000000e+000  2.000000e+000  0.000000e+000
    endloop
  endfacet
  facet normal  0.000000e+000  0.000000e+000 -1.000000e+000
    outer loop
      vertex  3.900000e+000  4.000000e+000  0.000000e+000
      vertex  7.000000e+000  2.000000e+000  0.000000e+000
      vertex  3.000000e+000  4.000000e+000  0.000000e+000
    endloop
  endfacet
  facet normal  -0.000000e+000  -0.000000e+000 -1.000000e+000
    outer loop
      vertex  4.900000e+000  6.125000e+001  0.000000e+000
      vertex  7.000000e+000  6.125000e+001  0.000000e+000
      vertex  7.000000e+000  1.375000e+001  0.000000e+000
    endloop
  endfacet
  facet normal  0.000000e+000  0.000000e+000 -1.000000e+000
    outer loop
      vertex  4.900000e+000  6.125000e+001  0.000000e+000
      vertex  7.000000e+000  1.375000e+001  0.000000e+000
      vertex  3.900000e+000  6.125000e+001  0.000000e+000
    endloop
  endfacet
  facet normal  0.000000e+000  0.000000e+000 -1.000000e+000
    outer loop
      vertex  4.900000e+000  6.125000e+001  0.000000e+000
      vertex  3.900000e+000  6.125000e+001  0.000000e+000
      vertex  4.400000e+000  6.138398e+001  0.000000e+000
    endloop
  endfacet
  facet normal  0.000000e+000  0.000000e+000 -1.000000e+000
    outer loop
      vertex  4.900000e+000  6.125000e+001  0.000000e+000
      vertex  4.400000e+000  6.138398e+001  0.000000e+000
      vertex  4.766026e+000  6.175000e+001  0.000000e+000
    endloop
  endfacet
  facet normal  0.000000e+000  0.000000e+000 -1.000000e+000
    outer loop
      vertex  4.900000e+000  6.125000e+001  0.000000e+000
      vertex  4.766026e+000  6.175000e+001  0.000000e+000
      vertex  4.900000e+000  6.225000e+001  0.000000e+000
    endloop
  endfacet
  facet normal  0.000000e+000  0.000000e+000 -1.000000e+000
    outer loop
      vertex  4.900000e+000  1.375000e+001  0.000000e+000
      vertex  4.900000e+000  1.275000e+001  0.000000e+000
      vertex  4.766026e+000  1.325000e+001  0.000000e+000
    endloop
  endfacet
  facet normal  0.000000e+000  0.000000e+000 -9.999999e-001
    outer loop
      vertex  4.900000e+000  1.375000e+001  0.000000e+000
      vertex  4.766026e+000  1.325000e+001  0.000000e+000
      vertex  4.400000e+000  1.361602e+001  0.000000e+000
    endloop
  endfacet
  facet normal  0.000000e+000  0.000000e+000 -1.000000e+000
    outer loop
      vertex  4.900000e+000  1.375000e+001  0.000000e+000
      vertex  4.400000e+000  1.361602e+001  0.000000e+000
      vertex  3.900000e+000  1.375000e+001  0.000000e+000
    endloop
  endfacet
  facet normal  0.000000e+000  0.000000e+000 -1.000000e+000
    outer loop
      vertex  4.900000e+000  1.375000e+001  0.000000e+000
      vertex  3.900000e+000  1.375000e+001  0.000000e+000
      vertex  3.000000e+000  6.125000e+001  0.000000e+000
    endloop
  endfacet
  facet normal  0.000000e+000  0.000000e+000 -1.000000e+000
    outer loop
      vertex  4.900000e+000  1.375000e+001  0.000000e+000
      vertex  3.000000e+000  6.125000e+001  0.000000e+000
      vertex  3.900000e+000  6.125000e+001  0.000000e+000
    endloop
  endfacet
  facet normal  0.000000e+000  0.000000e+000 -1.000000e+000
    outer loop
      vertex  4.900000e+000  1.375000e+001  0.000000e+000
      vertex  3.900000e+000  6.125000e+001  0.000000e+000
      vertex  7.000000e+000  1.375000e+001  0.000000e+000
    endloop
  endfacet
  facet normal  0.000000e+000  0.000000e+000 -1.000000e+000
    outer loop
      vertex  4.900000e+000  7.100000e+001  0.000000e+000
      vertex  4.900000e+000  7.000000e+001  0.000000e+000
      vertex  4.766026e+000  7.050000e+001  0.000000e+000
    endloop
  endfacet
  facet normal  0.000000e+000  0.000000e+000 -9.999999e-001
    outer loop
      vertex  4.900000e+000  7.100000e+001  0.000000e+000
      vertex  4.766026e+000  7.050000e+001  0.000000e+000
      vertex  4.400000e+000  7.086603e+001  0.000000e+000
    endloop
  endfacet
  facet normal  0.000000e+000  0.000000e+000 -1.000000e+000
    outer loop
      vertex  4.900000e+000  7.100000e+001  0.000000e+000
      vertex  4.400000e+000  7.086603e+001  0.000000e+000
      vertex  3.900000e+000  7.100000e+001  0.000000e+000
    endloop
  endfacet
  facet normal  0.000000e+000  0.000000e+000 -1.000000e+000
    outer loop
      vertex  2.000000e+000  2.000000e+000  0.000000e+000
      vertex  2.000000e+000  5.000000e+000  0.000000e+000
      vertex  2.133975e+000  4.500000e+000  0.000000e+000
    endloop
  endfacet
  facet normal  0.000000e+000  -0.000000e+000 -9.999999e-001
    outer loop
      vertex  2.000000e+000  2.000000e+000  0.000000e+000
      vertex  2.133975e+000  4.500000e+000  0.000000e+000
      vertex  2.500000e+000  4.133975e+000  0.000000e+000
    endloop
  endfacet
  facet normal  0.000000e+000  -0.000000e+000 -1.000000e+000
    outer loop
      vertex  2.000000e+000  2.000000e+000  0.000000e+000
      vertex  2.500000e+000  4.133975e+000  0.000000e+000
      vertex  3.000000e+000  4.000000e+000  0.000000e+000
    endloop
  endfacet
  facet normal  0.000000e+000  -0.000000e+000 -1.000000e+000
    outer loop
      vertex  2.000000e+000  2.000000e+000  0.000000e+000
      vertex  3.000000e+000  4.000000e+000  0.000000e+000
      vertex  7.000000e+000  2.000000e+000  0.000000e+000
    endloop
  endfacet
  facet normal  0.000000e+000  0.000000e+000 -1.000000e+000
    outer loop
      vertex  2.000000e+000  1.275000e+001  0.000000e+000
      vertex  2.000000e+000  6.225000e+001  0.000000e+000
      vertex  2.133975e+000  6.175000e+001  0.000000e+000
    endloop
  endfacet
  facet normal  0.000000e+000  -0.000000e+000 -1.000000e+000
    outer loop
      vertex  2.000000e+000  1.275000e+001  0.000000e+000
      vertex  2.133975e+000  6.175000e+001  0.000000e+000
      vertex  2.500000e+000  6.138398e+001  0.000000e+000
    endloop
  endfacet
  facet normal  0.000000e+000  -0.000000e+000 -1.000000e+000
    outer loop
      vertex  2.000000e+000  1.275000e+001  0.000000e+000
      vertex  2.500000e+000  6.138398e+001  0.000000e+000
      vertex  3.000000e+000  6.125000e+001  0.000000e+000
    endloop
  endfacet
  facet normal  0.000000e+000  0.000000e+000 -1.000000e+000
    outer loop
      vertex  2.000000e+000  1.275000e+001  0.000000e+000
      vertex  3.000000e+000  6.125000e+001  0.000000e+000
      vertex  2.133975e+000  1.325000e+001  0.000000e+000
    endloop
  endfacet
  facet normal  -0.000000e+000  -0.000000e+000 -1.000000e+000
    outer loop
      vertex  0.000000e+000  7.500000e+001  0.000000e+000
      vertex  2.000000e+000  7.500000e+001  0.000000e+000
      vertex  2.000000e+000  7.300000e+001  0.000000e+000
    endloop
  endfacet
  facet normal  -0.000000e+000  -0.000000e+000 -1.000000e+000
    outer loop
      vertex  0.000000e+000  7.500000e+001  0.000000e+000
      vertex  2.000000e+000  7.300000e+001  0.000000e+000
      vertex  2.000000e+000  7.000000e+001  0.000000e+000
    endloop
  endfacet
  facet normal  -0.000000e+000  -0.000000e+000 -1.000000e+000
    outer loop
      vertex  0.000000e+000  7.500000e+001  0.000000e+000
      vertex  2.000000e+000  7.000000e+001  0.000000e+000
      vertex  2.000000e+000  6.225000e+001  0.000000e+000
    endloop
  endfacet
  facet normal  -0.000000e+000  -0.000000e+000 -1.000000e+000
    outer loop
      vertex  0.000000e+000  7.500000e+001  0.000000e+000
      vertex  2.000000e+000  6.225000e+001  0.000000e+000
      vertex  2.000000e+000  1.275000e+001  0.000000e+000
    endloop
  endfacet
  facet normal  -0.000000e+000  -0.000000e+000 -1.000000e+000
    outer loop
      vertex  0.000000e+000  7.500000e+001  0.000000e+000
      vertex  2.000000e+000  1.275000e+001  0.000000e+000
      vertex  2.000000e+000  5.000000e+000  0.000000e+000
    endloop
  endfacet
  facet normal  -0.000000e+000  -0.000000e+000 -1.000000e+000
    outer loop
      vertex  0.000000e+000  7.500000e+001  0.000000e+000
      vertex  2.000000e+000  5.000000e+000  0.000000e+000
      vertex  2.000000e+000  2.000000e+000  0.000000e+000
    endloop
  endfacet
  facet normal  -0.000000e+000  -0.000000e+000 -1.000000e+000
    outer loop
      vertex  0.000000e+000  7.500000e+001  0.000000e+000
      vertex  2.000000e+000  2.000000e+000  0.000000e+000
      vertex  2.000000e+000  0.000000e+000  0.000000e+000
    endloop
  endfacet
  facet normal  0.000000e+000  0.000000e+000 -1.000000e+000
    outer loop
      vertex  0.000000e+000  7.500000e+001  0.000000e+000
      vertex  2.000000e+000  0.000000e+000  0.000000e+000
      vertex  0.000000e+000  0.000000e+000  0.000000e+000
    endloop
  endfacet
  facet normal  0.000000e+000  1.000000e+000  0.000000e+000
    outer loop
      vertex  7.000000e+000  6.125000e+001  0.000000e+000
      vertex  4.900000e+000  6.125000e+001  0.000000e+000
      vertex  7.000000e+000  6.125000e+001  2.000000e+000
    endloop
  endfacet
  facet normal  0.000000e+000  1.000000e+000  0.000000e+000
    outer loop
      vertex  7.000000e+000  6.125000e+001  2.000000e+000
      vertex  4.900000e+000  6.125000e+001  0.000000e+000
      vertex  4.900000e+000  6.125000e+001  2.000000e+000
    endloop
  endfacet
  facet normal  2.580974e-001 -9.078548e-001 -3.304321e-001
    outer loop
      vertex  3.900000e+000  6.125000e+001 -1.813131e+001
      vertex  3.900000e+000  6.375000e+001 -2.500000e+001
      vertex  4.398706e+000  6.138323e+001 -1.810781e+001
    endloop
  endfacet
  facet normal  2.343024e-001 -9.141285e-001 -3.308647e-001
    outer loop
      vertex  4.398706e+000  6.138323e+001 -1.810781e+001
      vertex  3.900000e+000  6.375000e+001 -2.500000e+001
      vertex  4.355301e+000  6.386670e+001 -2.500000e+001
    endloop
  endfacet
  facet normal  7.041768e-001 -6.665568e-001 -2.446160e-001
    outer loop
      vertex  4.398706e+000  6.138323e+001 -1.810781e+001
      vertex  4.355301e+000  6.386670e+001 -2.500000e+001
      vertex  4.762858e+000  6.174455e+001 -1.804411e+001
    endloop
  endfacet
  facet normal  6.514209e-001 -7.142014e-001 -2.560607e-001
    outer loop
      vertex  4.762858e+000  6.174455e+001 -1.804411e+001
      vertex  4.355301e+000  6.386670e+001 -2.500000e+001
      vertex  4.710189e+000  6.419039e+001 -2.500000e+001
    endloop
  endfacet
  facet normal  9.649187e-001 -2.453116e-001 -9.356289e-002
    outer loop
      vertex  4.762858e+000  6.174455e+001 -1.804411e+001
      vertex  4.710189e+000  6.419039e+001 -2.500000e+001
      vertex  4.900000e+000  6.225000e+001 -1.795498e+001
    endloop
  endfacet
  facet normal  9.255750e-001 -3.578529e-001 -1.234998e-001
    outer loop
      vertex  4.900000e+000  6.225000e+001 -1.795498e+001
      vertex  4.710189e+000  6.419039e+001 -2.500000e+001
      vertex  4.888114e+000  6.465059e+001 -2.500000e+001
    endloop
  endfacet
  facet normal  9.970242e-001 -7.243910e-002 -2.636568e-002
    outer loop
      vertex  4.900000e+000  6.225000e+001 -1.795498e+001
      vertex  4.888114e+000  6.465059e+001 -2.500000e+001
      vertex  4.900000e+000  6.481418e+001 -2.500000e+001
    endloop
  endfacet
  facet normal  9.651057e-001 -2.618605e-001  0.000000e+000
    outer loop
      vertex  4.900000e+000  6.225000e+001 -1.795498e+001
      vertex  4.900000e+000  6.225000e+001  0.000000e+000
      vertex  4.762858e+000  6.174455e+001 -1.804411e+001
    endloop
  endfacet
  facet normal  9.659259e-001 -2.588190e-001 -9.143195e-005
    outer loop
      vertex  4.762858e+000  6.174455e+001 -1.804411e+001
      vertex  4.900000e+000  6.225000e+001  0.000000e+000
      vertex  4.766026e+000  6.175000e+001  0.000000e+000
    endloop
  endfacet
  facet normal  7.043379e-001 -7.098650e-001  9.065721e-005
    outer loop
      vertex  4.762858e+000  6.174455e+001 -1.804411e+001
      vertex  4.766026e+000  6.175000e+001  0.000000e+000
      vertex  4.398706e+000  6.138323e+001 -1.810781e+001
    endloop
  endfacet
  facet normal  7.071054e-001 -7.071082e-001 -2.132021e-005
    outer loop
      vertex  4.398706e+000  6.138323e+001 -1.810781e+001
      vertex  4.766026e+000  6.175000e+001  0.000000e+000
      vertex  4.400000e+000  6.138398e+001  0.000000e+000
    endloop
  endfacet
  facet normal  2.580957e-001 -9.661193e-001  2.145267e-005
    outer loop
      vertex  4.398706e+000  6.138323e+001 -1.810781e+001
      vertex  4.400000e+000  6.138398e+001  0.000000e+000
      vertex  3.900000e+000  6.125000e+001 -1.813131e+001
    endloop
  endfacet
  facet normal  2.588215e-001 -9.659252e-001  0.000000e+000
    outer loop
      vertex  3.900000e+000  6.125000e+001 -1.813131e+001
      vertex  4.400000e+000  6.138398e+001  0.000000e+000
      vertex  3.900000e+000  6.125000e+001  0.000000e+000
    endloop
  endfacet
  facet normal -1.000000e+000  0.000000e+000  0.000000e+000
    outer loop
      vertex  2.000000e+000  7.000000e+001  0.000000e+000
      vertex  2.000000e+000  7.000000e+001 -1.795498e+001
      vertex  2.000000e+000  6.225000e+001  0.000000e+000
    endloop
  endfacet
  facet normal -1.000000e+000  0.000000e+000  0.000000e+000
    outer loop
      vertex  2.000000e+000  6.225000e+001  0.000000e+000
      vertex  2.000000e+000  7.000000e+001 -1.795498e+001
      vertex  2.000000e+000  6.225000e+001 -1.795498e+001
    endloop
  endfacet
  facet normal -1.000000e+000  0.000000e+000  0.000000e+000
    outer loop
      vertex  2.000000e+000  7.000000e+001 -1.795498e+001
      vertex  2.000000e+000  6.743582e+001 -2.500000e+001
      vertex  2.000000e+000  6.225000e+001 -1.795498e+001
    endloop
  endfacet
  facet normal -1.000000e+000  0.000000e+000  0.000000e+000
    outer loop
      vertex  2.000000e+000  6.225000e+001 -1.795498e+001
      vertex  2.000000e+000  6.743582e+001 -2.500000e+001
      vertex  2.000000e+000  6.481418e+001 -2.500000e+001
    endloop
  endfacet
  facet normal -9.651051e-001 -2.460704e-001 -8.956232e-002
    outer loop
      vertex  2.000000e+000  6.225000e+001 -1.795498e+001
      vertex  2.000000e+000  6.481418e+001 -2.500000e+001
      vertex  2.137144e+000  6.174455e+001 -1.804411e+001
    endloop
  endfacet
  facet normal -9.972953e-001 -7.246027e-002 -1.231375e-002
    outer loop
      vertex  2.137144e+000  6.174455e+001 -1.804411e+001
      vertex  2.000000e+000  6.481418e+001 -2.500000e+001
      vertex  2.011886e+000  6.465059e+001 -2.500000e+001
    endloop
  endfacet
  facet normal -9.244697e-001 -3.574247e-001 -1.326777e-001
    outer loop
      vertex  2.137144e+000  6.174455e+001 -1.804411e+001
      vertex  2.011886e+000  6.465059e+001 -2.500000e+001
      vertex  2.189811e+000  6.419039e+001 -2.500000e+001
    endloop
  endfacet
  facet normal -7.045834e-001 -6.677566e-001 -2.401320e-001
    outer loop
      vertex  2.137144e+000  6.174455e+001 -1.804411e+001
      vertex  2.189811e+000  6.419039e+001 -2.500000e+001
      vertex  2.501291e+000  6.138323e+001 -1.810781e+001
    endloop
  endfacet
  facet normal -6.505139e-001 -7.132075e-001 -2.610876e-001
    outer loop
      vertex  2.501291e+000  6.138323e+001 -1.810781e+001
      vertex  2.189811e+000  6.419039e+001 -2.500000e+001
      vertex  2.544699e+000  6.386670e+001 -2.500000e+001
    endloop
  endfacet
  facet normal -2.581716e-001 -9.083749e-001 -3.289414e-001
    outer loop
      vertex  2.501291e+000  6.138323e+001 -1.810781e+001
      vertex  2.544699e+000  6.386670e+001 -2.500000e+001
      vertex  3.000000e+000  6.125000e+001 -1.813131e+001
    endloop
  endfacet
  facet normal -2.341584e-001 -9.135678e-001 -3.325115e-001
    outer loop
      vertex  3.000000e+000  6.125000e+001 -1.813131e+001
      vertex  2.544699e+000  6.386670e+001 -2.500000e+001
      vertex  3.000000e+000  6.375000e+001 -2.500000e+001
    endloop
  endfacet
  facet normal -2.581022e-001 -9.661176e-001  -0.000000e+000
    outer loop
      vertex  3.000000e+000  6.125000e+001 -1.813131e+001
      vertex  3.000000e+000  6.125000e+001  0.000000e+000
      vertex  2.501291e+000  6.138323e+001 -1.810781e+001
    endloop
  endfacet
  facet normal -2.588215e-001 -9.659251e-001  2.122679e-005
    outer loop
      vertex  2.501291e+000  6.138323e+001 -1.810781e+001
      vertex  3.000000e+000  6.125000e+001  0.000000e+000
      vertex  2.500000e+000  6.138398e+001  0.000000e+000
    endloop
  endfacet
  facet normal -7.043480e-001 -7.098550e-001 -2.105732e-005
    outer loop
      vertex  2.501291e+000  6.138323e+001 -1.810781e+001
      vertex  2.500000e+000  6.138398e+001  0.000000e+000
      vertex  2.137144e+000  6.174455e+001 -1.804411e+001
    endloop
  endfacet
  facet normal -7.071053e-001 -7.071081e-001  8.928306e-005
    outer loop
      vertex  2.137144e+000  6.174455e+001 -1.804411e+001
      vertex  2.500000e+000  6.138398e+001  0.000000e+000
      vertex  2.133975e+000  6.175000e+001  0.000000e+000
    endloop
  endfacet
  facet normal -9.651091e-001 -2.618482e-001 -9.045057e-005
    outer loop
      vertex  2.137144e+000  6.174455e+001 -1.804411e+001
      vertex  2.133975e+000  6.175000e+001  0.000000e+000
      vertex  2.000000e+000  6.225000e+001 -1.795498e+001
    endloop
  endfacet
  facet normal -9.659259e-001 -2.588190e-001  0.000000e+000
    outer loop
      vertex  2.000000e+000  6.225000e+001 -1.795498e+001
      vertex  2.133975e+000  6.175000e+001  0.000000e+000
      vertex  2.000000e+000  6.225000e+001  0.000000e+000
    endloop
  endfacet
  facet normal  0.000000e+000  9.396926e-001 -3.420201e-001
    outer loop
      vertex  3.900000e+000  6.850000e+001 -2.500000e+001
      vertex  3.000000e+000  6.850000e+001 -2.500000e+001
      vertex  3.900000e+000  7.100000e+001 -1.813131e+001
    endloop
  endfacet
  facet normal  0.000000e+000  9.396926e-001 -3.420201e-001
    outer loop
      vertex  3.900000e+000  7.100000e+001 -1.813131e+001
      vertex  3.000000e+000  6.850000e+001 -2.500000e+001
      vertex  3.000000e+000  7.100000e+001 -1.813131e+001
    endloop
  endfacet
  facet normal  0.000000e+000  1.000000e+000  0.000000e+000
    outer loop
      vertex  3.900000e+000  7.100000e+001 -1.813131e+001
      vertex  3.000000e+000  7.100000e+001 -1.813131e+001
      vertex  3.900000e+000  7.100000e+001  0.000000e+000
    endloop
  endfacet
  facet normal  0.000000e+000  1.000000e+000  0.000000e+000
    outer loop
      vertex  3.900000e+000  7.100000e+001  0.000000e+000
      vertex  3.000000e+000  7.100000e+001 -1.813131e+001
      vertex  3.000000e+000  7.100000e+001  0.000000e+000
    endloop
  endfacet
  facet normal -2.588147e-001  9.659270e-001  0.000000e+000
    outer loop
      vertex  3.000000e+000  7.100000e+001  0.000000e+000
      vertex  3.000000e+000  7.100000e+001 -1.813131e+001
      vertex  2.500000e+000  7.086603e+001  0.000000e+000
    endloop
  endfacet
  facet normal -2.581013e-001  9.661179e-001  2.108253e-005
    outer loop
      vertex  2.500000e+000  7.086603e+001  0.000000e+000
      vertex  3.000000e+000  7.100000e+001 -1.813131e+001
      vertex  2.501291e+000  7.086677e+001 -1.810782e+001
    endloop
  endfacet
  facet normal -7.071091e-001  7.071045e-001 -2.151613e-005
    outer loop
      vertex  2.500000e+000  7.086603e+001  0.000000e+000
      vertex  2.501291e+000  7.086677e+001 -1.810782e+001
      vertex  2.133975e+000  7.050000e+001  0.000000e+000
    endloop
  endfacet
  facet normal -7.043381e-001  7.098647e-001  9.060130e-005
    outer loop
      vertex  2.133975e+000  7.050000e+001  0.000000e+000
      vertex  2.501291e+000  7.086677e+001 -1.810782e+001
      vertex  2.137144e+000  7.050545e+001 -1.804410e+001
    endloop
  endfacet
  facet normal -9.659258e-001  2.588190e-001 -9.150855e-005
    outer loop
      vertex  2.133975e+000  7.050000e+001  0.000000e+000
      vertex  2.137144e+000  7.050545e+001 -1.804410e+001
      vertex  2.000000e+000  7.000000e+001  0.000000e+000
    endloop
  endfacet
  facet normal -9.651050e-001  2.618630e-001  0.000000e+000
    outer loop
      vertex  2.000000e+000  7.000000e+001  0.000000e+000
      vertex  2.137144e+000  7.050545e+001 -1.804410e+001
      vertex  2.000000e+000  7.000000e+001 -1.795498e+001
    endloop
  endfacet
  facet normal -2.580999e-001  9.078542e-001 -3.304319e-001
    outer loop
      vertex  3.000000e+000  7.100000e+001 -1.813131e+001
      vertex  3.000000e+000  6.850000e+001 -2.500000e+001
      vertex  2.501291e+000  7.086677e+001 -1.810782e+001
    endloop
  endfacet
  facet normal -2.343020e-001  9.141286e-001 -3.308645e-001
    outer loop
      vertex  2.501291e+000  7.086677e+001 -1.810782e+001
      vertex  3.000000e+000  6.850000e+001 -2.500000e+001
      vertex  2.544699e+000  6.838330e+001 -2.500000e+001
    endloop
  endfacet
  facet normal -7.041798e-001  6.665541e-001 -2.446151e-001
    outer loop
      vertex  2.501291e+000  7.086677e+001 -1.810782e+001
      vertex  2.544699e+000  6.838330e+001 -2.500000e+001
      vertex  2.137144e+000  7.050545e+001 -1.804410e+001
    endloop
  endfacet
  facet normal -6.514208e-001  7.142016e-001 -2.560605e-001
    outer loop
      vertex  2.137144e+000  7.050545e+001 -1.804410e+001
      vertex  2.544699e+000  6.838330e+001 -2.500000e+001
      vertex  2.189811e+000  6.805961e+001 -2.500000e+001
    endloop
  endfacet
  facet normal -9.649179e-001  2.453147e-001 -9.356368e-002
    outer loop
      vertex  2.137144e+000  7.050545e+001 -1.804410e+001
      vertex  2.189811e+000  6.805961e+001 -2.500000e+001
      vertex  2.000000e+000  7.000000e+001 -1.795498e+001
    endloop
  endfacet
  facet normal -9.255754e-001  3.578521e-001 -1.234996e-001
    outer loop
      vertex  2.000000e+000  7.000000e+001 -1.795498e+001
      vertex  2.189811e+000  6.805961e+001 -2.500000e+001
      vertex  2.011886e+000  6.759941e+001 -2.500000e+001
    endloop
  endfacet
  facet normal -9.970242e-001  7.244055e-002 -2.636621e-002
    outer loop
      vertex  2.000000e+000  7.000000e+001 -1.795498e+001
      vertex  2.011886e+000  6.759941e+001 -2.500000e+001
      vertex  2.000000e+000  6.743582e+001 -2.500000e+001
    endloop
  endfacet
  facet normal  0.000000e+000 -1.000000e+000  -0.000000e+000
    outer loop
      vertex  7.000000e+000  7.100000e+001  0.000000e+000
      vertex  7.000000e+000  7.100000e+001  5.800000e+001
      vertex  4.900000e+000  7.100000e+001  0.000000e+000
    endloop
  endfacet
  facet normal  0.000000e+000 -9.999999e-001  0.000000e+000
    outer loop
      vertex  4.900000e+000  7.100000e+001  0.000000e+000
      vertex  7.000000e+000  7.100000e+001  5.800000e+001
      vertex  4.900000e+000  7.100000e+001  9.000000e+000
    endloop
  endfacet
  facet normal  0.000000e+000 -9.999999e-001  0.000000e+000
    outer loop
      vertex  7.000000e+000  7.100000e+001  5.800000e+001
      vertex  2.000000e+000  7.100000e+001  5.800000e+001
      vertex  4.900000e+000  7.100000e+001  9.000000e+000
    endloop
  endfacet
  facet normal  0.000000e+000 -1.000000e+000  0.000000e+000
    outer loop
      vertex  4.900000e+000  7.100000e+001  9.000000e+000
      vertex  2.000000e+000  7.100000e+001  5.800000e+001
      vertex  2.000000e+000  7.100000e+001  9.000000e+000
    endloop
  endfacet
  facet normal  0.000000e+000  0.000000e+000  1.000000e+000
    outer loop
      vertex  4.900000e+000  6.125000e+001  9.000000e+000
      vertex  4.900000e+000  7.100000e+001  9.000000e+000
      vertex  2.000000e+000  6.125000e+001  9.000000e+000
    endloop
  endfacet
  facet normal  0.000000e+000  0.000000e+000  1.000000e+000
    outer loop
      vertex  2.000000e+000  6.125000e+001  9.000000e+000
      vertex  4.900000e+000  7.100000e+001  9.000000e+000
      vertex  2.000000e+000  7.100000e+001  9.000000e+000
    endloop
  endfacet
  facet normal  9.659259e-001  2.588190e-001  -0.000000e+000
    outer loop
      vertex  4.900000e+000  7.000000e+001  0.000000e+000
      vertex  4.900000e+000  7.000000e+001 -1.795498e+001
      vertex  4.766026e+000  7.050000e+001  0.000000e+000
    endloop
  endfacet
  facet normal  9.651098e-001  2.618457e-001 -9.037497e-005
    outer loop
      vertex  4.766026e+000  7.050000e+001  0.000000e+000
      vertex  4.900000e+000  7.000000e+001 -1.795498e+001
      vertex  4.762858e+000  7.050545e+001 -1.804410e+001
    endloop
  endfacet
  facet normal  7.071090e-001  7.071044e-001  8.933737e-005
    outer loop
      vertex  4.766026e+000  7.050000e+001  0.000000e+000
      vertex  4.762858e+000  7.050545e+001 -1.804410e+001
      vertex  4.400000e+000  7.086603e+001  0.000000e+000
    endloop
  endfacet
  facet normal  7.043440e-001  7.098588e-001 -2.130843e-005
    outer loop
      vertex  4.400000e+000  7.086603e+001  0.000000e+000
      vertex  4.762858e+000  7.050545e+001 -1.804410e+001
      vertex  4.398706e+000  7.086677e+001 -1.810782e+001
    endloop
  endfacet
  facet normal  2.588147e-001  9.659270e-001  2.098638e-005
    outer loop
      vertex  4.400000e+000  7.086603e+001  0.000000e+000
      vertex  4.398706e+000  7.086677e+001 -1.810782e+001
      vertex  3.900000e+000  7.100000e+001  0.000000e+000
    endloop
  endfacet
  facet normal  2.581035e-001  9.661173e-001  0.000000e+000
    outer loop
      vertex  3.900000e+000  7.100000e+001  0.000000e+000
      vertex  4.398706e+000  7.086677e+001 -1.810782e+001
      vertex  3.900000e+000  7.100000e+001 -1.813131e+001
    endloop
  endfacet
  facet normal  9.651056e-001  2.460686e-001 -8.956166e-002
    outer loop
      vertex  4.900000e+000  7.000000e+001 -1.795498e+001
      vertex  4.900000e+000  6.743582e+001 -2.500000e+001
      vertex  4.762858e+000  7.050545e+001 -1.804410e+001
    endloop
  endfacet
  facet normal  9.972954e-001  7.245887e-002 -1.231333e-002
    outer loop
      vertex  4.762858e+000  7.050545e+001 -1.804410e+001
      vertex  4.900000e+000  6.743582e+001 -2.500000e+001
      vertex  4.888114e+000  6.759941e+001 -2.500000e+001
    endloop
  endfacet
  facet normal  9.244693e-001  3.574255e-001 -1.326781e-001
    outer loop
      vertex  4.762858e+000  7.050545e+001 -1.804410e+001
      vertex  4.888114e+000  6.759941e+001 -2.500000e+001
      vertex  4.710189e+000  6.805961e+001 -2.500000e+001
    endloop
  endfacet
  facet normal  7.045821e-001  6.677577e-001 -2.401325e-001
    outer loop
      vertex  4.762858e+000  7.050545e+001 -1.804410e+001
      vertex  4.710189e+000  6.805961e+001 -2.500000e+001
      vertex  4.398706e+000  7.086677e+001 -1.810782e+001
    endloop
  endfacet
  facet normal  6.505144e-001  7.132071e-001 -2.610874e-001
    outer loop
      vertex  4.398706e+000  7.086677e+001 -1.810782e+001
      vertex  4.710189e+000  6.805961e+001 -2.500000e+001
      vertex  4.355301e+000  6.838330e+001 -2.500000e+001
    endloop
  endfacet
  facet normal  2.581706e-001  9.083751e-001 -3.289416e-001
    outer loop
      vertex  4.398706e+000  7.086677e+001 -1.810782e+001
      vertex  4.355301e+000  6.838330e+001 -2.500000e+001
      vertex  3.900000e+000  7.100000e+001 -1.813131e+001
    endloop
  endfacet
  facet normal  2.341584e-001  9.135678e-001 -3.325115e-001
    outer loop
      vertex  3.900000e+000  7.100000e+001 -1.813131e+001
      vertex  4.355301e+000  6.838330e+001 -2.500000e+001
      vertex  3.900000e+000  6.850000e+001 -2.500000e+001
    endloop
  endfacet
  facet normal  0.000000e+000  0.000000e+000 -9.999999e-001
    outer loop
      vertex  2.000000e+000  7.564178e+000 -2.500000e+001
      vertex  4.888114e+000  7.400591e+000 -2.500000e+001
      vertex  2.011886e+000  7.400591e+000 -2.500000e+001
    endloop
  endfacet
  facet normal  0.000000e+000  0.000000e+000 -1.000000e+000
    outer loop
      vertex  2.011886e+000  7.400591e+000 -2.500000e+001
      vertex  4.888114e+000  7.400591e+000 -2.500000e+001
      vertex  4.710189e+000  6.940391e+000 -2.500000e+001
    endloop
  endfacet
  facet normal  0.000000e+000  0.000000e+000 -1.000000e+000
    outer loop
      vertex  2.011886e+000  7.400591e+000 -2.500000e+001
      vertex  4.710189e+000  6.940391e+000 -2.500000e+001
      vertex  2.189811e+000  6.940391e+000 -2.500000e+001
    endloop
  endfacet
  facet normal  0.000000e+000  0.000000e+000 -1.000000e+000
    outer loop
      vertex  2.189811e+000  6.940391e+000 -2.500000e+001
      vertex  4.710189e+000  6.940391e+000 -2.500000e+001
      vertex  4.355301e+000  6.616701e+000 -2.500000e+001
    endloop
  endfacet
  facet normal  0.000000e+000  0.000000e+000 -1.000000e+000
    outer loop
      vertex  2.189811e+000  6.940391e+000 -2.500000e+001
      vertex  4.355301e+000  6.616701e+000 -2.500000e+001
      vertex  2.544699e+000  6.616701e+000 -2.500000e+001
    endloop
  endfacet
  facet normal  0.000000e+000  0.000000e+000 -1.000000e+000
    outer loop
      vertex  2.544699e+000  6.616701e+000 -2.500000e+001
      vertex  4.355301e+000  6.616701e+000 -2.500000e+001
      vertex  3.900000e+000  6.500000e+000 -2.500000e+001
    endloop
  endfacet
  facet normal  0.000000e+000  0.000000e+000 -1.000000e+000
    outer loop
      vertex  2.544699e+000  6.616701e+000 -2.500000e+001
      vertex  3.900000e+000  6.500000e+000 -2.500000e+001
      vertex  3.000000e+000  6.500000e+000 -2.500000e+001
    endloop
  endfacet
  facet normal  0.000000e+000  0.000000e+000 -1.000000e+000
    outer loop
      vertex  4.888114e+000  7.400591e+000 -2.500000e+001
      vertex  2.000000e+000  7.564178e+000 -2.500000e+001
      vertex  4.900000e+000  7.564178e+000 -2.500000e+001
    endloop
  endfacet
  facet normal  0.000000e+000  0.000000e+000 -1.000000e+000
    outer loop
      vertex  4.900000e+000  7.564178e+000 -2.500000e+001
      vertex  2.000000e+000  7.564178e+000 -2.500000e+001
      vertex  2.000000e+000  1.018582e+001 -2.500000e+001
    endloop
  endfacet
  facet normal  0.000000e+000  0.000000e+000 -1.000000e+000
    outer loop
      vertex  4.900000e+000  7.564178e+000 -2.500000e+001
      vertex  2.000000e+000  1.018582e+001 -2.500000e+001
      vertex  4.900000e+000  1.018582e+001 -2.500000e+001
    endloop
  endfacet
  facet normal  0.000000e+000  0.000000e+000 -1.000000e+000
    outer loop
      vertex  4.900000e+000  1.018582e+001 -2.500000e+001
      vertex  2.000000e+000  1.018582e+001 -2.500000e+001
      vertex  2.011886e+000  1.034941e+001 -2.500000e+001
    endloop
  endfacet
  facet normal  0.000000e+000  0.000000e+000 -9.999999e-001
    outer loop
      vertex  4.900000e+000  1.018582e+001 -2.500000e+001
      vertex  2.011886e+000  1.034941e+001 -2.500000e+001
      vertex  4.888114e+000  1.034941e+001 -2.500000e+001
    endloop
  endfacet
  facet normal  0.000000e+000  0.000000e+000 -1.000000e+000
    outer loop
      vertex  4.888114e+000  1.034941e+001 -2.500000e+001
      vertex  2.011886e+000  1.034941e+001 -2.500000e+001
      vertex  2.189811e+000  1.080961e+001 -2.500000e+001
    endloop
  endfacet
  facet normal  0.000000e+000  0.000000e+000 -1.000000e+000
    outer loop
      vertex  4.888114e+000  1.034941e+001 -2.500000e+001
      vertex  2.189811e+000  1.080961e+001 -2.500000e+001
      vertex  4.710189e+000  1.080961e+001 -2.500000e+001
    endloop
  endfacet
  facet normal  0.000000e+000  0.000000e+000 -1.000000e+000
    outer loop
      vertex  4.710189e+000  1.080961e+001 -2.500000e+001
      vertex  2.189811e+000  1.080961e+001 -2.500000e+001
      vertex  2.544699e+000  1.113330e+001 -2.500000e+001
    endloop
  endfacet
  facet normal  0.000000e+000  0.000000e+000 -1.000000e+000
    outer loop
      vertex  4.710189e+000  1.080961e+001 -2.500000e+001
      vertex  2.544699e+000  1.113330e+001 -2.500000e+001
      vertex  4.355301e+000  1.113330e+001 -2.500000e+001
    endloop
  endfacet
  facet normal  0.000000e+000  0.000000e+000 -1.000000e+000
    outer loop
      vertex  4.355301e+000  1.113330e+001 -2.500000e+001
      vertex  2.544699e+000  1.113330e+001 -2.500000e+001
      vertex  3.000000e+000  1.125000e+001 -2.500000e+001
    endloop
  endfacet
  facet normal  0.000000e+000  0.000000e+000 -1.000000e+000
    outer loop
      vertex  4.355301e+000  1.113330e+001 -2.500000e+001
      vertex  3.000000e+000  1.125000e+001 -2.500000e+001
      vertex  3.900000e+000  1.125000e+001 -2.500000e+001
    endloop
  endfacet
  facet normal  -0.000000e+000 -9.396926e-001 -3.420201e-001
    outer loop
      vertex  3.000000e+000  6.500000e+000 -2.500000e+001
      vertex  3.900000e+000  6.500000e+000 -2.500000e+001
      vertex  3.000000e+000  4.000000e+000 -1.813131e+001
    endloop
  endfacet
  facet normal  0.000000e+000 -9.396926e-001 -3.420201e-001
    outer loop
      vertex  3.000000e+000  4.000000e+000 -1.813131e+001
      vertex  3.900000e+000  6.500000e+000 -2.500000e+001
      vertex  3.900000e+000  4.000000e+000 -1.813131e+001
    endloop
  endfacet
  facet normal  0.000000e+000 -1.000000e+000  0.000000e+000
    outer loop
      vertex  3.900000e+000  4.000000e+000  0.000000e+000
      vertex  3.000000e+000  4.000000e+000  0.000000e+000
      vertex  3.900000e+000  4.000000e+000 -1.813131e+001
    endloop
  endfacet
  facet normal  0.000000e+000 -1.000000e+000  0.000000e+000
    outer loop
      vertex  3.900000e+000  4.000000e+000 -1.813131e+001
      vertex  3.000000e+000  4.000000e+000  0.000000e+000
      vertex  3.000000e+000  4.000000e+000 -1.813131e+001
    endloop
  endfacet
  facet normal -1.000000e+000  0.000000e+000  0.000000e+000
    outer loop
      vertex  2.000000e+000  1.275000e+001  0.000000e+000
      vertex  2.000000e+000  1.275000e+001 -1.795498e+001
      vertex  2.000000e+000  5.000000e+000  0.000000e+000
    endloop
  endfacet
  facet normal -1.000000e+000  0.000000e+000  0.000000e+000
    outer loop
      vertex  2.000000e+000  5.000000e+000  0.000000e+000
      vertex  2.000000e+000  1.275000e+001 -1.795498e+001
      vertex  2.000000e+000  5.000000e+000 -1.795498e+001
    endloop
  endfacet
  facet normal -1.000000e+000  0.000000e+000  0.000000e+000
    outer loop
      vertex  2.000000e+000  1.275000e+001 -1.795498e+001
      vertex  2.000000e+000  1.018582e+001 -2.500000e+001
      vertex  2.000000e+000  5.000000e+000 -1.795498e+001
    endloop
  endfacet
  facet normal -1.000000e+000  0.000000e+000  0.000000e+000
    outer loop
      vertex  2.000000e+000  5.000000e+000 -1.795498e+001
      vertex  2.000000e+000  1.018582e+001 -2.500000e+001
      vertex  2.000000e+000  7.564178e+000 -2.500000e+001
    endloop
  endfacet
  facet normal -9.651054e-001 -2.460697e-001 -8.956207e-002
    outer loop
      vertex  2.000000e+000  5.000000e+000 -1.795498e+001
      vertex  2.000000e+000  7.564178e+000 -2.500000e+001
      vertex  2.137144e+000  4.494551e+000 -1.804411e+001
    endloop
  endfacet
  facet normal -9.972953e-001 -7.246136e-002 -1.231425e-002
    outer loop
      vertex  2.137144e+000  4.494551e+000 -1.804411e+001
      vertex  2.000000e+000  7.564178e+000 -2.500000e+001
      vertex  2.011886e+000  7.400591e+000 -2.500000e+001
    endloop
  endfacet
  facet normal -9.244704e-001 -3.574231e-001 -1.326772e-001
    outer loop
      vertex  2.137144e+000  4.494551e+000 -1.804411e+001
      vertex  2.011886e+000  7.400591e+000 -2.500000e+001
      vertex  2.189811e+000  6.940391e+000 -2.500000e+001
    endloop
  endfacet
  facet normal -7.045837e-001 -6.677563e-001 -2.401320e-001
    outer loop
      vertex  2.137144e+000  4.494551e+000 -1.804411e+001
      vertex  2.189811e+000  6.940391e+000 -2.500000e+001
      vertex  2.501291e+000  4.133231e+000 -1.810781e+001
    endloop
  endfacet
  facet normal -6.505119e-001 -7.132090e-001 -2.610884e-001
    outer loop
      vertex  2.501291e+000  4.133231e+000 -1.810781e+001
      vertex  2.189811e+000  6.940391e+000 -2.500000e+001
      vertex  2.544699e+000  6.616701e+000 -2.500000e+001
    endloop
  endfacet
  facet normal -2.581692e-001 -9.083754e-001 -3.289419e-001
    outer loop
      vertex  2.501291e+000  4.133231e+000 -1.810781e+001
      vertex  2.544699e+000  6.616701e+000 -2.500000e+001
      vertex  3.000000e+000  4.000000e+000 -1.813131e+001
    endloop
  endfacet
  facet normal -2.341610e-001 -9.135672e-001 -3.325112e-001
    outer loop
      vertex  3.000000e+000  4.000000e+000 -1.813131e+001
      vertex  2.544699e+000  6.616701e+000 -2.500000e+001
      vertex  3.000000e+000  6.500000e+000 -2.500000e+001
    endloop
  endfacet
  facet normal -9.659259e-001 -2.588190e-001  0.000000e+000
    outer loop
      vertex  2.000000e+000  5.000000e+000  0.000000e+000
      vertex  2.000000e+000  5.000000e+000 -1.795498e+001
      vertex  2.133975e+000  4.500000e+000  0.000000e+000
    endloop
  endfacet
  facet normal -9.651092e-001 -2.618475e-001 -9.043005e-005
    outer loop
      vertex  2.133975e+000  4.500000e+000  0.000000e+000
      vertex  2.000000e+000  5.000000e+000 -1.795498e+001
      vertex  2.137144e+000  4.494551e+000 -1.804411e+001
    endloop
  endfacet
  facet normal -7.071068e-001 -7.071068e-001  8.933846e-005
    outer loop
      vertex  2.133975e+000  4.500000e+000  0.000000e+000
      vertex  2.137144e+000  4.494551e+000 -1.804411e+001
      vertex  2.500000e+000  4.133975e+000  0.000000e+000
    endloop
  endfacet
  facet normal -7.043480e-001 -7.098550e-001 -2.105732e-005
    outer loop
      vertex  2.500000e+000  4.133975e+000  0.000000e+000
      vertex  2.137144e+000  4.494551e+000 -1.804411e+001
      vertex  2.501291e+000  4.133231e+000 -1.810781e+001
    endloop
  endfacet
  facet normal -2.588190e-001 -9.659259e-001  2.122700e-005
    outer loop
      vertex  2.500000e+000  4.133975e+000  0.000000e+000
      vertex  2.501291e+000  4.133231e+000 -1.810781e+001
      vertex  3.000000e+000  4.000000e+000  0.000000e+000
    endloop
  endfacet
  facet normal -2.580996e-001 -9.661183e-001  -0.000000e+000
    outer loop
      vertex  3.000000e+000  4.000000e+000  0.000000e+000
      vertex  2.501291e+000  4.133231e+000 -1.810781e+001
      vertex  3.000000e+000  4.000000e+000 -1.813131e+001
    endloop
  endfacet
  facet normal  1.000000e+000  0.000000e+000  -0.000000e+000
    outer loop
      vertex  4.900000e+000  1.275000e+001  0.000000e+000
      vertex  4.900000e+000  1.375000e+001  0.000000e+000
      vertex  4.900000e+000  1.375000e+001  2.000000e+000
    endloop
  endfacet
  facet normal  1.000000e+000  0.000000e+000  0.000000e+000
    outer loop
      vertex  4.900000e+000  1.275000e+001  0.000000e+000
      vertex  4.900000e+000  1.375000e+001  2.000000e+000
      vertex  4.900000e+000  5.000000e+000  0.000000e+000
    endloop
  endfacet
  facet normal  1.000000e+000  -0.000000e+000  0.000000e+000
    outer loop
      vertex  4.900000e+000  1.275000e+001  0.000000e+000
      vertex  4.900000e+000  5.000000e+000  0.000000e+000
      vertex  4.900000e+000  5.000000e+000 -1.795498e+001
    endloop
  endfacet
  facet normal  1.000000e+000  0.000000e+000  0.000000e+000
    outer loop
      vertex  4.900000e+000  1.275000e+001  0.000000e+000
      vertex  4.900000e+000  5.000000e+000 -1.795498e+001
      vertex  4.900000e+000  1.275000e+001 -1.795498e+001
    endloop
  endfacet
  facet normal  1.000000e+000  -0.000000e+000  0.000000e+000
    outer loop
      vertex  4.900000e+000  1.375000e+001  9.000000e+000
      vertex  4.900000e+000  4.000000e+000  9.000000e+000
      vertex  4.900000e+000  1.375000e+001  2.000000e+000
    endloop
  endfacet
  facet normal  1.000000e+000  0.000000e+000  0.000000e+000
    outer loop
      vertex  4.900000e+000  1.375000e+001  2.000000e+000
      vertex  4.900000e+000  4.000000e+000  9.000000e+000
      vertex  4.900000e+000  4.000000e+000  0.000000e+000
    endloop
  endfacet
  facet normal  1.000000e+000  0.000000e+000  0.000000e+000
    outer loop
      vertex  4.900000e+000  1.375000e+001  2.000000e+000
      vertex  4.900000e+000  4.000000e+000  0.000000e+000
      vertex  4.900000e+000  5.000000e+000  0.000000e+000
    endloop
  endfacet
  facet normal  1.000000e+000  0.000000e+000  0.000000e+000
    outer loop
      vertex  4.900000e+000  7.564178e+000 -2.500000e+001
      vertex  4.900000e+000  1.018582e+001 -2.500000e+001
      vertex  4.900000e+000  5.000000e+000 -1.795498e+001
    endloop
  endfacet
  facet normal  1.000000e+000  -0.000000e+000  0.000000e+000
    outer loop
      vertex  4.900000e+000  5.000000e+000 -1.795498e+001
      vertex  4.900000e+000  1.018582e+001 -2.500000e+001
      vertex  4.900000e+000  1.275000e+001 -1.795498e+001
    endloop
  endfacet
  facet normal  0.000000e+000  1.000000e+000  -0.000000e+000
    outer loop
      vertex  7.000000e+000  4.000000e+000  5.800000e+001
      vertex  7.000000e+000  4.000000e+000  0.000000e+000
      vertex  4.900000e+000  4.000000e+000  0.000000e+000
    endloop
  endfacet
  facet normal  0.000000e+000  9.999999e-001  0.000000e+000
    outer loop
      vertex  7.000000e+000  4.000000e+000  5.800000e+001
      vertex  4.900000e+000  4.000000e+000  0.000000e+000
      vertex  4.900000e+000  4.000000e+000  9.000000e+000
    endloop
  endfacet
  facet normal  0.000000e+000  1.000000e+000  -0.000000e+000
    outer loop
      vertex  7.000000e+000  4.000000e+000  5.800000e+001
      vertex  4.900000e+000  4.000000e+000  9.000000e+000
      vertex  2.000000e+000  4.000000e+000  9.000000e+000
    endloop
  endfacet
  facet normal  0.000000e+000  9.999999e-001  0.000000e+000
    outer loop
      vertex  7.000000e+000  4.000000e+000  5.800000e+001
      vertex  2.000000e+000  4.000000e+000  9.000000e+000
      vertex  2.000000e+000  4.000000e+000  5.800000e+001
    endloop
  endfacet
  facet normal  2.580993e-001 -9.078544e-001 -3.304319e-001
    outer loop
      vertex  3.900000e+000  4.000000e+000 -1.813131e+001
      vertex  3.900000e+000  6.500000e+000 -2.500000e+001
      vertex  4.398706e+000  4.133229e+000 -1.810781e+001
    endloop
  endfacet
  facet normal  2.343051e-001 -9.141280e-001 -3.308646e-001
    outer loop
      vertex  4.398706e+000  4.133229e+000 -1.810781e+001
      vertex  3.900000e+000  6.500000e+000 -2.500000e+001
      vertex  4.355301e+000  6.616701e+000 -2.500000e+001
    endloop
  endfacet
  facet normal  7.041768e-001 -6.665568e-001 -2.446160e-001
    outer loop
      vertex  4.398706e+000  4.133229e+000 -1.810781e+001
      vertex  4.355301e+000  6.616701e+000 -2.500000e+001
      vertex  4.762858e+000  4.494554e+000 -1.804411e+001
    endloop
  endfacet
  facet normal  6.514189e-001 -7.142032e-001 -2.560611e-001
    outer loop
      vertex  4.762858e+000  4.494554e+000 -1.804411e+001
      vertex  4.355301e+000  6.616701e+000 -2.500000e+001
      vertex  4.710189e+000  6.940391e+000 -2.500000e+001
    endloop
  endfacet
  facet normal  9.649187e-001 -2.453121e-001 -9.356300e-002
    outer loop
      vertex  4.762858e+000  4.494554e+000 -1.804411e+001
      vertex  4.710189e+000  6.940391e+000 -2.500000e+001
      vertex  4.900000e+000  5.000000e+000 -1.795498e+001
    endloop
  endfacet
  facet normal  9.255757e-001 -3.578513e-001 -1.234994e-001
    outer loop
      vertex  4.900000e+000  5.000000e+000 -1.795498e+001
      vertex  4.710189e+000  6.940391e+000 -2.500000e+001
      vertex  4.888114e+000  7.400591e+000 -2.500000e+001
    endloop
  endfacet
  facet normal  9.970242e-001 -7.244015e-002 -2.636606e-002
    outer loop
      vertex  4.900000e+000  5.000000e+000 -1.795498e+001
      vertex  4.888114e+000  7.400591e+000 -2.500000e+001
      vertex  4.900000e+000  7.564178e+000 -2.500000e+001
    endloop
  endfacet
  facet normal  2.588190e-001 -9.659259e-001  0.000000e+000
    outer loop
      vertex  3.900000e+000  4.000000e+000  0.000000e+000
      vertex  3.900000e+000  4.000000e+000 -1.813131e+001
      vertex  4.400000e+000  4.133975e+000  0.000000e+000
    endloop
  endfacet
  facet normal  2.580974e-001 -9.661189e-001  2.132532e-005
    outer loop
      vertex  4.400000e+000  4.133975e+000  0.000000e+000
      vertex  3.900000e+000  4.000000e+000 -1.813131e+001
      vertex  4.398706e+000  4.133229e+000 -1.810781e+001
    endloop
  endfacet
  facet normal  7.071068e-001 -7.071068e-001 -2.141346e-005
    outer loop
      vertex  4.400000e+000  4.133975e+000  0.000000e+000
      vertex  4.398706e+000  4.133229e+000 -1.810781e+001
      vertex  4.766026e+000  4.500000e+000  0.000000e+000
    endloop
  endfacet
  facet normal  7.043378e-001 -7.098649e-001  9.061969e-005
    outer loop
      vertex  4.766026e+000  4.500000e+000  0.000000e+000
      vertex  4.398706e+000  4.133229e+000 -1.810781e+001
      vertex  4.762858e+000  4.494554e+000 -1.804411e+001
    endloop
  endfacet
  facet normal  9.659259e-001 -2.588190e-001 -9.144563e-005
    outer loop
      vertex  4.766026e+000  4.500000e+000  0.000000e+000
      vertex  4.762858e+000  4.494554e+000 -1.804411e+001
      vertex  4.900000e+000  5.000000e+000  0.000000e+000
    endloop
  endfacet
  facet normal  9.651057e-001 -2.618610e-001  0.000000e+000
    outer loop
      vertex  4.900000e+000  5.000000e+000  0.000000e+000
      vertex  4.762858e+000  4.494554e+000 -1.804411e+001
      vertex  4.900000e+000  5.000000e+000 -1.795498e+001
    endloop
  endfacet
  facet normal  0.000000e+000  9.396926e-001 -3.420201e-001
    outer loop
      vertex  3.000000e+000  1.125000e+001 -2.500000e+001
      vertex  3.000000e+000  1.375000e+001 -1.813131e+001
      vertex  3.900000e+000  1.125000e+001 -2.500000e+001
    endloop
  endfacet
  facet normal  0.000000e+000  9.396926e-001 -3.420201e-001
    outer loop
      vertex  3.900000e+000  1.125000e+001 -2.500000e+001
      vertex  3.000000e+000  1.375000e+001 -1.813131e+001
      vertex  3.900000e+000  1.375000e+001 -1.813131e+001
    endloop
  endfacet
  facet normal  0.000000e+000  1.000000e+000  -0.000000e+000
    outer loop
      vertex  3.900000e+000  1.375000e+001  0.000000e+000
      vertex  3.900000e+000  1.375000e+001 -1.813131e+001
      vertex  3.000000e+000  1.375000e+001  0.000000e+000
    endloop
  endfacet
  facet normal  0.000000e+000  1.000000e+000  0.000000e+000
    outer loop
      vertex  3.000000e+000  1.375000e+001  0.000000e+000
      vertex  3.900000e+000  1.375000e+001 -1.813131e+001
      vertex  3.000000e+000  1.375000e+001 -1.813131e+001
    endloop
  endfacet
  facet normal -9.651052e-001  2.618621e-001  0.000000e+000
    outer loop
      vertex  2.000000e+000  1.275000e+001 -1.795498e+001
      vertex  2.000000e+000  1.275000e+001  0.000000e+000
      vertex  2.137144e+000  1.325545e+001 -1.804410e+001
    endloop
  endfacet
  facet normal -9.659258e-001  2.588190e-001 -9.148119e-005
    outer loop
      vertex  2.137144e+000  1.325545e+001 -1.804410e+001
      vertex  2.000000e+000  1.275000e+001  0.000000e+000
      vertex  2.133975e+000  1.325000e+001  0.000000e+000
    endloop
  endfacet
  facet normal -7.043371e-001  7.098656e-001  9.067677e-005
    outer loop
      vertex  2.137144e+000  1.325545e+001 -1.804410e+001
      vertex  2.133975e+000  1.325000e+001  0.000000e+000
      vertex  2.501291e+000  1.361677e+001 -1.810782e+001
    endloop
  endfacet
  facet normal -7.071064e-001  7.071072e-001 -2.136686e-005
    outer loop
      vertex  2.501291e+000  1.361677e+001 -1.810782e+001
      vertex  2.133975e+000  1.325000e+001  0.000000e+000
      vertex  2.500000e+000  1.361602e+001  0.000000e+000
    endloop
  endfacet
  facet normal -2.580996e-001  9.661183e-001  2.128620e-005
    outer loop
      vertex  2.501291e+000  1.361677e+001 -1.810782e+001
      vertex  2.500000e+000  1.361602e+001  0.000000e+000
      vertex  3.000000e+000  1.375000e+001 -1.813131e+001
    endloop
  endfacet
  facet normal -2.588198e-001  9.659256e-001  0.000000e+000
    outer loop
      vertex  3.000000e+000  1.375000e+001 -1.813131e+001
      vertex  2.500000e+000  1.361602e+001  0.000000e+000
      vertex  3.000000e+000  1.375000e+001  0.000000e+000
    endloop
  endfacet
  facet normal -2.580985e-001  9.078546e-001 -3.304320e-001
    outer loop
      vertex  3.000000e+000  1.375000e+001 -1.813131e+001
      vertex  3.000000e+000  1.125000e+001 -2.500000e+001
      vertex  2.501291e+000  1.361677e+001 -1.810782e+001
    endloop
  endfacet
  facet normal -2.343041e-001  9.141281e-001 -3.308646e-001
    outer loop
      vertex  2.501291e+000  1.361677e+001 -1.810782e+001
      vertex  3.000000e+000  1.125000e+001 -2.500000e+001
      vertex  2.544699e+000  1.113330e+001 -2.500000e+001
    endloop
  endfacet
  facet normal -7.041788e-001  6.665548e-001 -2.446155e-001
    outer loop
      vertex  2.501291e+000  1.361677e+001 -1.810782e+001
      vertex  2.544699e+000  1.113330e+001 -2.500000e+001
      vertex  2.137144e+000  1.325545e+001 -1.804410e+001
    endloop
  endfacet
  facet normal -6.514187e-001  7.142032e-001 -2.560611e-001
    outer loop
      vertex  2.137144e+000  1.325545e+001 -1.804410e+001
      vertex  2.544699e+000  1.113330e+001 -2.500000e+001
      vertex  2.189811e+000  1.080961e+001 -2.500000e+001
    endloop
  endfacet
  facet normal -9.649182e-001  2.453139e-001 -9.356345e-002
    outer loop
      vertex  2.137144e+000  1.325545e+001 -1.804410e+001
      vertex  2.189811e+000  1.080961e+001 -2.500000e+001
      vertex  2.000000e+000  1.275000e+001 -1.795498e+001
    endloop
  endfacet
  facet normal -9.255762e-001  3.578502e-001 -1.234990e-001
    outer loop
      vertex  2.000000e+000  1.275000e+001 -1.795498e+001
      vertex  2.189811e+000  1.080961e+001 -2.500000e+001
      vertex  2.011886e+000  1.034941e+001 -2.500000e+001
    endloop
  endfacet
  facet normal -9.970241e-001  7.244180e-002 -2.636665e-002
    outer loop
      vertex  2.000000e+000  1.275000e+001 -1.795498e+001
      vertex  2.011886e+000  1.034941e+001 -2.500000e+001
      vertex  2.000000e+000  1.018582e+001 -2.500000e+001
    endloop
  endfacet
  facet normal  0.000000e+000 -1.000000e+000  0.000000e+000
    outer loop
      vertex  7.000000e+000  1.375000e+001  2.000000e+000
      vertex  4.900000e+000  1.375000e+001  2.000000e+000
      vertex  7.000000e+000  1.375000e+001  0.000000e+000
    endloop
  endfacet
  facet normal  0.000000e+000 -1.000000e+000  0.000000e+000
    outer loop
      vertex  7.000000e+000  1.375000e+001  0.000000e+000
      vertex  4.900000e+000  1.375000e+001  2.000000e+000
      vertex  4.900000e+000  1.375000e+001  0.000000e+000
    endloop
  endfacet
  facet normal  0.000000e+000  0.000000e+000  1.000000e+000
    outer loop
      vertex  4.900000e+000  4.000000e+000  9.000000e+000
      vertex  4.900000e+000  1.375000e+001  9.000000e+000
      vertex  2.000000e+000  4.000000e+000  9.000000e+000
    endloop
  endfacet
  facet normal  0.000000e+000  0.000000e+000  1.000000e+000
    outer loop
      vertex  2.000000e+000  4.000000e+000  9.000000e+000
      vertex  4.900000e+000  1.375000e+001  9.000000e+000
      vertex  2.000000e+000  1.375000e+001  9.000000e+000
    endloop
  endfacet
  facet normal  2.581001e-001  9.661182e-001  0.000000e+000
    outer loop
      vertex  3.900000e+000  1.375000e+001 -1.813131e+001
      vertex  3.900000e+000  1.375000e+001  0.000000e+000
      vertex  4.398706e+000  1.361677e+001 -1.810782e+001
    endloop
  endfacet
  facet normal  2.588198e-001  9.659256e-001  2.124032e-005
    outer loop
      vertex  4.398706e+000  1.361677e+001 -1.810782e+001
      vertex  3.900000e+000  1.375000e+001  0.000000e+000
      vertex  4.400000e+000  1.361602e+001  0.000000e+000
    endloop
  endfacet
  facet normal  7.043458e-001  7.098570e-001 -2.112171e-005
    outer loop
      vertex  4.398706e+000  1.361677e+001 -1.810782e+001
      vertex  4.400000e+000  1.361602e+001  0.000000e+000
      vertex  4.762858e+000  1.325545e+001 -1.804410e+001
    endloop
  endfacet
  facet normal  7.071064e-001  7.071072e-001  8.933870e-005
    outer loop
      vertex  4.762858e+000  1.325545e+001 -1.804410e+001
      vertex  4.400000e+000  1.361602e+001  0.000000e+000
      vertex  4.766026e+000  1.325000e+001  0.000000e+000
    endloop
  endfacet
  facet normal  9.651098e-001  2.618457e-001 -9.037497e-005
    outer loop
      vertex  4.762858e+000  1.325545e+001 -1.804410e+001
      vertex  4.766026e+000  1.325000e+001  0.000000e+000
      vertex  4.900000e+000  1.275000e+001 -1.795498e+001
    endloop
  endfacet
  facet normal  9.659259e-001  2.588190e-001  -0.000000e+000
    outer loop
      vertex  4.900000e+000  1.275000e+001 -1.795498e+001
      vertex  4.766026e+000  1.325000e+001  0.000000e+000
      vertex  4.900000e+000  1.275000e+001  0.000000e+000
    endloop
  endfacet
  facet normal  9.651056e-001  2.460686e-001 -8.956163e-002
    outer loop
      vertex  4.900000e+000  1.275000e+001 -1.795498e+001
      vertex  4.900000e+000  1.018582e+001 -2.500000e+001
      vertex  4.762858e+000  1.325545e+001 -1.804410e+001
    endloop
  endfacet
  facet normal  9.972953e-001  7.246008e-002 -1.231388e-002
    outer loop
      vertex  4.762858e+000  1.325545e+001 -1.804410e+001
      vertex  4.900000e+000  1.018582e+001 -2.500000e+001
      vertex  4.888114e+000  1.034941e+001 -2.500000e+001
    endloop
  endfacet
  facet normal  9.244701e-001  3.574236e-001 -1.326774e-001
    outer loop
      vertex  4.762858e+000  1.325545e+001 -1.804410e+001
      vertex  4.888114e+000  1.034941e+001 -2.500000e+001
      vertex  4.710189e+000  1.080961e+001 -2.500000e+001
    endloop
  endfacet
  facet normal  7.045837e-001  6.677563e-001 -2.401319e-001
    outer loop
      vertex  4.762858e+000  1.325545e+001 -1.804410e+001
      vertex  4.710189e+000  1.080961e+001 -2.500000e+001
      vertex  4.398706e+000  1.361677e+001 -1.810782e+001
    endloop
  endfacet
  facet normal  6.505121e-001  7.132089e-001 -2.610883e-001
    outer loop
      vertex  4.398706e+000  1.361677e+001 -1.810782e+001
      vertex  4.710189e+000  1.080961e+001 -2.500000e+001
      vertex  4.355301e+000  1.113330e+001 -2.500000e+001
    endloop
  endfacet
  facet normal  2.581673e-001  9.083759e-001 -3.289422e-001
    outer loop
      vertex  4.398706e+000  1.361677e+001 -1.810782e+001
      vertex  4.355301e+000  1.113330e+001 -2.500000e+001
      vertex  3.900000e+000  1.375000e+001 -1.813131e+001
    endloop
  endfacet
  facet normal  2.341605e-001  9.135672e-001 -3.325112e-001
    outer loop
      vertex  3.900000e+000  1.375000e+001 -1.813131e+001
      vertex  4.355301e+000  1.113330e+001 -2.500000e+001
      vertex  3.900000e+000  1.125000e+001 -2.500000e+001
    endloop
  endfacet
  facet normal -1.000000e+000  0.000000e+000  0.000000e+000
    outer loop
      vertex  0.000000e+000  0.000000e+000  0.000000e+000
      vertex  0.000000e+000  0.000000e+000  5.700000e+001
      vertex  0.000000e+000  7.500000e+001  0.000000e+000
    endloop
  endfacet
  facet normal -1.000000e+000  0.000000e+000  0.000000e+000
    outer loop
      vertex  0.000000e+000  7.500000e+001  0.000000e+000
      vertex  0.000000e+000  0.000000e+000  5.700000e+001
      vertex  0.000000e+000  7.500000e+001  5.700000e+001
    endloop
  endfacet
  facet normal  0.000000e+000 -1.000000e+000  0.000000e+000
    outer loop
      vertex  3.000000e+000  0.000000e+000  6.000000e+001
      vertex  2.072949e+000  0.000000e+000  5.985317e+001
      vertex  7.000000e+000  0.000000e+000  6.000000e+001
    endloop
  endfacet
  facet normal  0.000000e+000 -9.999999e-001  -0.000000e+000
    outer loop
      vertex  2.000000e+000  0.000000e+000  5.800000e+001
      vertex  5.729490e-001  0.000000e+000  5.876336e+001
      vertex  1.468305e-001  0.000000e+000  5.792705e+001
    endloop
  endfacet
  facet normal  0.000000e+000 -1.000000e+000  -0.000000e+000
    outer loop
      vertex  2.000000e+000  0.000000e+000  5.800000e+001
      vertex  1.468305e-001  0.000000e+000  5.792705e+001
      vertex  0.000000e+000  0.000000e+000  5.700000e+001
    endloop
  endfacet
  facet normal  0.000000e+000 -1.000000e+000  0.000000e+000
    outer loop
      vertex  2.000000e+000  0.000000e+000  5.800000e+001
      vertex  0.000000e+000  0.000000e+000  5.700000e+001
      vertex  0.000000e+000  0.000000e+000  0.000000e+000
    endloop
  endfacet
  facet normal  0.000000e+000 -1.000000e+000  0.000000e+000
    outer loop
      vertex  2.000000e+000  0.000000e+000  5.800000e+001
      vertex  0.000000e+000  0.000000e+000  0.000000e+000
      vertex  2.000000e+000  0.000000e+000  0.000000e+000
    endloop
  endfacet
  facet normal  0.000000e+000 -1.000000e+000  0.000000e+000
    outer loop
      vertex  2.000000e+000  0.000000e+000  5.800000e+001
      vertex  7.000000e+000  0.000000e+000  5.800000e+001
      vertex  5.729490e-001  0.000000e+000  5.876336e+001
    endloop
  endfacet
  facet normal  0.000000e+000 -1.000000e+000  0.000000e+000
    outer loop
      vertex  5.729490e-001  0.000000e+000  5.876336e+001
      vertex  7.000000e+000  0.000000e+000  5.800000e+001
      vertex  7.000000e+000  0.000000e+000  6.000000e+001
    endloop
  endfacet
  facet normal  0.000000e+000 -1.000000e+000  0.000000e+000
    outer loop
      vertex  5.729490e-001  0.000000e+000  5.876336e+001
      vertex  7.000000e+000  0.000000e+000  6.000000e+001
      vertex  1.236644e+000  0.000000e+000  5.942705e+001
    endloop
  endfacet
  facet normal  0.000000e+000 -1.000000e+000  0.000000e+000
    outer loop
      vertex  1.236644e+000  0.000000e+000  5.942705e+001
      vertex  7.000000e+000  0.000000e+000  6.000000e+001
      vertex  2.072949e+000  0.000000e+000  5.985317e+001
    endloop
  endfacet
  facet normal  -0.000000e+000  0.000000e+000  1.000000e+000
    outer loop
      vertex  7.000000e+000  7.500000e+001  6.000000e+001
      vertex  3.000000e+000  7.500000e+001  6.000000e+001
      vertex  7.000000e+000  0.000000e+000  6.000000e+001
    endloop
  endfacet
  facet normal  0.000000e+000  0.000000e+000  1.000000e+000
    outer loop
      vertex  7.000000e+000  0.000000e+000  6.000000e+001
      vertex  3.000000e+000  7.500000e+001  6.000000e+001
      vertex  3.000000e+000  0.000000e+000  6.000000e+001
    endloop
  endfacet
  facet normal  0.000000e+000  1.000000e+000  -0.000000e+000
    outer loop
      vertex  2.000000e+000  7.500000e+001  5.800000e+001
      vertex  2.000000e+000  7.500000e+001  0.000000e+000
      vertex  0.000000e+000  7.500000e+001  0.000000e+000
    endloop
  endfacet
  facet normal  0.000000e+000  1.000000e+000  0.000000e+000
    outer loop
      vertex  2.000000e+000  7.500000e+001  5.800000e+001
      vertex  0.000000e+000  7.500000e+001  0.000000e+000
      vertex  0.000000e+000  7.500000e+001  5.700000e+001
    endloop
  endfacet
  facet normal  0.000000e+000  1.000000e+000  0.000000e+000
    outer loop
      vertex  2.000000e+000  7.500000e+001  5.800000e+001
      vertex  0.000000e+000  7.500000e+001  5.700000e+001
      vertex  1.468305e-001  7.500000e+001  5.792705e+001
    endloop
  endfacet
  facet normal  0.000000e+000  9.999999e-001  0.000000e+000
    outer loop
      vertex  2.000000e+000  7.500000e+001  5.800000e+001
      vertex  1.468305e-001  7.500000e+001  5.792705e+001
      vertex  5.729490e-001  7.500000e+001  5.876336e+001
    endloop
  endfacet
  facet normal  0.000000e+000  1.000000e+000  0.000000e+000
    outer loop
      vertex  2.000000e+000  7.500000e+001  5.800000e+001
      vertex  5.729490e-001  7.500000e+001  5.876336e+001
      vertex  7.000000e+000  7.500000e+001  5.800000e+001
    endloop
  endfacet
  facet normal  -0.000000e+000  1.000000e+000  0.000000e+000
    outer loop
      vertex  7.000000e+000  7.500000e+001  5.800000e+001
      vertex  5.729490e-001  7.500000e+001  5.876336e+001
      vertex  1.236644e+000  7.500000e+001  5.942705e+001
    endloop
  endfacet
  facet normal  -0.000000e+000  1.000000e+000  0.000000e+000
    outer loop
      vertex  7.000000e+000  7.500000e+001  5.800000e+001
      vertex  1.236644e+000  7.500000e+001  5.942705e+001
      vertex  2.072949e+000  7.500000e+001  5.985317e+001
    endloop
  endfacet
  facet normal  -0.000000e+000  1.000000e+000  0.000000e+000
    outer loop
      vertex  7.000000e+000  7.500000e+001  5.800000e+001
      vertex  2.072949e+000  7.500000e+001  5.985317e+001
      vertex  3.000000e+000  7.500000e+001  6.000000e+001
    endloop
  endfacet
  facet normal  -0.000000e+000  1.000000e+000  0.000000e+000
    outer loop
      vertex  7.000000e+000  7.500000e+001  5.800000e+001
      vertex  3.000000e+000  7.500000e+001  6.000000e+001
      vertex  7.000000e+000  7.500000e+001  6.000000e+001
    endloop
  endfacet
  facet normal -9.876884e-001  0.000000e+000  1.564344e-001
    outer loop
      vertex  0.000000e+000  7.500000e+001  5.700000e+001
      vertex  0.000000e+000  0.000000e+000  5.700000e+001
      vertex  1.468305e-001  7.500000e+001  5.792705e+001
    endloop
  endfacet
  facet normal -9.876884e-001  0.000000e+000  1.564344e-001
    outer loop
      vertex  1.468305e-001  7.500000e+001  5.792705e+001
      vertex  0.000000e+000  0.000000e+000  5.700000e+001
      vertex  1.468305e-001  0.000000e+000  5.792705e+001
    endloop
  endfacet
  facet normal -8.910063e-001  0.000000e+000  4.539909e-001
    outer loop
      vertex  1.468305e-001  7.500000e+001  5.792705e+001
      vertex  1.468305e-001  0.000000e+000  5.792705e+001
      vertex  5.729490e-001  7.500000e+001  5.876336e+001
    endloop
  endfacet
  facet normal -8.910063e-001  0.000000e+000  4.539909e-001
    outer loop
      vertex  5.729490e-001  7.500000e+001  5.876336e+001
      vertex  1.468305e-001  0.000000e+000  5.792705e+001
      vertex  5.729490e-001  0.000000e+000  5.876336e+001
    endloop
  endfacet
  facet normal -7.071073e-001  0.000000e+000  7.071062e-001
    outer loop
      vertex  5.729490e-001  7.500000e+001  5.876336e+001
      vertex  5.729490e-001  0.000000e+000  5.876336e+001
      vertex  1.236644e+000  7.500000e+001  5.942705e+001
    endloop
  endfacet
  facet normal -7.071073e-001  0.000000e+000  7.071062e-001
    outer loop
      vertex  1.236644e+000  7.500000e+001  5.942705e+001
      vertex  5.729490e-001  0.000000e+000  5.876336e+001
      vertex  1.236644e+000  0.000000e+000  5.942705e+001
    endloop
  endfacet
  facet normal -4.539892e-001  0.000000e+000  8.910072e-001
    outer loop
      vertex  1.236644e+000  7.500000e+001  5.942705e+001
      vertex  1.236644e+000  0.000000e+000  5.942705e+001
      vertex  2.072949e+000  7.500000e+001  5.985317e+001
    endloop
  endfacet
  facet normal -4.539892e-001  0.000000e+000  8.910072e-001
    outer loop
      vertex  2.072949e+000  7.500000e+001  5.985317e+001
      vertex  1.236644e+000  0.000000e+000  5.942705e+001
      vertex  2.072949e+000  0.000000e+000  5.985317e+001
    endloop
  endfacet
  facet normal -1.564355e-001  0.000000e+000  9.876882e-001
    outer loop
      vertex  2.072949e+000  7.500000e+001  5.985317e+001
      vertex  2.072949e+000  0.000000e+000  5.985317e+001
      vertex  3.000000e+000  7.500000e+001  6.000000e+001
    endloop
  endfacet
  facet normal -1.564355e-001  0.000000e+000  9.876882e-001
    outer loop
      vertex  3.000000e+000  7.500000e+001  6.000000e+001
      vertex  2.072949e+000  0.000000e+000  5.985317e+001
      vertex  3.000000e+000  0.000000e+000  6.000000e+001
    endloop
  endfacet
  facet normal  9.999999e-001  -0.000000e+000  0.000000e+000
    outer loop
      vertex  2.000000e+000  7.100000e+001  5.800000e+001
      vertex  2.000000e+000  4.000000e+000  5.800000e+001
      vertex  2.000000e+000  4.000000e+000  9.000000e+000
    endloop
  endfacet
  facet normal  1.000000e+000  0.000000e+000  0.000000e+000
    outer loop
      vertex  2.000000e+000  7.100000e+001  5.800000e+001
      vertex  2.000000e+000  4.000000e+000  9.000000e+000
      vertex  2.000000e+000  1.375000e+001  9.000000e+000
    endloop
  endfacet
  facet normal  1.000000e+000  0.000000e+000  0.000000e+000
    outer loop
      vertex  2.000000e+000  7.100000e+001  5.800000e+001
      vertex  2.000000e+000  1.375000e+001  9.000000e+000
      vertex  2.000000e+000  6.125000e+001  9.000000e+000
    endloop
  endfacet
  facet normal  1.000000e+000  0.000000e+000  0.000000e+000
    outer loop
      vertex  2.000000e+000  7.100000e+001  5.800000e+001
      vertex  2.000000e+000  6.125000e+001  9.000000e+000
      vertex  2.000000e+000  7.100000e+001  9.000000e+000
    endloop
  endfacet
  facet normal  1.000000e+000  0.000000e+000  0.000000e+000
    outer loop
      vertex  2.000000e+000  1.375000e+001  2.000000e+000
      vertex  2.000000e+000  6.125000e+001  2.000000e+000
      vertex  2.000000e+000  1.375000e+001  9.000000e+000
    endloop
  endfacet
  facet normal  1.000000e+000  -0.000000e+000  0.000000e+000
    outer loop
      vertex  2.000000e+000  1.375000e+001  9.000000e+000
      vertex  2.000000e+000  6.125000e+001  2.000000e+000
      vertex  2.000000e+000  6.125000e+001  9.000000e+000
    endloop
  endfacet
  facet normal  0.000000e+000 -1.000000e+000  -0.000000e+000
    outer loop
      vertex  4.900000e+000  6.125000e+001  2.000000e+000
      vertex  4.900000e+000  6.125000e+001  9.000000e+000
      vertex  2.000000e+000  6.125000e+001  2.000000e+000
    endloop
  endfacet
  facet normal  0.000000e+000 -1.000000e+000  0.000000e+000
    outer loop
      vertex  2.000000e+000  6.125000e+001  2.000000e+000
      vertex  4.900000e+000  6.125000e+001  9.000000e+000
      vertex  2.000000e+000  6.125000e+001  9.000000e+000
    endloop
  endfacet
  facet normal  0.000000e+000  1.000000e+000  -0.000000e+000
    outer loop
      vertex  4.900000e+000  1.375000e+001  9.000000e+000
      vertex  4.900000e+000  1.375000e+001  2.000000e+000
      vertex  2.000000e+000  1.375000e+001  9.000000e+000
    endloop
  endfacet
  facet normal  0.000000e+000  1.000000e+000  0.000000e+000
    outer loop
      vertex  2.000000e+000  1.375000e+001  9.000000e+000
      vertex  4.900000e+000  1.375000e+001  2.000000e+000
      vertex  2.000000e+000  1.375000e+001  2.000000e+000
    endloop
  endfacet
  facet normal  0.000000e+000  0.000000e+000  1.000000e+000
    outer loop
      vertex  7.000000e+000  6.125000e+001  2.000000e+000
      vertex  4.900000e+000  1.375000e+001  2.000000e+000
      vertex  7.000000e+000  1.375000e+001  2.000000e+000
    endloop
  endfacet
  facet normal  0.000000e+000  0.000000e+000  1.000000e+000
    outer loop
      vertex  4.900000e+000  1.375000e+001  2.000000e+000
      vertex  7.000000e+000  6.125000e+001  2.000000e+000
      vertex  2.000000e+000  1.375000e+001  2.000000e+000
    endloop
  endfacet
  facet normal  0.000000e+000  0.000000e+000  1.000000e+000
    outer loop
      vertex  2.000000e+000  1.375000e+001  2.000000e+000
      vertex  7.000000e+000  6.125000e+001  2.000000e+000
      vertex  4.900000e+000  6.125000e+001  2.000000e+000
    endloop
  endfacet
  facet normal  0.000000e+000  0.000000e+000  1.000000e+000
    outer loop
      vertex  2.000000e+000  1.375000e+001  2.000000e+000
      vertex  4.900000e+000  6.125000e+001  2.000000e+000
      vertex  2.000000e+000  6.125000e+001  2.000000e+000
    endloop
  endfacet
  facet normal  1.000000e+000  -0.000000e+000  0.000000e+000
    outer loop
      vertex  7.000000e+000  7.500000e+001  6.000000e+001
      vertex  7.000000e+000  0.000000e+000  6.000000e+001
      vertex  7.000000e+000  0.000000e+000  5.800000e+001
    endloop
  endfacet
  facet normal  1.000000e+000  0.000000e+000  0.000000e+000
    outer loop
      vertex  7.000000e+000  7.500000e+001  6.000000e+001
      vertex  7.000000e+000  0.000000e+000  5.800000e+001
      vertex  7.000000e+000  2.000000e+000  5.800000e+001
    endloop
  endfacet
  facet normal  1.000000e+000  0.000000e+000  0.000000e+000
    outer loop
      vertex  7.000000e+000  7.500000e+001  6.000000e+001
      vertex  7.000000e+000  2.000000e+000  5.800000e+001
      vertex  7.000000e+000  4.000000e+000  5.800000e+001
    endloop
  endfacet
  facet normal  1.000000e+000  0.000000e+000  0.000000e+000
    outer loop
      vertex  7.000000e+000  7.500000e+001  6.000000e+001
      vertex  7.000000e+000  4.000000e+000  5.800000e+001
      vertex  7.000000e+000  7.100000e+001  5.800000e+001
    endloop
  endfacet
  facet normal  1.000000e+000  0.000000e+000  0.000000e+000
    outer loop
      vertex  7.000000e+000  7.500000e+001  6.000000e+001
      vertex  7.000000e+000  7.100000e+001  5.800000e+001
      vertex  7.000000e+000  7.300000e+001  5.800000e+001
    endloop
  endfacet
  facet normal  1.000000e+000  0.000000e+000  0.000000e+000
    outer loop
      vertex  7.000000e+000  7.500000e+001  6.000000e+001
      vertex  7.000000e+000  7.300000e+001  5.800000e+001
      vertex  7.000000e+000  7.500000e+001  5.800000e+001
    endloop
  endfacet
  facet normal  1.000000e+000  0.000000e+000  0.000000e+000
    outer loop
      vertex  7.000000e+000  2.000000e+000  0.000000e+000
      vertex  7.000000e+000  4.000000e+000  0.000000e+000
      vertex  7.000000e+000  2.000000e+000  5.800000e+001
    endloop
  endfacet
  facet normal  1.000000e+000  -0.000000e+000  0.000000e+000
    outer loop
      vertex  7.000000e+000  2.000000e+000  5.800000e+001
      vertex  7.000000e+000  4.000000e+000  0.000000e+000
      vertex  7.000000e+000  4.000000e+000  5.800000e+001
    endloop
  endfacet
  facet normal  1.000000e+000  0.000000e+000  0.000000e+000
    outer loop
      vertex  7.000000e+000  7.100000e+001  0.000000e+000
      vertex  7.000000e+000  7.300000e+001  0.000000e+000
      vertex  7.000000e+000  7.100000e+001  5.800000e+001
    endloop
  endfacet
  facet normal  1.000000e+000  -0.000000e+000  0.000000e+000
    outer loop
      vertex  7.000000e+000  7.100000e+001  5.800000e+001
      vertex  7.000000e+000  7.300000e+001  0.000000e+000
      vertex  7.000000e+000  7.300000e+001  5.800000e+001
    endloop
  endfacet
  facet normal  0.000000e+000  0.000000e+000 -1.000000e+000
    outer loop
      vertex  7.000000e+000  2.000000e+000  5.800000e+001
      vertex  7.000000e+000  0.000000e+000  5.800000e+001
      vertex  2.000000e+000  2.000000e+000  5.800000e+001
    endloop
  endfacet
  facet normal  0.000000e+000  0.000000e+000 -1.000000e+000
    outer loop
      vertex  2.000000e+000  2.000000e+000  5.800000e+001
      vertex  7.000000e+000  0.000000e+000  5.800000e+001
      vertex  2.000000e+000  0.000000e+000  5.800000e+001
    endloop
  endfacet
  facet normal  0.000000e+000  0.000000e+000 -1.000000e+000
    outer loop
      vertex  7.000000e+000  7.500000e+001  5.800000e+001
      vertex  7.000000e+000  7.300000e+001  5.800000e+001
      vertex  2.000000e+000  7.500000e+001  5.800000e+001
    endloop
  endfacet
  facet normal  0.000000e+000  0.000000e+000 -1.000000e+000
    outer loop
      vertex  2.000000e+000  7.500000e+001  5.800000e+001
      vertex  7.000000e+000  7.300000e+001  5.800000e+001
      vertex  2.000000e+000  7.300000e+001  5.800000e+001
    endloop
  endfacet
  facet normal  0.000000e+000  1.000000e+000  -0.000000e+000
    outer loop
      vertex  7.000000e+000  7.300000e+001  5.800000e+001
      vertex  7.000000e+000  7.300000e+001  0.000000e+000
      vertex  2.000000e+000  7.300000e+001  5.800000e+001
    endloop
  endfacet
  facet normal  0.000000e+000  1.000000e+000  0.000000e+000
    outer loop
      vertex  2.000000e+000  7.300000e+001  5.800000e+001
      vertex  7.000000e+000  7.300000e+001  0.000000e+000
      vertex  2.000000e+000  7.300000e+001  0.000000e+000
    endloop
  endfacet
  facet normal  0.000000e+000 -1.000000e+000  -0.000000e+000
    outer loop
      vertex  7.000000e+000  2.000000e+000  0.000000e+000
      vertex  7.000000e+000  2.000000e+000  5.800000e+001
      vertex  2.000000e+000  2.000000e+000  0.000000e+000
    endloop
  endfacet
  facet normal  0.000000e+000 -1.000000e+000  0.000000e+000
    outer loop
      vertex  2.000000e+000  2.000000e+000  0.000000e+000
      vertex  7.000000e+000  2.000000e+000  5.800000e+001
      vertex  2.000000e+000  2.000000e+000  5.800000e+001
    endloop
  endfacet
  facet normal  1.000000e+000  0.000000e+000  0.000000e+000
    outer loop
      vertex  2.000000e+000  7.300000e+001  0.000000e+000
      vertex  2.000000e+000  7.500000e+001  0.000000e+000
      vertex  2.000000e+000  7.300000e+001  5.800000e+001
    endloop
  endfacet
  facet normal  1.000000e+000  -0.000000e+000  0.000000e+000
    outer loop
      vertex  2.000000e+000  7.300000e+001  5.800000e+001
      vertex  2.000000e+000  7.500000e+001  0.000000e+000
      vertex  2.000000e+000  7.500000e+001  5.800000e+001
    endloop
  endfacet
  facet normal  1.000000e+000  0.000000e+000  0.000000e+000
    outer loop
      vertex  2.000000e+000  0.000000e+000  0.000000e+000
      vertex  2.000000e+000  2.000000e+000  0.000000e+000
      vertex  2.000000e+000  0.000000e+000  5.800000e+001
    endloop
  endfacet
  facet normal  1.000000e+000  -0.000000e+000  0.000000e+000
    outer loop
      vertex  2.000000e+000  0.000000e+000  5.800000e+001
      vertex  2.000000e+000  2.000000e+000  0.000000e+000
      vertex  2.000000e+000  2.000000e+000  5.800000e+001
    endloop
  endfacet
  facet normal  0.000000e+000  0.000000e+000 -1.000000e+000
    outer loop
      vertex  7.000000e+000  7.100000e+001  5.800000e+001
      vertex  7.000000e+000  4.000000e+000  5.800000e+001
      vertex  2.000000e+000  7.100000e+001  5.800000e+001
    endloop
  endfacet
  facet normal  0.000000e+000  0.000000e+000 -1.000000e+000
    outer loop
      vertex  2.000000e+000  7.100000e+001  5.800000e+001
      vertex  7.000000e+000  4.000000e+000  5.800000e+001
      vertex  2.000000e+000  4.000000e+000  5.800000e+001
    endloop
  endfacet
  facet normal  1.000000e+000  0.000000e+000  0.000000e+000
    outer loop
      vertex  7.000000e+000  1.375000e+001  0.000000e+000
      vertex  7.000000e+000  6.125000e+001  0.000000e+000
      vertex  7.000000e+000  1.375000e+001  2.000000e+000
    endloop
  endfacet
  facet normal  1.000000e+000  -0.000000e+000  0.000000e+000
    outer loop
      vertex  7.000000e+000  1.375000e+001  2.000000e+000
      vertex  7.000000e+000  6.125000e+001  0.000000e+000
      vertex  7.000000e+000  6.125000e+001  2.000000e+000
    endloop
  endfacet
endsolid CATIA STL
