solid CATIA STL
  facet normal  0.000000e+000  1.000000e+000  0.000000e+000
    outer loop
      vertex  1.160000e+001  2.000000e+000  1.610000e+001
      vertex  2.000000e+000  2.000000e+000  1.610000e+001
      vertex  2.000000e+000  2.000000e+000  5.960000e+001
    endloop
  endfacet
  facet normal  -0.000000e+000  1.000000e+000  0.000000e+000
    outer loop
      vertex  1.160000e+001  2.000000e+000  1.610000e+001
      vertex  2.000000e+000  2.000000e+000  5.960000e+001
      vertex  7.500000e+000  2.000000e+000  5.960000e+001
    endloop
  endfacet
  facet normal  -0.000000e+000  9.999999e-001  0.000000e+000
    outer loop
      vertex  1.160000e+001  2.000000e+000  1.610000e+001
      vertex  7.500000e+000  2.000000e+000  5.960000e+001
      vertex  7.500000e+000  2.000000e+000  8.260000e+001
    endloop
  endfacet
  facet normal  0.000000e+000  1.000000e+000  0.000000e+000
    outer loop
      vertex  1.160000e+001  2.000000e+000  1.610000e+001
      vertex  7.500000e+000  2.000000e+000  8.260000e+001
      vertex  2.600000e+001  2.000000e+000  7.780000e+001
    endloop
  endfacet
  facet normal  0.000000e+000  1.000000e+000  0.000000e+000
    outer loop
      vertex  1.160000e+001  2.000000e+000  1.610000e+001
      vertex  2.600000e+001  2.000000e+000  7.780000e+001
      vertex  3.160000e+001  2.000000e+000  1.610000e+001
    endloop
  endfacet
  facet normal  0.000000e+000  1.000000e+000  -0.000000e+000
    outer loop
      vertex  3.160000e+001  2.000000e+000  8.260000e+001
      vertex  3.160000e+001  2.000000e+000  1.610000e+001
      vertex  2.730000e+001  2.000000e+000  7.910000e+001
    endloop
  endfacet
  facet normal  0.000000e+000  9.999999e-001  -0.000000e+000
    outer loop
      vertex  3.160000e+001  2.000000e+000  8.260000e+001
      vertex  2.730000e+001  2.000000e+000  7.910000e+001
      vertex  2.712583e+001  2.000000e+000  7.975000e+001
    endloop
  endfacet
  facet normal  0.000000e+000  1.000000e+000  -0.000000e+000
    outer loop
      vertex  3.160000e+001  2.000000e+000  8.260000e+001
      vertex  2.712583e+001  2.000000e+000  7.975000e+001
      vertex  2.665000e+001  2.000000e+000  8.022583e+001
    endloop
  endfacet
  facet normal  0.000000e+000  1.000000e+000  -0.000000e+000
    outer loop
      vertex  3.160000e+001  2.000000e+000  8.260000e+001
      vertex  2.665000e+001  2.000000e+000  8.022583e+001
      vertex  2.600000e+001  2.000000e+000  8.040000e+001
    endloop
  endfacet
  facet normal  0.000000e+000  1.000000e+000  -0.000000e+000
    outer loop
      vertex  3.160000e+001  2.000000e+000  8.260000e+001
      vertex  2.600000e+001  2.000000e+000  8.040000e+001
      vertex  7.500000e+000  2.000000e+000  8.260000e+001
    endloop
  endfacet
  facet normal  0.000000e+000  1.000000e+000  0.000000e+000
    outer loop
      vertex  7.500000e+000  2.000000e+000  8.260000e+001
      vertex  2.600000e+001  2.000000e+000  8.040000e+001
      vertex  2.535000e+001  2.000000e+000  8.022583e+001
    endloop
  endfacet
  facet normal  0.000000e+000  1.000000e+000  0.000000e+000
    outer loop
      vertex  7.500000e+000  2.000000e+000  8.260000e+001
      vertex  2.535000e+001  2.000000e+000  8.022583e+001
      vertex  2.487417e+001  2.000000e+000  7.975000e+001
    endloop
  endfacet
  facet normal  0.000000e+000  1.000000e+000  0.000000e+000
    outer loop
      vertex  7.500000e+000  2.000000e+000  8.260000e+001
      vertex  2.487417e+001  2.000000e+000  7.975000e+001
      vertex  2.470000e+001  2.000000e+000  7.910000e+001
    endloop
  endfacet
  facet normal  0.000000e+000  1.000000e+000  0.000000e+000
    outer loop
      vertex  7.500000e+000  2.000000e+000  8.260000e+001
      vertex  2.470000e+001  2.000000e+000  7.910000e+001
      vertex  2.487417e+001  2.000000e+000  7.845000e+001
    endloop
  endfacet
  facet normal  0.000000e+000  1.000000e+000  0.000000e+000
    outer loop
      vertex  7.500000e+000  2.000000e+000  8.260000e+001
      vertex  2.487417e+001  2.000000e+000  7.845000e+001
      vertex  2.535000e+001  2.000000e+000  7.797417e+001
    endloop
  endfacet
  facet normal  0.000000e+000  1.000000e+000  0.000000e+000
    outer loop
      vertex  7.500000e+000  2.000000e+000  8.260000e+001
      vertex  2.535000e+001  2.000000e+000  7.797417e+001
      vertex  2.600000e+001  2.000000e+000  7.780000e+001
    endloop
  endfacet
  facet normal  -0.000000e+000  1.000000e+000  0.000000e+000
    outer loop
      vertex  3.160000e+001  2.000000e+000  1.610000e+001
      vertex  2.600000e+001  2.000000e+000  7.780000e+001
      vertex  2.665000e+001  2.000000e+000  7.797417e+001
    endloop
  endfacet
  facet normal  -0.000000e+000  1.000000e+000  0.000000e+000
    outer loop
      vertex  3.160000e+001  2.000000e+000  1.610000e+001
      vertex  2.665000e+001  2.000000e+000  7.797417e+001
      vertex  2.712583e+001  2.000000e+000  7.845000e+001
    endloop
  endfacet
  facet normal  -0.000000e+000  1.000000e+000  0.000000e+000
    outer loop
      vertex  3.160000e+001  2.000000e+000  1.610000e+001
      vertex  2.712583e+001  2.000000e+000  7.845000e+001
      vertex  2.730000e+001  2.000000e+000  7.910000e+001
    endloop
  endfacet
  facet normal  0.000000e+000 -1.000000e+000  0.000000e+000
    outer loop
      vertex  1.160000e+001  7.300000e+001  1.610000e+001
      vertex  3.160000e+001  7.300000e+001  1.610000e+001
      vertex  2.600000e+001  7.300000e+001  7.780000e+001
    endloop
  endfacet
  facet normal  -0.000000e+000 -1.000000e+000  0.000000e+000
    outer loop
      vertex  1.160000e+001  7.300000e+001  1.610000e+001
      vertex  2.600000e+001  7.300000e+001  7.780000e+001
      vertex  7.500000e+000  7.300000e+001  8.260000e+001
    endloop
  endfacet
  facet normal  0.000000e+000 -9.999999e-001  0.000000e+000
    outer loop
      vertex  1.160000e+001  7.300000e+001  1.610000e+001
      vertex  7.500000e+000  7.300000e+001  8.260000e+001
      vertex  7.500000e+000  7.300000e+001  5.960000e+001
    endloop
  endfacet
  facet normal  -0.000000e+000 -1.000000e+000  -0.000000e+000
    outer loop
      vertex  1.160000e+001  7.300000e+001  1.610000e+001
      vertex  7.500000e+000  7.300000e+001  5.960000e+001
      vertex  2.000000e+000  7.300000e+001  5.960000e+001
    endloop
  endfacet
  facet normal  0.000000e+000 -1.000000e+000  0.000000e+000
    outer loop
      vertex  1.160000e+001  7.300000e+001  1.610000e+001
      vertex  2.000000e+000  7.300000e+001  5.960000e+001
      vertex  2.000000e+000  7.300000e+001  1.610000e+001
    endloop
  endfacet
  facet normal  0.000000e+000 -1.000000e+000  0.000000e+000
    outer loop
      vertex  3.160000e+001  7.300000e+001  8.260000e+001
      vertex  7.500000e+000  7.300000e+001  8.260000e+001
      vertex  2.600000e+001  7.300000e+001  8.040000e+001
    endloop
  endfacet
  facet normal  0.000000e+000 -1.000000e+000  0.000000e+000
    outer loop
      vertex  3.160000e+001  7.300000e+001  8.260000e+001
      vertex  2.600000e+001  7.300000e+001  8.040000e+001
      vertex  2.665000e+001  7.300000e+001  8.022583e+001
    endloop
  endfacet
  facet normal  0.000000e+000 -1.000000e+000  0.000000e+000
    outer loop
      vertex  3.160000e+001  7.300000e+001  8.260000e+001
      vertex  2.665000e+001  7.300000e+001  8.022583e+001
      vertex  2.712583e+001  7.300000e+001  7.975000e+001
    endloop
  endfacet
  facet normal  0.000000e+000 -9.999999e-001  0.000000e+000
    outer loop
      vertex  3.160000e+001  7.300000e+001  8.260000e+001
      vertex  2.712583e+001  7.300000e+001  7.975000e+001
      vertex  2.730000e+001  7.300000e+001  7.910000e+001
    endloop
  endfacet
  facet normal  0.000000e+000 -1.000000e+000  0.000000e+000
    outer loop
      vertex  3.160000e+001  7.300000e+001  8.260000e+001
      vertex  2.730000e+001  7.300000e+001  7.910000e+001
      vertex  3.160000e+001  7.300000e+001  1.610000e+001
    endloop
  endfacet
  facet normal  0.000000e+000 -1.000000e+000  0.000000e+000
    outer loop
      vertex  7.500000e+000  7.300000e+001  8.260000e+001
      vertex  2.600000e+001  7.300000e+001  7.780000e+001
      vertex  2.535000e+001  7.300000e+001  7.797417e+001
    endloop
  endfacet
  facet normal  0.000000e+000 -1.000000e+000  0.000000e+000
    outer loop
      vertex  7.500000e+000  7.300000e+001  8.260000e+001
      vertex  2.535000e+001  7.300000e+001  7.797417e+001
      vertex  2.487417e+001  7.300000e+001  7.845000e+001
    endloop
  endfacet
  facet normal  0.000000e+000 -1.000000e+000  0.000000e+000
    outer loop
      vertex  7.500000e+000  7.300000e+001  8.260000e+001
      vertex  2.487417e+001  7.300000e+001  7.845000e+001
      vertex  2.470000e+001  7.300000e+001  7.910000e+001
    endloop
  endfacet
  facet normal  0.000000e+000 -1.000000e+000  0.000000e+000
    outer loop
      vertex  7.500000e+000  7.300000e+001  8.260000e+001
      vertex  2.470000e+001  7.300000e+001  7.910000e+001
      vertex  2.487417e+001  7.300000e+001  7.975000e+001
    endloop
  endfacet
  facet normal  0.000000e+000 -1.000000e+000  0.000000e+000
    outer loop
      vertex  7.500000e+000  7.300000e+001  8.260000e+001
      vertex  2.487417e+001  7.300000e+001  7.975000e+001
      vertex  2.535000e+001  7.300000e+001  8.022583e+001
    endloop
  endfacet
  facet normal  0.000000e+000 -1.000000e+000  0.000000e+000
    outer loop
      vertex  7.500000e+000  7.300000e+001  8.260000e+001
      vertex  2.535000e+001  7.300000e+001  8.022583e+001
      vertex  2.600000e+001  7.300000e+001  8.040000e+001
    endloop
  endfacet
  facet normal  0.000000e+000 -1.000000e+000  -0.000000e+000
    outer loop
      vertex  3.160000e+001  7.300000e+001  1.610000e+001
      vertex  2.730000e+001  7.300000e+001  7.910000e+001
      vertex  2.712583e+001  7.300000e+001  7.845000e+001
    endloop
  endfacet
  facet normal  0.000000e+000 -1.000000e+000  -0.000000e+000
    outer loop
      vertex  3.160000e+001  7.300000e+001  1.610000e+001
      vertex  2.712583e+001  7.300000e+001  7.845000e+001
      vertex  2.665000e+001  7.300000e+001  7.797417e+001
    endloop
  endfacet
  facet normal  0.000000e+000 -1.000000e+000  -0.000000e+000
    outer loop
      vertex  3.160000e+001  7.300000e+001  1.610000e+001
      vertex  2.665000e+001  7.300000e+001  7.797417e+001
      vertex  2.600000e+001  7.300000e+001  7.780000e+001
    endloop
  endfacet
  facet normal  0.000000e+000  1.000000e+000  -0.000000e+000
    outer loop
      vertex  3.160000e+001  7.500000e+001  8.260000e+001
      vertex  3.160000e+001  7.500000e+001  1.610000e+001
      vertex  2.730000e+001  7.500000e+001  7.910000e+001
    endloop
  endfacet
  facet normal  0.000000e+000  9.999999e-001  -0.000000e+000
    outer loop
      vertex  3.160000e+001  7.500000e+001  8.260000e+001
      vertex  2.730000e+001  7.500000e+001  7.910000e+001
      vertex  2.712583e+001  7.500000e+001  7.975000e+001
    endloop
  endfacet
  facet normal  0.000000e+000  1.000000e+000  -0.000000e+000
    outer loop
      vertex  3.160000e+001  7.500000e+001  8.260000e+001
      vertex  2.712583e+001  7.500000e+001  7.975000e+001
      vertex  2.665000e+001  7.500000e+001  8.022583e+001
    endloop
  endfacet
  facet normal  0.000000e+000  1.000000e+000  -0.000000e+000
    outer loop
      vertex  3.160000e+001  7.500000e+001  8.260000e+001
      vertex  2.665000e+001  7.500000e+001  8.022583e+001
      vertex  2.600000e+001  7.500000e+001  8.040000e+001
    endloop
  endfacet
  facet normal  0.000000e+000  1.000000e+000  -0.000000e+000
    outer loop
      vertex  3.160000e+001  7.500000e+001  8.260000e+001
      vertex  2.600000e+001  7.500000e+001  8.040000e+001
      vertex  0.000000e+000  7.500000e+001  8.260000e+001
    endloop
  endfacet
  facet normal  0.000000e+000  1.000000e+000  0.000000e+000
    outer loop
      vertex  1.160000e+001  7.500000e+001  1.610000e+001
      vertex  2.470000e+001  7.500000e+001  7.910000e+001
      vertex  2.487417e+001  7.500000e+001  7.845000e+001
    endloop
  endfacet
  facet normal  0.000000e+000  1.000000e+000  0.000000e+000
    outer loop
      vertex  1.160000e+001  7.500000e+001  1.610000e+001
      vertex  2.487417e+001  7.500000e+001  7.845000e+001
      vertex  2.535000e+001  7.500000e+001  7.797417e+001
    endloop
  endfacet
  facet normal  0.000000e+000  1.000000e+000  0.000000e+000
    outer loop
      vertex  1.160000e+001  7.500000e+001  1.610000e+001
      vertex  2.535000e+001  7.500000e+001  7.797417e+001
      vertex  2.600000e+001  7.500000e+001  7.780000e+001
    endloop
  endfacet
  facet normal  0.000000e+000  1.000000e+000  0.000000e+000
    outer loop
      vertex  1.160000e+001  7.500000e+001  1.610000e+001
      vertex  2.600000e+001  7.500000e+001  7.780000e+001
      vertex  3.160000e+001  7.500000e+001  1.610000e+001
    endloop
  endfacet
  facet normal  0.000000e+000  1.000000e+000  0.000000e+000
    outer loop
      vertex  0.000000e+000  7.500000e+001  8.260000e+001
      vertex  2.600000e+001  7.500000e+001  8.040000e+001
      vertex  2.535000e+001  7.500000e+001  8.022583e+001
    endloop
  endfacet
  facet normal  0.000000e+000  9.999999e-001  0.000000e+000
    outer loop
      vertex  0.000000e+000  7.500000e+001  8.260000e+001
      vertex  2.535000e+001  7.500000e+001  8.022583e+001
      vertex  2.487417e+001  7.500000e+001  7.975000e+001
    endloop
  endfacet
  facet normal  0.000000e+000  1.000000e+000  0.000000e+000
    outer loop
      vertex  0.000000e+000  7.500000e+001  8.260000e+001
      vertex  2.487417e+001  7.500000e+001  7.975000e+001
      vertex  2.470000e+001  7.500000e+001  7.910000e+001
    endloop
  endfacet
  facet normal  0.000000e+000  9.999999e-001  0.000000e+000
    outer loop
      vertex  0.000000e+000  7.500000e+001  8.260000e+001
      vertex  2.470000e+001  7.500000e+001  7.910000e+001
      vertex  1.160000e+001  7.500000e+001  1.610000e+001
    endloop
  endfacet
  facet normal  0.000000e+000  1.000000e+000  0.000000e+000
    outer loop
      vertex  0.000000e+000  7.500000e+001  8.260000e+001
      vertex  1.160000e+001  7.500000e+001  1.610000e+001
      vertex  1.160000e+001  7.500000e+001  2.220446e-016
    endloop
  endfacet
  facet normal  0.000000e+000  1.000000e+000  0.000000e+000
    outer loop
      vertex  0.000000e+000  7.500000e+001  8.260000e+001
      vertex  1.160000e+001  7.500000e+001  2.220446e-016
      vertex  0.000000e+000  7.500000e+001  3.000000e+000
    endloop
  endfacet
  facet normal  0.000000e+000  1.000000e+000  -0.000000e+000
    outer loop
      vertex  1.160000e+001  7.500000e+001  2.220446e-016
      vertex  3.000000e+000  7.500000e+001  0.000000e+000
      vertex  2.072949e+000  7.500000e+001  1.468305e-001
    endloop
  endfacet
  facet normal  -0.000000e+000  1.000000e+000  -0.000000e+000
    outer loop
      vertex  1.160000e+001  7.500000e+001  2.220446e-016
      vertex  2.072949e+000  7.500000e+001  1.468305e-001
      vertex  1.236644e+000  7.500000e+001  5.729490e-001
    endloop
  endfacet
  facet normal  -0.000000e+000  9.999999e-001  -0.000000e+000
    outer loop
      vertex  1.160000e+001  7.500000e+001  2.220446e-016
      vertex  1.236644e+000  7.500000e+001  5.729490e-001
      vertex  5.729490e-001  7.500000e+001  1.236644e+000
    endloop
  endfacet
  facet normal  -0.000000e+000  1.000000e+000  -0.000000e+000
    outer loop
      vertex  1.160000e+001  7.500000e+001  2.220446e-016
      vertex  5.729490e-001  7.500000e+001  1.236644e+000
      vertex  1.468305e-001  7.500000e+001  2.072949e+000
    endloop
  endfacet
  facet normal  -0.000000e+000  9.999999e-001  -0.000000e+000
    outer loop
      vertex  1.160000e+001  7.500000e+001  2.220446e-016
      vertex  1.468305e-001  7.500000e+001  2.072949e+000
      vertex  0.000000e+000  7.500000e+001  3.000000e+000
    endloop
  endfacet
  facet normal  -0.000000e+000  1.000000e+000  0.000000e+000
    outer loop
      vertex  3.160000e+001  7.500000e+001  1.610000e+001
      vertex  2.600000e+001  7.500000e+001  7.780000e+001
      vertex  2.665000e+001  7.500000e+001  7.797417e+001
    endloop
  endfacet
  facet normal  -0.000000e+000  1.000000e+000  0.000000e+000
    outer loop
      vertex  3.160000e+001  7.500000e+001  1.610000e+001
      vertex  2.665000e+001  7.500000e+001  7.797417e+001
      vertex  2.712583e+001  7.500000e+001  7.845000e+001
    endloop
  endfacet
  facet normal  -0.000000e+000  1.000000e+000  0.000000e+000
    outer loop
      vertex  3.160000e+001  7.500000e+001  1.610000e+001
      vertex  2.712583e+001  7.500000e+001  7.845000e+001
      vertex  2.730000e+001  7.500000e+001  7.910000e+001
    endloop
  endfacet
  facet normal  0.000000e+000 -1.000000e+000  0.000000e+000
    outer loop
      vertex  1.160000e+001  0.000000e+000  1.610000e+001
      vertex  3.160000e+001  0.000000e+000  1.610000e+001
      vertex  3.160000e+001  0.000000e+000  8.260000e+001
    endloop
  endfacet
  facet normal  0.000000e+000 -1.000000e+000  0.000000e+000
    outer loop
      vertex  1.160000e+001  0.000000e+000  1.610000e+001
      vertex  3.160000e+001  0.000000e+000  8.260000e+001
      vertex  2.665000e+001  0.000000e+000  7.797417e+001
    endloop
  endfacet
  facet normal  0.000000e+000 -1.000000e+000  0.000000e+000
    outer loop
      vertex  1.160000e+001  0.000000e+000  1.610000e+001
      vertex  2.665000e+001  0.000000e+000  7.797417e+001
      vertex  2.600000e+001  0.000000e+000  7.780000e+001
    endloop
  endfacet
  facet normal  -0.000000e+000 -9.999999e-001  0.000000e+000
    outer loop
      vertex  1.160000e+001  0.000000e+000  1.610000e+001
      vertex  2.600000e+001  0.000000e+000  7.780000e+001
      vertex  0.000000e+000  0.000000e+000  8.260000e+001
    endloop
  endfacet
  facet normal  0.000000e+000 -1.000000e+000  0.000000e+000
    outer loop
      vertex  1.160000e+001  0.000000e+000  1.610000e+001
      vertex  0.000000e+000  0.000000e+000  8.260000e+001
      vertex  0.000000e+000  0.000000e+000  3.000000e+000
    endloop
  endfacet
  facet normal  0.000000e+000 -1.000000e+000  0.000000e+000
    outer loop
      vertex  1.160000e+001  0.000000e+000  1.610000e+001
      vertex  0.000000e+000  0.000000e+000  3.000000e+000
      vertex  1.468305e-001  0.000000e+000  2.072949e+000
    endloop
  endfacet
  facet normal  0.000000e+000 -1.000000e+000  0.000000e+000
    outer loop
      vertex  1.160000e+001  0.000000e+000  1.610000e+001
      vertex  1.468305e-001  0.000000e+000  2.072949e+000
      vertex  5.729490e-001  0.000000e+000  1.236644e+000
    endloop
  endfacet
  facet normal  0.000000e+000 -1.000000e+000  0.000000e+000
    outer loop
      vertex  1.160000e+001  0.000000e+000  1.610000e+001
      vertex  5.729490e-001  0.000000e+000  1.236644e+000
      vertex  1.236644e+000  0.000000e+000  5.729490e-001
    endloop
  endfacet
  facet normal  0.000000e+000 -1.000000e+000  0.000000e+000
    outer loop
      vertex  1.160000e+001  0.000000e+000  1.610000e+001
      vertex  1.236644e+000  0.000000e+000  5.729490e-001
      vertex  2.072949e+000  0.000000e+000  1.468305e-001
    endloop
  endfacet
  facet normal  0.000000e+000 -1.000000e+000  0.000000e+000
    outer loop
      vertex  1.160000e+001  0.000000e+000  1.610000e+001
      vertex  2.072949e+000  0.000000e+000  1.468305e-001
      vertex  3.000000e+000  0.000000e+000  0.000000e+000
    endloop
  endfacet
  facet normal  0.000000e+000 -1.000000e+000  0.000000e+000
    outer loop
      vertex  1.160000e+001  0.000000e+000  1.610000e+001
      vertex  3.000000e+000  0.000000e+000  0.000000e+000
      vertex  1.160000e+001  0.000000e+000  2.220446e-016
    endloop
  endfacet
  facet normal  0.000000e+000 -1.000000e+000  0.000000e+000
    outer loop
      vertex  0.000000e+000  0.000000e+000  8.260000e+001
      vertex  2.600000e+001  0.000000e+000  7.780000e+001
      vertex  2.535000e+001  0.000000e+000  7.797417e+001
    endloop
  endfacet
  facet normal  0.000000e+000 -1.000000e+000  0.000000e+000
    outer loop
      vertex  0.000000e+000  0.000000e+000  8.260000e+001
      vertex  2.535000e+001  0.000000e+000  7.797417e+001
      vertex  2.487417e+001  0.000000e+000  7.845000e+001
    endloop
  endfacet
  facet normal  0.000000e+000 -1.000000e+000  0.000000e+000
    outer loop
      vertex  0.000000e+000  0.000000e+000  8.260000e+001
      vertex  2.487417e+001  0.000000e+000  7.845000e+001
      vertex  2.470000e+001  0.000000e+000  7.910000e+001
    endloop
  endfacet
  facet normal  0.000000e+000 -1.000000e+000  0.000000e+000
    outer loop
      vertex  0.000000e+000  0.000000e+000  8.260000e+001
      vertex  2.470000e+001  0.000000e+000  7.910000e+001
      vertex  2.487417e+001  0.000000e+000  7.975000e+001
    endloop
  endfacet
  facet normal  0.000000e+000 -1.000000e+000  0.000000e+000
    outer loop
      vertex  0.000000e+000  0.000000e+000  8.260000e+001
      vertex  2.487417e+001  0.000000e+000  7.975000e+001
      vertex  2.535000e+001  0.000000e+000  8.022583e+001
    endloop
  endfacet
  facet normal  0.000000e+000 -1.000000e+000  0.000000e+000
    outer loop
      vertex  0.000000e+000  0.000000e+000  8.260000e+001
      vertex  2.535000e+001  0.000000e+000  8.022583e+001
      vertex  2.600000e+001  0.000000e+000  8.040000e+001
    endloop
  endfacet
  facet normal  0.000000e+000 -1.000000e+000  0.000000e+000
    outer loop
      vertex  0.000000e+000  0.000000e+000  8.260000e+001
      vertex  2.600000e+001  0.000000e+000  8.040000e+001
      vertex  3.160000e+001  0.000000e+000  8.260000e+001
    endloop
  endfacet
  facet normal  0.000000e+000 -1.000000e+000  0.000000e+000
    outer loop
      vertex  3.160000e+001  0.000000e+000  8.260000e+001
      vertex  2.600000e+001  0.000000e+000  8.040000e+001
      vertex  2.665000e+001  0.000000e+000  8.022583e+001
    endloop
  endfacet
  facet normal  0.000000e+000 -1.000000e+000  0.000000e+000
    outer loop
      vertex  3.160000e+001  0.000000e+000  8.260000e+001
      vertex  2.665000e+001  0.000000e+000  8.022583e+001
      vertex  2.712583e+001  0.000000e+000  7.975000e+001
    endloop
  endfacet
  facet normal  0.000000e+000 -9.999999e-001  0.000000e+000
    outer loop
      vertex  3.160000e+001  0.000000e+000  8.260000e+001
      vertex  2.712583e+001  0.000000e+000  7.975000e+001
      vertex  2.730000e+001  0.000000e+000  7.910000e+001
    endloop
  endfacet
  facet normal  0.000000e+000 -1.000000e+000  -0.000000e+000
    outer loop
      vertex  3.160000e+001  0.000000e+000  8.260000e+001
      vertex  2.730000e+001  0.000000e+000  7.910000e+001
      vertex  2.712583e+001  0.000000e+000  7.845000e+001
    endloop
  endfacet
  facet normal  0.000000e+000 -1.000000e+000  -0.000000e+000
    outer loop
      vertex  3.160000e+001  0.000000e+000  8.260000e+001
      vertex  2.712583e+001  0.000000e+000  7.845000e+001
      vertex  2.665000e+001  0.000000e+000  7.797417e+001
    endloop
  endfacet
  facet normal  2.588254e-001  0.000000e+000 -9.659241e-001
    outer loop
      vertex  2.600000e+001  2.000000e+000  8.040000e+001
      vertex  2.535000e+001  0.000000e+000  8.022583e+001
      vertex  2.535000e+001  2.000000e+000  8.022583e+001
    endloop
  endfacet
  facet normal  7.071040e-001  0.000000e+000 -7.071096e-001
    outer loop
      vertex  2.535000e+001  2.000000e+000  8.022583e+001
      vertex  2.535000e+001  0.000000e+000  8.022583e+001
      vertex  2.487417e+001  0.000000e+000  7.975000e+001
    endloop
  endfacet
  facet normal  7.071040e-001  0.000000e+000 -7.071096e-001
    outer loop
      vertex  2.535000e+001  2.000000e+000  8.022583e+001
      vertex  2.487417e+001  0.000000e+000  7.975000e+001
      vertex  2.487417e+001  2.000000e+000  7.975000e+001
    endloop
  endfacet
  facet normal  9.659265e-001  0.000000e+000 -2.588167e-001
    outer loop
      vertex  2.487417e+001  2.000000e+000  7.975000e+001
      vertex  2.487417e+001  0.000000e+000  7.975000e+001
      vertex  2.470000e+001  0.000000e+000  7.910000e+001
    endloop
  endfacet
  facet normal  9.659265e-001  0.000000e+000 -2.588167e-001
    outer loop
      vertex  2.487417e+001  2.000000e+000  7.975000e+001
      vertex  2.470000e+001  0.000000e+000  7.910000e+001
      vertex  2.470000e+001  2.000000e+000  7.910000e+001
    endloop
  endfacet
  facet normal  2.588254e-001  0.000000e+000 -9.659241e-001
    outer loop
      vertex  2.535000e+001  0.000000e+000  8.022583e+001
      vertex  2.600000e+001  2.000000e+000  8.040000e+001
      vertex  2.600000e+001  0.000000e+000  8.040000e+001
    endloop
  endfacet
  facet normal -2.588254e-001  0.000000e+000 -9.659241e-001
    outer loop
      vertex  2.600000e+001  0.000000e+000  8.040000e+001
      vertex  2.600000e+001  2.000000e+000  8.040000e+001
      vertex  2.665000e+001  2.000000e+000  8.022583e+001
    endloop
  endfacet
  facet normal -2.588254e-001  -0.000000e+000 -9.659241e-001
    outer loop
      vertex  2.600000e+001  0.000000e+000  8.040000e+001
      vertex  2.665000e+001  2.000000e+000  8.022583e+001
      vertex  2.665000e+001  0.000000e+000  8.022583e+001
    endloop
  endfacet
  facet normal -7.071040e-001  0.000000e+000 -7.071096e-001
    outer loop
      vertex  2.665000e+001  0.000000e+000  8.022583e+001
      vertex  2.665000e+001  2.000000e+000  8.022583e+001
      vertex  2.712583e+001  2.000000e+000  7.975000e+001
    endloop
  endfacet
  facet normal -7.071040e-001  -0.000000e+000 -7.071096e-001
    outer loop
      vertex  2.665000e+001  0.000000e+000  8.022583e+001
      vertex  2.712583e+001  2.000000e+000  7.975000e+001
      vertex  2.712583e+001  0.000000e+000  7.975000e+001
    endloop
  endfacet
  facet normal -9.659265e-001  0.000000e+000 -2.588167e-001
    outer loop
      vertex  2.712583e+001  0.000000e+000  7.975000e+001
      vertex  2.712583e+001  2.000000e+000  7.975000e+001
      vertex  2.730000e+001  2.000000e+000  7.910000e+001
    endloop
  endfacet
  facet normal -9.659265e-001  -0.000000e+000 -2.588167e-001
    outer loop
      vertex  2.712583e+001  0.000000e+000  7.975000e+001
      vertex  2.730000e+001  2.000000e+000  7.910000e+001
      vertex  2.730000e+001  0.000000e+000  7.910000e+001
    endloop
  endfacet
  facet normal  2.588254e-001  0.000000e+000 -9.659241e-001
    outer loop
      vertex  2.600000e+001  7.500000e+001  8.040000e+001
      vertex  2.535000e+001  7.300000e+001  8.022583e+001
      vertex  2.535000e+001  7.500000e+001  8.022583e+001
    endloop
  endfacet
  facet normal  7.071040e-001  0.000000e+000 -7.071096e-001
    outer loop
      vertex  2.535000e+001  7.500000e+001  8.022583e+001
      vertex  2.535000e+001  7.300000e+001  8.022583e+001
      vertex  2.487417e+001  7.300000e+001  7.975000e+001
    endloop
  endfacet
  facet normal  7.071040e-001  0.000000e+000 -7.071096e-001
    outer loop
      vertex  2.535000e+001  7.500000e+001  8.022583e+001
      vertex  2.487417e+001  7.300000e+001  7.975000e+001
      vertex  2.487417e+001  7.500000e+001  7.975000e+001
    endloop
  endfacet
  facet normal  9.659265e-001  0.000000e+000 -2.588167e-001
    outer loop
      vertex  2.487417e+001  7.500000e+001  7.975000e+001
      vertex  2.487417e+001  7.300000e+001  7.975000e+001
      vertex  2.470000e+001  7.300000e+001  7.910000e+001
    endloop
  endfacet
  facet normal  9.659265e-001  0.000000e+000 -2.588167e-001
    outer loop
      vertex  2.487417e+001  7.500000e+001  7.975000e+001
      vertex  2.470000e+001  7.300000e+001  7.910000e+001
      vertex  2.470000e+001  7.500000e+001  7.910000e+001
    endloop
  endfacet
  facet normal  2.588254e-001  0.000000e+000 -9.659241e-001
    outer loop
      vertex  2.535000e+001  7.300000e+001  8.022583e+001
      vertex  2.600000e+001  7.500000e+001  8.040000e+001
      vertex  2.600000e+001  7.300000e+001  8.040000e+001
    endloop
  endfacet
  facet normal -2.588254e-001  0.000000e+000 -9.659241e-001
    outer loop
      vertex  2.600000e+001  7.300000e+001  8.040000e+001
      vertex  2.600000e+001  7.500000e+001  8.040000e+001
      vertex  2.665000e+001  7.500000e+001  8.022583e+001
    endloop
  endfacet
  facet normal -2.588254e-001  -0.000000e+000 -9.659241e-001
    outer loop
      vertex  2.600000e+001  7.300000e+001  8.040000e+001
      vertex  2.665000e+001  7.500000e+001  8.022583e+001
      vertex  2.665000e+001  7.300000e+001  8.022583e+001
    endloop
  endfacet
  facet normal -7.071040e-001  0.000000e+000 -7.071096e-001
    outer loop
      vertex  2.665000e+001  7.300000e+001  8.022583e+001
      vertex  2.665000e+001  7.500000e+001  8.022583e+001
      vertex  2.712583e+001  7.500000e+001  7.975000e+001
    endloop
  endfacet
  facet normal -7.071040e-001  -0.000000e+000 -7.071096e-001
    outer loop
      vertex  2.665000e+001  7.300000e+001  8.022583e+001
      vertex  2.712583e+001  7.500000e+001  7.975000e+001
      vertex  2.712583e+001  7.300000e+001  7.975000e+001
    endloop
  endfacet
  facet normal -9.659265e-001  0.000000e+000 -2.588167e-001
    outer loop
      vertex  2.712583e+001  7.300000e+001  7.975000e+001
      vertex  2.712583e+001  7.500000e+001  7.975000e+001
      vertex  2.730000e+001  7.500000e+001  7.910000e+001
    endloop
  endfacet
  facet normal -9.659265e-001  -0.000000e+000 -2.588167e-001
    outer loop
      vertex  2.712583e+001  7.300000e+001  7.975000e+001
      vertex  2.730000e+001  7.500000e+001  7.910000e+001
      vertex  2.730000e+001  7.300000e+001  7.910000e+001
    endloop
  endfacet
  facet normal -2.588148e-001  0.000000e+000  9.659270e-001
    outer loop
      vertex  2.600000e+001  2.000000e+000  7.780000e+001
      vertex  2.665000e+001  0.000000e+000  7.797417e+001
      vertex  2.665000e+001  2.000000e+000  7.797417e+001
    endloop
  endfacet
  facet normal -7.071040e-001  0.000000e+000  7.071096e-001
    outer loop
      vertex  2.665000e+001  2.000000e+000  7.797417e+001
      vertex  2.665000e+001  0.000000e+000  7.797417e+001
      vertex  2.712583e+001  0.000000e+000  7.845000e+001
    endloop
  endfacet
  facet normal -7.071040e-001  0.000000e+000  7.071096e-001
    outer loop
      vertex  2.665000e+001  2.000000e+000  7.797417e+001
      vertex  2.712583e+001  0.000000e+000  7.845000e+001
      vertex  2.712583e+001  2.000000e+000  7.845000e+001
    endloop
  endfacet
  facet normal -9.659265e-001  0.000000e+000  2.588167e-001
    outer loop
      vertex  2.712583e+001  2.000000e+000  7.845000e+001
      vertex  2.712583e+001  0.000000e+000  7.845000e+001
      vertex  2.730000e+001  0.000000e+000  7.910000e+001
    endloop
  endfacet
  facet normal -9.659265e-001  0.000000e+000  2.588167e-001
    outer loop
      vertex  2.712583e+001  2.000000e+000  7.845000e+001
      vertex  2.730000e+001  0.000000e+000  7.910000e+001
      vertex  2.730000e+001  2.000000e+000  7.910000e+001
    endloop
  endfacet
  facet normal -2.588148e-001  0.000000e+000  9.659270e-001
    outer loop
      vertex  2.665000e+001  0.000000e+000  7.797417e+001
      vertex  2.600000e+001  2.000000e+000  7.780000e+001
      vertex  2.600000e+001  0.000000e+000  7.780000e+001
    endloop
  endfacet
  facet normal  2.588148e-001  -0.000000e+000  9.659270e-001
    outer loop
      vertex  2.600000e+001  0.000000e+000  7.780000e+001
      vertex  2.600000e+001  2.000000e+000  7.780000e+001
      vertex  2.535000e+001  2.000000e+000  7.797417e+001
    endloop
  endfacet
  facet normal  2.588148e-001  0.000000e+000  9.659270e-001
    outer loop
      vertex  2.600000e+001  0.000000e+000  7.780000e+001
      vertex  2.535000e+001  2.000000e+000  7.797417e+001
      vertex  2.535000e+001  0.000000e+000  7.797417e+001
    endloop
  endfacet
  facet normal  7.071040e-001  -0.000000e+000  7.071096e-001
    outer loop
      vertex  2.535000e+001  0.000000e+000  7.797417e+001
      vertex  2.535000e+001  2.000000e+000  7.797417e+001
      vertex  2.487417e+001  2.000000e+000  7.845000e+001
    endloop
  endfacet
  facet normal  7.071040e-001  0.000000e+000  7.071096e-001
    outer loop
      vertex  2.535000e+001  0.000000e+000  7.797417e+001
      vertex  2.487417e+001  2.000000e+000  7.845000e+001
      vertex  2.487417e+001  0.000000e+000  7.845000e+001
    endloop
  endfacet
  facet normal  9.659265e-001  -0.000000e+000  2.588167e-001
    outer loop
      vertex  2.487417e+001  0.000000e+000  7.845000e+001
      vertex  2.487417e+001  2.000000e+000  7.845000e+001
      vertex  2.470000e+001  2.000000e+000  7.910000e+001
    endloop
  endfacet
  facet normal  9.659265e-001  0.000000e+000  2.588167e-001
    outer loop
      vertex  2.487417e+001  0.000000e+000  7.845000e+001
      vertex  2.470000e+001  2.000000e+000  7.910000e+001
      vertex  2.470000e+001  0.000000e+000  7.910000e+001
    endloop
  endfacet
  facet normal -2.588148e-001  0.000000e+000  9.659270e-001
    outer loop
      vertex  2.600000e+001  7.500000e+001  7.780000e+001
      vertex  2.665000e+001  7.300000e+001  7.797417e+001
      vertex  2.665000e+001  7.500000e+001  7.797417e+001
    endloop
  endfacet
  facet normal -7.071040e-001  0.000000e+000  7.071096e-001
    outer loop
      vertex  2.665000e+001  7.500000e+001  7.797417e+001
      vertex  2.665000e+001  7.300000e+001  7.797417e+001
      vertex  2.712583e+001  7.300000e+001  7.845000e+001
    endloop
  endfacet
  facet normal -7.071040e-001  0.000000e+000  7.071096e-001
    outer loop
      vertex  2.665000e+001  7.500000e+001  7.797417e+001
      vertex  2.712583e+001  7.300000e+001  7.845000e+001
      vertex  2.712583e+001  7.500000e+001  7.845000e+001
    endloop
  endfacet
  facet normal -9.659265e-001  0.000000e+000  2.588167e-001
    outer loop
      vertex  2.712583e+001  7.500000e+001  7.845000e+001
      vertex  2.712583e+001  7.300000e+001  7.845000e+001
      vertex  2.730000e+001  7.300000e+001  7.910000e+001
    endloop
  endfacet
  facet normal -9.659265e-001  0.000000e+000  2.588167e-001
    outer loop
      vertex  2.712583e+001  7.500000e+001  7.845000e+001
      vertex  2.730000e+001  7.300000e+001  7.910000e+001
      vertex  2.730000e+001  7.500000e+001  7.910000e+001
    endloop
  endfacet
  facet normal -2.588148e-001  0.000000e+000  9.659270e-001
    outer loop
      vertex  2.665000e+001  7.300000e+001  7.797417e+001
      vertex  2.600000e+001  7.500000e+001  7.780000e+001
      vertex  2.600000e+001  7.300000e+001  7.780000e+001
    endloop
  endfacet
  facet normal  2.588148e-001  -0.000000e+000  9.659270e-001
    outer loop
      vertex  2.600000e+001  7.300000e+001  7.780000e+001
      vertex  2.600000e+001  7.500000e+001  7.780000e+001
      vertex  2.535000e+001  7.500000e+001  7.797417e+001
    endloop
  endfacet
  facet normal  2.588148e-001  0.000000e+000  9.659270e-001
    outer loop
      vertex  2.600000e+001  7.300000e+001  7.780000e+001
      vertex  2.535000e+001  7.500000e+001  7.797417e+001
      vertex  2.535000e+001  7.300000e+001  7.797417e+001
    endloop
  endfacet
  facet normal  7.071040e-001  -0.000000e+000  7.071096e-001
    outer loop
      vertex  2.535000e+001  7.300000e+001  7.797417e+001
      vertex  2.535000e+001  7.500000e+001  7.797417e+001
      vertex  2.487417e+001  7.500000e+001  7.845000e+001
    endloop
  endfacet
  facet normal  7.071040e-001  0.000000e+000  7.071096e-001
    outer loop
      vertex  2.535000e+001  7.300000e+001  7.797417e+001
      vertex  2.487417e+001  7.500000e+001  7.845000e+001
      vertex  2.487417e+001  7.300000e+001  7.845000e+001
    endloop
  endfacet
  facet normal  9.659265e-001  -0.000000e+000  2.588167e-001
    outer loop
      vertex  2.487417e+001  7.300000e+001  7.845000e+001
      vertex  2.487417e+001  7.500000e+001  7.845000e+001
      vertex  2.470000e+001  7.500000e+001  7.910000e+001
    endloop
  endfacet
  facet normal  9.659265e-001  0.000000e+000  2.588167e-001
    outer loop
      vertex  2.487417e+001  7.300000e+001  7.845000e+001
      vertex  2.470000e+001  7.500000e+001  7.910000e+001
      vertex  2.470000e+001  7.300000e+001  7.910000e+001
    endloop
  endfacet
  facet normal  -0.000000e+000  0.000000e+000  1.000000e+000
    outer loop
      vertex  1.160000e+001  4.600000e+001  2.000000e+000
      vertex  2.000000e+000  4.600000e+001  2.000000e+000
      vertex  1.160000e+001  4.050000e+001  2.000000e+000
    endloop
  endfacet
  facet normal  0.000000e+000  0.000000e+000  1.000000e+000
    outer loop
      vertex  1.160000e+001  4.050000e+001  2.000000e+000
      vertex  2.000000e+000  4.600000e+001  2.000000e+000
      vertex  2.000000e+000  4.050000e+001  2.000000e+000
    endloop
  endfacet
  facet normal  -0.000000e+000  0.000000e+000  1.000000e+000
    outer loop
      vertex  1.160000e+001  3.450000e+001  2.000000e+000
      vertex  2.000000e+000  3.450000e+001  2.000000e+000
      vertex  1.160000e+001  2.900000e+001  2.000000e+000
    endloop
  endfacet
  facet normal  0.000000e+000  0.000000e+000  1.000000e+000
    outer loop
      vertex  1.160000e+001  2.900000e+001  2.000000e+000
      vertex  2.000000e+000  3.450000e+001  2.000000e+000
      vertex  2.000000e+000  2.900000e+001  2.000000e+000
    endloop
  endfacet
  facet normal  0.000000e+000  0.000000e+000  1.000000e+000
    outer loop
      vertex  7.000000e+000  4.050000e+001  4.000000e+000
      vertex  7.000000e+000  3.450000e+001  4.000000e+000
      vertex  1.351477e+001  3.867275e+001  4.000000e+000
    endloop
  endfacet
  facet normal  0.000000e+000  -0.000000e+000  1.000000e+000
    outer loop
      vertex  7.000000e+000  4.050000e+001  4.000000e+000
      vertex  1.351477e+001  3.867275e+001  4.000000e+000
      vertex  1.411622e+001  3.896239e+001  4.000000e+000
    endloop
  endfacet
  facet normal  0.000000e+000  -0.000000e+000  1.000000e+000
    outer loop
      vertex  7.000000e+000  4.050000e+001  4.000000e+000
      vertex  1.411622e+001  3.896239e+001  4.000000e+000
      vertex  1.478378e+001  3.896239e+001  4.000000e+000
    endloop
  endfacet
  facet normal  0.000000e+000  -0.000000e+000  1.000000e+000
    outer loop
      vertex  7.000000e+000  4.050000e+001  4.000000e+000
      vertex  1.478378e+001  3.896239e+001  4.000000e+000
      vertex  1.745000e+001  4.050000e+001  4.000000e+000
    endloop
  endfacet
  facet normal  0.000000e+000  0.000000e+000  1.000000e+000
    outer loop
      vertex  7.000000e+000  3.450000e+001  4.000000e+000
      vertex  1.745000e+001  3.450000e+001  4.000000e+000
      vertex  1.478378e+001  3.603761e+001  4.000000e+000
    endloop
  endfacet
  facet normal  0.000000e+000  0.000000e+000  1.000000e+000
    outer loop
      vertex  7.000000e+000  3.450000e+001  4.000000e+000
      vertex  1.478378e+001  3.603761e+001  4.000000e+000
      vertex  1.411622e+001  3.603761e+001  4.000000e+000
    endloop
  endfacet
  facet normal  0.000000e+000  0.000000e+000  1.000000e+000
    outer loop
      vertex  7.000000e+000  3.450000e+001  4.000000e+000
      vertex  1.411622e+001  3.603761e+001  4.000000e+000
      vertex  1.351477e+001  3.632725e+001  4.000000e+000
    endloop
  endfacet
  facet normal  0.000000e+000  0.000000e+000  1.000000e+000
    outer loop
      vertex  7.000000e+000  3.450000e+001  4.000000e+000
      vertex  1.351477e+001  3.632725e+001  4.000000e+000
      vertex  1.309855e+001  3.684917e+001  4.000000e+000
    endloop
  endfacet
  facet normal  0.000000e+000  0.000000e+000  1.000000e+000
    outer loop
      vertex  7.000000e+000  3.450000e+001  4.000000e+000
      vertex  1.309855e+001  3.684917e+001  4.000000e+000
      vertex  1.295000e+001  3.750000e+001  4.000000e+000
    endloop
  endfacet
  facet normal  0.000000e+000  -0.000000e+000  1.000000e+000
    outer loop
      vertex  7.000000e+000  3.450000e+001  4.000000e+000
      vertex  1.295000e+001  3.750000e+001  4.000000e+000
      vertex  1.309855e+001  3.815083e+001  4.000000e+000
    endloop
  endfacet
  facet normal  0.000000e+000  -0.000000e+000  9.999999e-001
    outer loop
      vertex  7.000000e+000  3.450000e+001  4.000000e+000
      vertex  1.309855e+001  3.815083e+001  4.000000e+000
      vertex  1.351477e+001  3.867275e+001  4.000000e+000
    endloop
  endfacet
  facet normal  0.000000e+000  0.000000e+000  1.000000e+000
    outer loop
      vertex  1.745000e+001  3.450000e+001  4.000000e+000
      vertex  1.580145e+001  3.815083e+001  4.000000e+000
      vertex  1.595000e+001  3.750000e+001  4.000000e+000
    endloop
  endfacet
  facet normal  0.000000e+000  0.000000e+000  1.000000e+000
    outer loop
      vertex  1.745000e+001  3.450000e+001  4.000000e+000
      vertex  1.595000e+001  3.750000e+001  4.000000e+000
      vertex  1.580145e+001  3.684917e+001  4.000000e+000
    endloop
  endfacet
  facet normal  0.000000e+000  0.000000e+000  1.000000e+000
    outer loop
      vertex  1.745000e+001  3.450000e+001  4.000000e+000
      vertex  1.580145e+001  3.684917e+001  4.000000e+000
      vertex  1.538523e+001  3.632725e+001  4.000000e+000
    endloop
  endfacet
  facet normal  0.000000e+000  0.000000e+000  1.000000e+000
    outer loop
      vertex  1.745000e+001  3.450000e+001  4.000000e+000
      vertex  1.538523e+001  3.632725e+001  4.000000e+000
      vertex  1.478378e+001  3.603761e+001  4.000000e+000
    endloop
  endfacet
  facet normal  -0.000000e+000  0.000000e+000  9.999999e-001
    outer loop
      vertex  1.745000e+001  4.050000e+001  4.000000e+000
      vertex  1.478378e+001  3.896239e+001  4.000000e+000
      vertex  1.538523e+001  3.867275e+001  4.000000e+000
    endloop
  endfacet
  facet normal  -0.000000e+000  0.000000e+000  1.000000e+000
    outer loop
      vertex  1.745000e+001  4.050000e+001  4.000000e+000
      vertex  1.538523e+001  3.867275e+001  4.000000e+000
      vertex  1.580145e+001  3.815083e+001  4.000000e+000
    endloop
  endfacet
  facet normal  -0.000000e+000  0.000000e+000  1.000000e+000
    outer loop
      vertex  1.745000e+001  4.050000e+001  4.000000e+000
      vertex  1.580145e+001  3.815083e+001  4.000000e+000
      vertex  1.745000e+001  3.450000e+001  4.000000e+000
    endloop
  endfacet
  facet normal  1.000000e+000  0.000000e+000  -0.000000e+000
    outer loop
      vertex  2.000000e+000  2.000000e+000  5.960000e+001
      vertex  2.000000e+000  2.900000e+001  1.610000e+001
      vertex  2.000000e+000  4.600000e+001  1.610000e+001
    endloop
  endfacet
  facet normal  1.000000e+000  0.000000e+000  0.000000e+000
    outer loop
      vertex  2.000000e+000  2.000000e+000  5.960000e+001
      vertex  2.000000e+000  2.000000e+000  1.610000e+001
      vertex  2.000000e+000  2.900000e+001  1.610000e+001
    endloop
  endfacet
  facet normal  1.000000e+000  0.000000e+000  0.000000e+000
    outer loop
      vertex  2.000000e+000  7.300000e+001  1.610000e+001
      vertex  2.000000e+000  7.300000e+001  5.960000e+001
      vertex  2.000000e+000  7.100000e+001  5.960000e+001
    endloop
  endfacet
  facet normal  9.999999e-001  0.000000e+000  0.000000e+000
    outer loop
      vertex  2.000000e+000  7.300000e+001  1.610000e+001
      vertex  2.000000e+000  7.100000e+001  5.960000e+001
      vertex  2.000000e+000  6.125000e+001  5.960000e+001
    endloop
  endfacet
  facet normal  1.000000e+000  0.000000e+000  0.000000e+000
    outer loop
      vertex  2.000000e+000  7.300000e+001  1.610000e+001
      vertex  2.000000e+000  6.125000e+001  5.960000e+001
      vertex  2.000000e+000  5.925000e+001  5.960000e+001
    endloop
  endfacet
  facet normal  9.999999e-001  0.000000e+000  0.000000e+000
    outer loop
      vertex  2.000000e+000  7.300000e+001  1.610000e+001
      vertex  2.000000e+000  5.925000e+001  5.960000e+001
      vertex  2.000000e+000  1.575000e+001  5.960000e+001
    endloop
  endfacet
  facet normal  1.000000e+000  0.000000e+000  0.000000e+000
    outer loop
      vertex  2.000000e+000  7.300000e+001  1.610000e+001
      vertex  2.000000e+000  1.575000e+001  5.960000e+001
      vertex  2.000000e+000  1.375000e+001  5.960000e+001
    endloop
  endfacet
  facet normal  9.999999e-001  0.000000e+000  0.000000e+000
    outer loop
      vertex  2.000000e+000  7.300000e+001  1.610000e+001
      vertex  2.000000e+000  1.375000e+001  5.960000e+001
      vertex  2.000000e+000  4.000000e+000  5.960000e+001
    endloop
  endfacet
  facet normal  1.000000e+000  0.000000e+000  0.000000e+000
    outer loop
      vertex  2.000000e+000  7.300000e+001  1.610000e+001
      vertex  2.000000e+000  4.000000e+000  5.960000e+001
      vertex  2.000000e+000  2.000000e+000  5.960000e+001
    endloop
  endfacet
  facet normal  1.000000e+000  0.000000e+000  0.000000e+000
    outer loop
      vertex  2.000000e+000  7.300000e+001  1.610000e+001
      vertex  2.000000e+000  2.000000e+000  5.960000e+001
      vertex  2.000000e+000  4.600000e+001  1.610000e+001
    endloop
  endfacet
  facet normal  1.000000e+000  0.000000e+000  0.000000e+000
    outer loop
      vertex  2.000000e+000  4.050000e+001  2.000000e+000
      vertex  2.000000e+000  4.600000e+001  2.000000e+000
      vertex  2.000000e+000  4.050000e+001  9.000000e+000
    endloop
  endfacet
  facet normal  1.000000e+000  -0.000000e+000  0.000000e+000
    outer loop
      vertex  2.000000e+000  4.050000e+001  9.000000e+000
      vertex  2.000000e+000  4.600000e+001  2.000000e+000
      vertex  2.000000e+000  4.600000e+001  1.610000e+001
    endloop
  endfacet
  facet normal  1.000000e+000  0.000000e+000  0.000000e+000
    outer loop
      vertex  2.000000e+000  4.050000e+001  9.000000e+000
      vertex  2.000000e+000  4.600000e+001  1.610000e+001
      vertex  2.000000e+000  3.450000e+001  9.000000e+000
    endloop
  endfacet
  facet normal  1.000000e+000  0.000000e+000  -0.000000e+000
    outer loop
      vertex  2.000000e+000  3.450000e+001  9.000000e+000
      vertex  2.000000e+000  4.600000e+001  1.610000e+001
      vertex  2.000000e+000  2.900000e+001  1.610000e+001
    endloop
  endfacet
  facet normal  1.000000e+000  0.000000e+000  0.000000e+000
    outer loop
      vertex  2.000000e+000  3.450000e+001  9.000000e+000
      vertex  2.000000e+000  2.900000e+001  1.610000e+001
      vertex  2.000000e+000  3.450000e+001  2.000000e+000
    endloop
  endfacet
  facet normal  1.000000e+000  0.000000e+000  0.000000e+000
    outer loop
      vertex  2.000000e+000  3.450000e+001  2.000000e+000
      vertex  2.000000e+000  2.900000e+001  1.610000e+001
      vertex  2.000000e+000  2.900000e+001  2.000000e+000
    endloop
  endfacet
  facet normal  1.000000e+000  0.000000e+000  0.000000e+000
    outer loop
      vertex  2.000000e+000  1.575000e+001  5.960000e+001
      vertex  2.000000e+000  5.925000e+001  5.960000e+001
      vertex  2.000000e+000  1.575000e+001  8.260000e+001
    endloop
  endfacet
  facet normal  1.000000e+000  -0.000000e+000  0.000000e+000
    outer loop
      vertex  2.000000e+000  1.575000e+001  8.260000e+001
      vertex  2.000000e+000  5.925000e+001  5.960000e+001
      vertex  2.000000e+000  5.925000e+001  8.260000e+001
    endloop
  endfacet
  facet normal  1.000000e+000  0.000000e+000  0.000000e+000
    outer loop
      vertex  2.000000e+000  6.125000e+001  5.960000e+001
      vertex  2.000000e+000  7.100000e+001  5.960000e+001
      vertex  2.000000e+000  6.125000e+001  8.260000e+001
    endloop
  endfacet
  facet normal  1.000000e+000  -0.000000e+000  0.000000e+000
    outer loop
      vertex  2.000000e+000  6.125000e+001  8.260000e+001
      vertex  2.000000e+000  7.100000e+001  5.960000e+001
      vertex  2.000000e+000  7.100000e+001  8.260000e+001
    endloop
  endfacet
  facet normal  1.000000e+000  0.000000e+000  0.000000e+000
    outer loop
      vertex  2.000000e+000  4.000000e+000  5.960000e+001
      vertex  2.000000e+000  1.375000e+001  5.960000e+001
      vertex  2.000000e+000  4.000000e+000  8.260000e+001
    endloop
  endfacet
  facet normal  1.000000e+000  -0.000000e+000  0.000000e+000
    outer loop
      vertex  2.000000e+000  4.000000e+000  8.260000e+001
      vertex  2.000000e+000  1.375000e+001  5.960000e+001
      vertex  2.000000e+000  1.375000e+001  8.260000e+001
    endloop
  endfacet
  facet normal  0.000000e+000 -1.000000e+000  0.000000e+000
    outer loop
      vertex  7.000000e+000  3.450000e+001  4.000000e+000
      vertex  2.000000e+000  3.450000e+001  9.000000e+000
      vertex  2.000000e+000  3.450000e+001  2.000000e+000
    endloop
  endfacet
  facet normal  0.000000e+000 -1.000000e+000  0.000000e+000
    outer loop
      vertex  2.000000e+000  3.450000e+001  2.000000e+000
      vertex  1.160000e+001  3.450000e+001  2.000000e+000
      vertex  7.000000e+000  3.450000e+001  4.000000e+000
    endloop
  endfacet
  facet normal  0.000000e+000 -1.000000e+000  0.000000e+000
    outer loop
      vertex  7.000000e+000  3.450000e+001  4.000000e+000
      vertex  1.160000e+001  3.450000e+001  2.000000e+000
      vertex  1.745000e+001  3.450000e+001  2.000000e+000
    endloop
  endfacet
  facet normal  0.000000e+000 -1.000000e+000  0.000000e+000
    outer loop
      vertex  7.000000e+000  3.450000e+001  4.000000e+000
      vertex  1.745000e+001  3.450000e+001  2.000000e+000
      vertex  1.745000e+001  3.450000e+001  4.000000e+000
    endloop
  endfacet
  facet normal  0.000000e+000  1.000000e+000  0.000000e+000
    outer loop
      vertex  2.000000e+000  4.050000e+001  9.000000e+000
      vertex  7.000000e+000  4.050000e+001  4.000000e+000
      vertex  2.000000e+000  4.050000e+001  2.000000e+000
    endloop
  endfacet
  facet normal  0.000000e+000  1.000000e+000  0.000000e+000
    outer loop
      vertex  2.000000e+000  4.050000e+001  2.000000e+000
      vertex  7.000000e+000  4.050000e+001  4.000000e+000
      vertex  1.160000e+001  4.050000e+001  2.000000e+000
    endloop
  endfacet
  facet normal  0.000000e+000  1.000000e+000  -0.000000e+000
    outer loop
      vertex  1.160000e+001  4.050000e+001  2.000000e+000
      vertex  7.000000e+000  4.050000e+001  4.000000e+000
      vertex  1.745000e+001  4.050000e+001  4.000000e+000
    endloop
  endfacet
  facet normal  0.000000e+000  1.000000e+000  0.000000e+000
    outer loop
      vertex  1.160000e+001  4.050000e+001  2.000000e+000
      vertex  1.745000e+001  4.050000e+001  4.000000e+000
      vertex  1.745000e+001  4.050000e+001  2.000000e+000
    endloop
  endfacet
  facet normal  0.000000e+000 -1.000000e+000  0.000000e+000
    outer loop
      vertex  1.160000e+001  4.600000e+001  1.610000e+001
      vertex  2.000000e+000  4.600000e+001  1.610000e+001
      vertex  1.160000e+001  4.600000e+001  2.000000e+000
    endloop
  endfacet
  facet normal  0.000000e+000 -1.000000e+000  0.000000e+000
    outer loop
      vertex  1.160000e+001  4.600000e+001  2.000000e+000
      vertex  2.000000e+000  4.600000e+001  1.610000e+001
      vertex  2.000000e+000  4.600000e+001  2.000000e+000
    endloop
  endfacet
  facet normal  0.000000e+000  1.000000e+000  -0.000000e+000
    outer loop
      vertex  1.160000e+001  2.900000e+001  1.610000e+001
      vertex  1.160000e+001  2.900000e+001  2.000000e+000
      vertex  2.000000e+000  2.900000e+001  1.610000e+001
    endloop
  endfacet
  facet normal  0.000000e+000  1.000000e+000  0.000000e+000
    outer loop
      vertex  2.000000e+000  2.900000e+001  1.610000e+001
      vertex  1.160000e+001  2.900000e+001  2.000000e+000
      vertex  2.000000e+000  2.900000e+001  2.000000e+000
    endloop
  endfacet
  facet normal  7.071068e-001  0.000000e+000  7.071068e-001
    outer loop
      vertex  7.000000e+000  4.050000e+001  4.000000e+000
      vertex  2.000000e+000  4.050000e+001  9.000000e+000
      vertex  7.000000e+000  3.450000e+001  4.000000e+000
    endloop
  endfacet
  facet normal  7.071068e-001  0.000000e+000  7.071068e-001
    outer loop
      vertex  7.000000e+000  3.450000e+001  4.000000e+000
      vertex  2.000000e+000  4.050000e+001  9.000000e+000
      vertex  2.000000e+000  3.450000e+001  9.000000e+000
    endloop
  endfacet
  facet normal  9.999999e-001  0.000000e+000  0.000000e+000
    outer loop
      vertex  1.060000e+001  4.900000e+001  3.000000e+000
      vertex  1.060000e+001  7.200000e+001  3.000000e+000
      vertex  1.060000e+001  4.900000e+001  1.300000e+001
    endloop
  endfacet
  facet normal  9.999999e-001  -0.000000e+000  0.000000e+000
    outer loop
      vertex  1.060000e+001  4.900000e+001  1.300000e+001
      vertex  1.060000e+001  7.200000e+001  3.000000e+000
      vertex  1.060000e+001  7.200000e+001  1.300000e+001
    endloop
  endfacet
  facet normal  7.071068e-001  0.000000e+000  7.071068e-001
    outer loop
      vertex  1.160000e+001  4.800000e+001  2.000000e+000
      vertex  1.160000e+001  7.300000e+001  2.000000e+000
      vertex  1.060000e+001  4.900000e+001  3.000000e+000
    endloop
  endfacet
  facet normal  7.071068e-001  -0.000000e+000  7.071068e-001
    outer loop
      vertex  1.060000e+001  4.900000e+001  3.000000e+000
      vertex  1.160000e+001  7.300000e+001  2.000000e+000
      vertex  1.060000e+001  7.200000e+001  3.000000e+000
    endloop
  endfacet
  facet normal  7.071068e-001  7.071068e-001  0.000000e+000
    outer loop
      vertex  1.160000e+001  4.800000e+001  2.000000e+000
      vertex  1.060000e+001  4.900000e+001  3.000000e+000
      vertex  1.160000e+001  4.800000e+001  1.400000e+001
    endloop
  endfacet
  facet normal  7.071068e-001  7.071068e-001  0.000000e+000
    outer loop
      vertex  1.160000e+001  4.800000e+001  1.400000e+001
      vertex  1.060000e+001  4.900000e+001  3.000000e+000
      vertex  1.060000e+001  4.900000e+001  1.300000e+001
    endloop
  endfacet
  facet normal  7.071068e-001  0.000000e+000 -7.071068e-001
    outer loop
      vertex  1.160000e+001  7.300000e+001  1.400000e+001
      vertex  1.160000e+001  4.800000e+001  1.400000e+001
      vertex  1.060000e+001  7.200000e+001  1.300000e+001
    endloop
  endfacet
  facet normal  7.071068e-001  0.000000e+000 -7.071068e-001
    outer loop
      vertex  1.060000e+001  7.200000e+001  1.300000e+001
      vertex  1.160000e+001  4.800000e+001  1.400000e+001
      vertex  1.060000e+001  4.900000e+001  1.300000e+001
    endloop
  endfacet
  facet normal  7.071068e-001 -7.071068e-001  0.000000e+000
    outer loop
      vertex  1.160000e+001  7.300000e+001  1.400000e+001
      vertex  1.060000e+001  7.200000e+001  1.300000e+001
      vertex  1.160000e+001  7.300000e+001  2.000000e+000
    endloop
  endfacet
  facet normal  7.071068e-001 -7.071068e-001  0.000000e+000
    outer loop
      vertex  1.160000e+001  7.300000e+001  2.000000e+000
      vertex  1.060000e+001  7.200000e+001  1.300000e+001
      vertex  1.060000e+001  7.200000e+001  3.000000e+000
    endloop
  endfacet
  facet normal  9.999999e-001  0.000000e+000  0.000000e+000
    outer loop
      vertex  1.060000e+001  3.000000e+000  3.000000e+000
      vertex  1.060000e+001  2.600000e+001  3.000000e+000
      vertex  1.060000e+001  3.000000e+000  1.300000e+001
    endloop
  endfacet
  facet normal  9.999999e-001  -0.000000e+000  0.000000e+000
    outer loop
      vertex  1.060000e+001  3.000000e+000  1.300000e+001
      vertex  1.060000e+001  2.600000e+001  3.000000e+000
      vertex  1.060000e+001  2.600000e+001  1.300000e+001
    endloop
  endfacet
  facet normal  1.000000e+000  0.000000e+000  0.000000e+000
    outer loop
      vertex  1.160000e+001  0.000000e+000  2.220446e-016
      vertex  1.160000e+001  7.500000e+001  2.220446e-016
      vertex  1.160000e+001  7.300000e+001  2.000000e+000
    endloop
  endfacet
  facet normal  1.000000e+000  0.000000e+000  0.000000e+000
    outer loop
      vertex  1.160000e+001  0.000000e+000  2.220446e-016
      vertex  1.160000e+001  7.300000e+001  2.000000e+000
      vertex  1.160000e+001  4.800000e+001  2.000000e+000
    endloop
  endfacet
  facet normal  1.000000e+000  0.000000e+000  0.000000e+000
    outer loop
      vertex  1.160000e+001  0.000000e+000  2.220446e-016
      vertex  1.160000e+001  4.800000e+001  2.000000e+000
      vertex  1.160000e+001  4.600000e+001  2.000000e+000
    endloop
  endfacet
  facet normal  1.000000e+000  0.000000e+000  0.000000e+000
    outer loop
      vertex  1.160000e+001  0.000000e+000  2.220446e-016
      vertex  1.160000e+001  4.600000e+001  2.000000e+000
      vertex  1.160000e+001  4.050000e+001  2.000000e+000
    endloop
  endfacet
  facet normal  1.000000e+000  0.000000e+000  0.000000e+000
    outer loop
      vertex  1.160000e+001  0.000000e+000  2.220446e-016
      vertex  1.160000e+001  4.050000e+001  2.000000e+000
      vertex  1.160000e+001  3.750000e+001  2.000000e+000
    endloop
  endfacet
  facet normal  1.000000e+000  0.000000e+000  0.000000e+000
    outer loop
      vertex  1.160000e+001  0.000000e+000  2.220446e-016
      vertex  1.160000e+001  3.750000e+001  2.000000e+000
      vertex  1.160000e+001  3.450000e+001  2.000000e+000
    endloop
  endfacet
  facet normal  1.000000e+000  0.000000e+000  0.000000e+000
    outer loop
      vertex  1.160000e+001  0.000000e+000  2.220446e-016
      vertex  1.160000e+001  3.450000e+001  2.000000e+000
      vertex  1.160000e+001  2.900000e+001  2.000000e+000
    endloop
  endfacet
  facet normal  1.000000e+000  0.000000e+000  0.000000e+000
    outer loop
      vertex  1.160000e+001  0.000000e+000  2.220446e-016
      vertex  1.160000e+001  2.900000e+001  2.000000e+000
      vertex  1.160000e+001  2.700000e+001  2.000000e+000
    endloop
  endfacet
  facet normal  1.000000e+000  0.000000e+000  0.000000e+000
    outer loop
      vertex  1.160000e+001  0.000000e+000  2.220446e-016
      vertex  1.160000e+001  2.700000e+001  2.000000e+000
      vertex  1.160000e+001  2.000000e+000  2.000000e+000
    endloop
  endfacet
  facet normal  1.000000e+000  0.000000e+000  -0.000000e+000
    outer loop
      vertex  1.160000e+001  0.000000e+000  2.220446e-016
      vertex  1.160000e+001  2.000000e+000  2.000000e+000
      vertex  1.160000e+001  2.000000e+000  1.400000e+001
    endloop
  endfacet
  facet normal  1.000000e+000  0.000000e+000  0.000000e+000
    outer loop
      vertex  1.160000e+001  0.000000e+000  2.220446e-016
      vertex  1.160000e+001  2.000000e+000  1.400000e+001
      vertex  1.160000e+001  0.000000e+000  1.610000e+001
    endloop
  endfacet
  facet normal  1.000000e+000  0.000000e+000  0.000000e+000
    outer loop
      vertex  1.160000e+001  4.600000e+001  2.000000e+000
      vertex  1.160000e+001  4.800000e+001  2.000000e+000
      vertex  1.160000e+001  4.600000e+001  1.610000e+001
    endloop
  endfacet
  facet normal  1.000000e+000  0.000000e+000  0.000000e+000
    outer loop
      vertex  1.160000e+001  4.600000e+001  1.610000e+001
      vertex  1.160000e+001  4.800000e+001  2.000000e+000
      vertex  1.160000e+001  4.800000e+001  1.400000e+001
    endloop
  endfacet
  facet normal  9.999999e-001  0.000000e+000  -0.000000e+000
    outer loop
      vertex  1.160000e+001  4.600000e+001  1.610000e+001
      vertex  1.160000e+001  4.800000e+001  1.400000e+001
      vertex  1.160000e+001  7.300000e+001  1.610000e+001
    endloop
  endfacet
  facet normal  1.000000e+000  0.000000e+000  0.000000e+000
    outer loop
      vertex  1.160000e+001  7.300000e+001  1.610000e+001
      vertex  1.160000e+001  4.800000e+001  1.400000e+001
      vertex  1.160000e+001  7.300000e+001  1.400000e+001
    endloop
  endfacet
  facet normal  1.000000e+000  0.000000e+000  0.000000e+000
    outer loop
      vertex  1.160000e+001  7.300000e+001  1.610000e+001
      vertex  1.160000e+001  7.300000e+001  1.400000e+001
      vertex  1.160000e+001  7.500000e+001  1.610000e+001
    endloop
  endfacet
  facet normal  1.000000e+000  0.000000e+000  0.000000e+000
    outer loop
      vertex  1.160000e+001  2.700000e+001  2.000000e+000
      vertex  1.160000e+001  2.900000e+001  2.000000e+000
      vertex  1.160000e+001  2.700000e+001  1.400000e+001
    endloop
  endfacet
  facet normal  1.000000e+000  -0.000000e+000  0.000000e+000
    outer loop
      vertex  1.160000e+001  2.700000e+001  1.400000e+001
      vertex  1.160000e+001  2.900000e+001  2.000000e+000
      vertex  1.160000e+001  2.900000e+001  1.610000e+001
    endloop
  endfacet
  facet normal  9.999999e-001  0.000000e+000  0.000000e+000
    outer loop
      vertex  1.160000e+001  2.700000e+001  1.400000e+001
      vertex  1.160000e+001  2.900000e+001  1.610000e+001
      vertex  1.160000e+001  2.000000e+000  1.400000e+001
    endloop
  endfacet
  facet normal  1.000000e+000  0.000000e+000  0.000000e+000
    outer loop
      vertex  1.160000e+001  2.000000e+000  1.400000e+001
      vertex  1.160000e+001  2.900000e+001  1.610000e+001
      vertex  1.160000e+001  2.000000e+000  1.610000e+001
    endloop
  endfacet
  facet normal  1.000000e+000  0.000000e+000  0.000000e+000
    outer loop
      vertex  1.160000e+001  2.000000e+000  1.400000e+001
      vertex  1.160000e+001  2.000000e+000  1.610000e+001
      vertex  1.160000e+001  0.000000e+000  1.610000e+001
    endloop
  endfacet
  facet normal  1.000000e+000  0.000000e+000  0.000000e+000
    outer loop
      vertex  1.160000e+001  7.300000e+001  1.400000e+001
      vertex  1.160000e+001  7.300000e+001  2.000000e+000
      vertex  1.160000e+001  7.500000e+001  1.610000e+001
    endloop
  endfacet
  facet normal  1.000000e+000  0.000000e+000  0.000000e+000
    outer loop
      vertex  1.160000e+001  7.500000e+001  1.610000e+001
      vertex  1.160000e+001  7.300000e+001  2.000000e+000
      vertex  1.160000e+001  7.500000e+001  2.220446e-016
    endloop
  endfacet
  facet normal  7.071068e-001 -7.071068e-001  0.000000e+000
    outer loop
      vertex  1.160000e+001  2.700000e+001  2.000000e+000
      vertex  1.160000e+001  2.700000e+001  1.400000e+001
      vertex  1.060000e+001  2.600000e+001  3.000000e+000
    endloop
  endfacet
  facet normal  7.071068e-001 -7.071068e-001  0.000000e+000
    outer loop
      vertex  1.060000e+001  2.600000e+001  3.000000e+000
      vertex  1.160000e+001  2.700000e+001  1.400000e+001
      vertex  1.060000e+001  2.600000e+001  1.300000e+001
    endloop
  endfacet
  facet normal  7.071068e-001  0.000000e+000  7.071068e-001
    outer loop
      vertex  1.160000e+001  2.700000e+001  2.000000e+000
      vertex  1.060000e+001  2.600000e+001  3.000000e+000
      vertex  1.160000e+001  2.000000e+000  2.000000e+000
    endloop
  endfacet
  facet normal  7.071068e-001  0.000000e+000  7.071068e-001
    outer loop
      vertex  1.160000e+001  2.000000e+000  2.000000e+000
      vertex  1.060000e+001  2.600000e+001  3.000000e+000
      vertex  1.060000e+001  3.000000e+000  3.000000e+000
    endloop
  endfacet
  facet normal  7.071068e-001  7.071068e-001  -0.000000e+000
    outer loop
      vertex  1.160000e+001  2.000000e+000  1.400000e+001
      vertex  1.160000e+001  2.000000e+000  2.000000e+000
      vertex  1.060000e+001  3.000000e+000  1.300000e+001
    endloop
  endfacet
  facet normal  7.071068e-001  7.071068e-001  0.000000e+000
    outer loop
      vertex  1.060000e+001  3.000000e+000  1.300000e+001
      vertex  1.160000e+001  2.000000e+000  2.000000e+000
      vertex  1.060000e+001  3.000000e+000  3.000000e+000
    endloop
  endfacet
  facet normal  7.071068e-001  0.000000e+000 -7.071068e-001
    outer loop
      vertex  1.160000e+001  2.000000e+000  1.400000e+001
      vertex  1.060000e+001  3.000000e+000  1.300000e+001
      vertex  1.160000e+001  2.700000e+001  1.400000e+001
    endloop
  endfacet
  facet normal  7.071068e-001  0.000000e+000 -7.071068e-001
    outer loop
      vertex  1.160000e+001  2.700000e+001  1.400000e+001
      vertex  1.060000e+001  3.000000e+000  1.300000e+001
      vertex  1.060000e+001  2.600000e+001  1.300000e+001
    endloop
  endfacet
  facet normal  0.000000e+000  0.000000e+000 -1.000000e+000
    outer loop
      vertex  2.000000e+000  2.000000e+000  5.960000e+001
      vertex  2.000000e+000  4.000000e+000  5.960000e+001
      vertex  7.500000e+000  2.000000e+000  5.960000e+001
    endloop
  endfacet
  facet normal  0.000000e+000  0.000000e+000 -1.000000e+000
    outer loop
      vertex  7.500000e+000  2.000000e+000  5.960000e+001
      vertex  2.000000e+000  4.000000e+000  5.960000e+001
      vertex  5.000000e+000  4.000000e+000  5.960000e+001
    endloop
  endfacet
  facet normal  0.000000e+000  0.000000e+000 -1.000000e+000
    outer loop
      vertex  7.500000e+000  2.000000e+000  5.960000e+001
      vertex  5.000000e+000  4.000000e+000  5.960000e+001
      vertex  7.500000e+000  1.575000e+001  5.960000e+001
    endloop
  endfacet
  facet normal  0.000000e+000  0.000000e+000 -1.000000e+000
    outer loop
      vertex  7.500000e+000  1.575000e+001  5.960000e+001
      vertex  5.000000e+000  4.000000e+000  5.960000e+001
      vertex  5.000000e+000  1.375000e+001  5.960000e+001
    endloop
  endfacet
  facet normal  0.000000e+000  0.000000e+000 -1.000000e+000
    outer loop
      vertex  7.500000e+000  1.575000e+001  5.960000e+001
      vertex  5.000000e+000  1.375000e+001  5.960000e+001
      vertex  2.000000e+000  1.575000e+001  5.960000e+001
    endloop
  endfacet
  facet normal  0.000000e+000  0.000000e+000 -1.000000e+000
    outer loop
      vertex  2.000000e+000  1.575000e+001  5.960000e+001
      vertex  5.000000e+000  1.375000e+001  5.960000e+001
      vertex  2.000000e+000  1.375000e+001  5.960000e+001
    endloop
  endfacet
  facet normal  0.000000e+000  1.000000e+000  0.000000e+000
    outer loop
      vertex  7.500000e+000  1.575000e+001  5.960000e+001
      vertex  2.000000e+000  1.575000e+001  5.960000e+001
      vertex  7.500000e+000  1.575000e+001  8.260000e+001
    endloop
  endfacet
  facet normal  0.000000e+000  1.000000e+000  0.000000e+000
    outer loop
      vertex  7.500000e+000  1.575000e+001  8.260000e+001
      vertex  2.000000e+000  1.575000e+001  5.960000e+001
      vertex  2.000000e+000  1.575000e+001  8.260000e+001
    endloop
  endfacet
  facet normal  0.000000e+000  -0.000000e+000  1.000000e+000
    outer loop
      vertex  0.000000e+000  0.000000e+000  8.260000e+001
      vertex  2.000000e+000  4.000000e+000  8.260000e+001
      vertex  2.000000e+000  1.375000e+001  8.260000e+001
    endloop
  endfacet
  facet normal  0.000000e+000  -0.000000e+000  1.000000e+000
    outer loop
      vertex  0.000000e+000  0.000000e+000  8.260000e+001
      vertex  2.000000e+000  1.375000e+001  8.260000e+001
      vertex  2.000000e+000  1.575000e+001  8.260000e+001
    endloop
  endfacet
  facet normal  0.000000e+000  -0.000000e+000  1.000000e+000
    outer loop
      vertex  0.000000e+000  0.000000e+000  8.260000e+001
      vertex  2.000000e+000  1.575000e+001  8.260000e+001
      vertex  2.000000e+000  5.925000e+001  8.260000e+001
    endloop
  endfacet
  facet normal  0.000000e+000  -0.000000e+000  1.000000e+000
    outer loop
      vertex  0.000000e+000  0.000000e+000  8.260000e+001
      vertex  2.000000e+000  5.925000e+001  8.260000e+001
      vertex  2.000000e+000  6.125000e+001  8.260000e+001
    endloop
  endfacet
  facet normal  0.000000e+000  -0.000000e+000  1.000000e+000
    outer loop
      vertex  0.000000e+000  0.000000e+000  8.260000e+001
      vertex  2.000000e+000  6.125000e+001  8.260000e+001
      vertex  2.000000e+000  7.100000e+001  8.260000e+001
    endloop
  endfacet
  facet normal  0.000000e+000  0.000000e+000  1.000000e+000
    outer loop
      vertex  0.000000e+000  0.000000e+000  8.260000e+001
      vertex  2.000000e+000  7.100000e+001  8.260000e+001
      vertex  0.000000e+000  7.500000e+001  8.260000e+001
    endloop
  endfacet
  facet normal  0.000000e+000  0.000000e+000  1.000000e+000
    outer loop
      vertex  3.160000e+001  0.000000e+000  8.260000e+001
      vertex  3.160000e+001  2.000000e+000  8.260000e+001
      vertex  0.000000e+000  0.000000e+000  8.260000e+001
    endloop
  endfacet
  facet normal  0.000000e+000  0.000000e+000  9.999999e-001
    outer loop
      vertex  0.000000e+000  0.000000e+000  8.260000e+001
      vertex  3.160000e+001  2.000000e+000  8.260000e+001
      vertex  7.500000e+000  2.000000e+000  8.260000e+001
    endloop
  endfacet
  facet normal  0.000000e+000  0.000000e+000  1.000000e+000
    outer loop
      vertex  0.000000e+000  0.000000e+000  8.260000e+001
      vertex  7.500000e+000  2.000000e+000  8.260000e+001
      vertex  2.000000e+000  4.000000e+000  8.260000e+001
    endloop
  endfacet
  facet normal  -0.000000e+000  0.000000e+000  1.000000e+000
    outer loop
      vertex  2.000000e+000  4.000000e+000  8.260000e+001
      vertex  7.500000e+000  2.000000e+000  8.260000e+001
      vertex  5.000000e+000  4.000000e+000  8.260000e+001
    endloop
  endfacet
  facet normal  0.000000e+000  0.000000e+000  1.000000e+000
    outer loop
      vertex  5.000000e+000  4.000000e+000  8.260000e+001
      vertex  7.500000e+000  2.000000e+000  8.260000e+001
      vertex  5.000000e+000  1.375000e+001  8.260000e+001
    endloop
  endfacet
  facet normal  -0.000000e+000  0.000000e+000  1.000000e+000
    outer loop
      vertex  5.000000e+000  1.375000e+001  8.260000e+001
      vertex  7.500000e+000  2.000000e+000  8.260000e+001
      vertex  7.500000e+000  1.575000e+001  8.260000e+001
    endloop
  endfacet
  facet normal  0.000000e+000  0.000000e+000  1.000000e+000
    outer loop
      vertex  5.000000e+000  1.375000e+001  8.260000e+001
      vertex  7.500000e+000  1.575000e+001  8.260000e+001
      vertex  2.000000e+000  1.375000e+001  8.260000e+001
    endloop
  endfacet
  facet normal  0.000000e+000  0.000000e+000  1.000000e+000
    outer loop
      vertex  2.000000e+000  1.375000e+001  8.260000e+001
      vertex  7.500000e+000  1.575000e+001  8.260000e+001
      vertex  2.000000e+000  1.575000e+001  8.260000e+001
    endloop
  endfacet
  facet normal  0.000000e+000  -0.000000e+000  1.000000e+000
    outer loop
      vertex  0.000000e+000  7.500000e+001  8.260000e+001
      vertex  2.000000e+000  7.100000e+001  8.260000e+001
      vertex  7.500000e+000  7.300000e+001  8.260000e+001
    endloop
  endfacet
  facet normal  0.000000e+000  0.000000e+000  1.000000e+000
    outer loop
      vertex  7.500000e+000  7.300000e+001  8.260000e+001
      vertex  2.000000e+000  7.100000e+001  8.260000e+001
      vertex  5.000000e+000  7.100000e+001  8.260000e+001
    endloop
  endfacet
  facet normal  -0.000000e+000  0.000000e+000  1.000000e+000
    outer loop
      vertex  7.500000e+000  7.300000e+001  8.260000e+001
      vertex  5.000000e+000  7.100000e+001  8.260000e+001
      vertex  7.500000e+000  5.925000e+001  8.260000e+001
    endloop
  endfacet
  facet normal  0.000000e+000  0.000000e+000  1.000000e+000
    outer loop
      vertex  7.500000e+000  5.925000e+001  8.260000e+001
      vertex  5.000000e+000  7.100000e+001  8.260000e+001
      vertex  5.000000e+000  6.125000e+001  8.260000e+001
    endloop
  endfacet
  facet normal  0.000000e+000  0.000000e+000  1.000000e+000
    outer loop
      vertex  7.500000e+000  5.925000e+001  8.260000e+001
      vertex  5.000000e+000  6.125000e+001  8.260000e+001
      vertex  2.000000e+000  5.925000e+001  8.260000e+001
    endloop
  endfacet
  facet normal  0.000000e+000  0.000000e+000  1.000000e+000
    outer loop
      vertex  2.000000e+000  5.925000e+001  8.260000e+001
      vertex  5.000000e+000  6.125000e+001  8.260000e+001
      vertex  2.000000e+000  6.125000e+001  8.260000e+001
    endloop
  endfacet
  facet normal  0.000000e+000  -0.000000e+000  1.000000e+000
    outer loop
      vertex  0.000000e+000  7.500000e+001  8.260000e+001
      vertex  7.500000e+000  7.300000e+001  8.260000e+001
      vertex  3.160000e+001  7.500000e+001  8.260000e+001
    endloop
  endfacet
  facet normal  0.000000e+000  0.000000e+000  9.999999e-001
    outer loop
      vertex  3.160000e+001  7.500000e+001  8.260000e+001
      vertex  7.500000e+000  7.300000e+001  8.260000e+001
      vertex  3.160000e+001  7.300000e+001  8.260000e+001
    endloop
  endfacet
  facet normal  0.000000e+000 -1.000000e+000  -0.000000e+000
    outer loop
      vertex  7.500000e+000  5.925000e+001  5.960000e+001
      vertex  7.500000e+000  5.925000e+001  8.260000e+001
      vertex  2.000000e+000  5.925000e+001  5.960000e+001
    endloop
  endfacet
  facet normal  0.000000e+000 -1.000000e+000  0.000000e+000
    outer loop
      vertex  2.000000e+000  5.925000e+001  5.960000e+001
      vertex  7.500000e+000  5.925000e+001  8.260000e+001
      vertex  2.000000e+000  5.925000e+001  8.260000e+001
    endloop
  endfacet
  facet normal  0.000000e+000  0.000000e+000 -1.000000e+000
    outer loop
      vertex  2.000000e+000  5.925000e+001  5.960000e+001
      vertex  2.000000e+000  6.125000e+001  5.960000e+001
      vertex  7.500000e+000  5.925000e+001  5.960000e+001
    endloop
  endfacet
  facet normal  0.000000e+000  0.000000e+000 -1.000000e+000
    outer loop
      vertex  7.500000e+000  5.925000e+001  5.960000e+001
      vertex  2.000000e+000  6.125000e+001  5.960000e+001
      vertex  5.000000e+000  6.125000e+001  5.960000e+001
    endloop
  endfacet
  facet normal  0.000000e+000  0.000000e+000 -1.000000e+000
    outer loop
      vertex  7.500000e+000  5.925000e+001  5.960000e+001
      vertex  5.000000e+000  6.125000e+001  5.960000e+001
      vertex  7.500000e+000  7.300000e+001  5.960000e+001
    endloop
  endfacet
  facet normal  0.000000e+000  0.000000e+000 -1.000000e+000
    outer loop
      vertex  7.500000e+000  7.300000e+001  5.960000e+001
      vertex  5.000000e+000  6.125000e+001  5.960000e+001
      vertex  5.000000e+000  7.100000e+001  5.960000e+001
    endloop
  endfacet
  facet normal  0.000000e+000  0.000000e+000 -1.000000e+000
    outer loop
      vertex  7.500000e+000  7.300000e+001  5.960000e+001
      vertex  5.000000e+000  7.100000e+001  5.960000e+001
      vertex  2.000000e+000  7.300000e+001  5.960000e+001
    endloop
  endfacet
  facet normal  0.000000e+000  0.000000e+000 -1.000000e+000
    outer loop
      vertex  2.000000e+000  7.300000e+001  5.960000e+001
      vertex  5.000000e+000  7.100000e+001  5.960000e+001
      vertex  2.000000e+000  7.100000e+001  5.960000e+001
    endloop
  endfacet
  facet normal  1.000000e+000  0.000000e+000  0.000000e+000
    outer loop
      vertex  7.500000e+000  5.925000e+001  5.960000e+001
      vertex  7.500000e+000  7.300000e+001  5.960000e+001
      vertex  7.500000e+000  5.925000e+001  8.260000e+001
    endloop
  endfacet
  facet normal  1.000000e+000  -0.000000e+000  0.000000e+000
    outer loop
      vertex  7.500000e+000  5.925000e+001  8.260000e+001
      vertex  7.500000e+000  7.300000e+001  5.960000e+001
      vertex  7.500000e+000  7.300000e+001  8.260000e+001
    endloop
  endfacet
  facet normal -1.000000e+000  0.000000e+000  0.000000e+000
    outer loop
      vertex  5.000000e+000  6.125000e+001  5.960000e+001
      vertex  5.000000e+000  6.125000e+001  8.260000e+001
      vertex  5.000000e+000  7.100000e+001  5.960000e+001
    endloop
  endfacet
  facet normal -1.000000e+000  0.000000e+000  0.000000e+000
    outer loop
      vertex  5.000000e+000  7.100000e+001  5.960000e+001
      vertex  5.000000e+000  6.125000e+001  8.260000e+001
      vertex  5.000000e+000  7.100000e+001  8.260000e+001
    endloop
  endfacet
  facet normal -1.000000e+000  0.000000e+000  0.000000e+000
    outer loop
      vertex  5.000000e+000  4.000000e+000  5.960000e+001
      vertex  5.000000e+000  4.000000e+000  8.260000e+001
      vertex  5.000000e+000  1.375000e+001  5.960000e+001
    endloop
  endfacet
  facet normal -1.000000e+000  0.000000e+000  0.000000e+000
    outer loop
      vertex  5.000000e+000  1.375000e+001  5.960000e+001
      vertex  5.000000e+000  4.000000e+000  8.260000e+001
      vertex  5.000000e+000  1.375000e+001  8.260000e+001
    endloop
  endfacet
  facet normal  1.000000e+000  0.000000e+000  0.000000e+000
    outer loop
      vertex  7.500000e+000  2.000000e+000  5.960000e+001
      vertex  7.500000e+000  1.575000e+001  5.960000e+001
      vertex  7.500000e+000  2.000000e+000  8.260000e+001
    endloop
  endfacet
  facet normal  1.000000e+000  -0.000000e+000  0.000000e+000
    outer loop
      vertex  7.500000e+000  2.000000e+000  8.260000e+001
      vertex  7.500000e+000  1.575000e+001  5.960000e+001
      vertex  7.500000e+000  1.575000e+001  8.260000e+001
    endloop
  endfacet
  facet normal  0.000000e+000  1.000000e+000  0.000000e+000
    outer loop
      vertex  5.000000e+000  6.125000e+001  5.960000e+001
      vertex  2.000000e+000  6.125000e+001  5.960000e+001
      vertex  5.000000e+000  6.125000e+001  8.260000e+001
    endloop
  endfacet
  facet normal  0.000000e+000  1.000000e+000  0.000000e+000
    outer loop
      vertex  5.000000e+000  6.125000e+001  8.260000e+001
      vertex  2.000000e+000  6.125000e+001  5.960000e+001
      vertex  2.000000e+000  6.125000e+001  8.260000e+001
    endloop
  endfacet
  facet normal  0.000000e+000  1.000000e+000  -0.000000e+000
    outer loop
      vertex  5.000000e+000  4.000000e+000  8.260000e+001
      vertex  5.000000e+000  4.000000e+000  5.960000e+001
      vertex  2.000000e+000  4.000000e+000  8.260000e+001
    endloop
  endfacet
  facet normal  0.000000e+000  1.000000e+000  0.000000e+000
    outer loop
      vertex  2.000000e+000  4.000000e+000  8.260000e+001
      vertex  5.000000e+000  4.000000e+000  5.960000e+001
      vertex  2.000000e+000  4.000000e+000  5.960000e+001
    endloop
  endfacet
  facet normal  0.000000e+000 -1.000000e+000  0.000000e+000
    outer loop
      vertex  5.000000e+000  7.100000e+001  8.260000e+001
      vertex  2.000000e+000  7.100000e+001  8.260000e+001
      vertex  5.000000e+000  7.100000e+001  5.960000e+001
    endloop
  endfacet
  facet normal  0.000000e+000 -1.000000e+000  0.000000e+000
    outer loop
      vertex  5.000000e+000  7.100000e+001  5.960000e+001
      vertex  2.000000e+000  7.100000e+001  8.260000e+001
      vertex  2.000000e+000  7.100000e+001  5.960000e+001
    endloop
  endfacet
  facet normal  0.000000e+000 -1.000000e+000  -0.000000e+000
    outer loop
      vertex  5.000000e+000  1.375000e+001  5.960000e+001
      vertex  5.000000e+000  1.375000e+001  8.260000e+001
      vertex  2.000000e+000  1.375000e+001  5.960000e+001
    endloop
  endfacet
  facet normal  0.000000e+000 -1.000000e+000  0.000000e+000
    outer loop
      vertex  2.000000e+000  1.375000e+001  5.960000e+001
      vertex  5.000000e+000  1.375000e+001  8.260000e+001
      vertex  2.000000e+000  1.375000e+001  8.260000e+001
    endloop
  endfacet
  facet normal  2.581914e-017  0.000000e+000 -1.000000e+000
    outer loop
      vertex  1.160000e+001  0.000000e+000  2.220446e-016
      vertex  3.000000e+000  0.000000e+000  0.000000e+000
      vertex  1.160000e+001  7.500000e+001  2.220446e-016
    endloop
  endfacet
  facet normal  2.581914e-017  0.000000e+000 -1.000000e+000
    outer loop
      vertex  1.160000e+001  7.500000e+001  2.220446e-016
      vertex  3.000000e+000  0.000000e+000  0.000000e+000
      vertex  3.000000e+000  7.500000e+001  0.000000e+000
    endloop
  endfacet
  facet normal -1.000000e+000  0.000000e+000  0.000000e+000
    outer loop
      vertex  0.000000e+000  0.000000e+000  3.000000e+000
      vertex  0.000000e+000  0.000000e+000  8.260000e+001
      vertex  0.000000e+000  7.500000e+001  3.000000e+000
    endloop
  endfacet
  facet normal -1.000000e+000  0.000000e+000  0.000000e+000
    outer loop
      vertex  0.000000e+000  7.500000e+001  3.000000e+000
      vertex  0.000000e+000  0.000000e+000  8.260000e+001
      vertex  0.000000e+000  7.500000e+001  8.260000e+001
    endloop
  endfacet
  facet normal -9.876884e-001  -0.000000e+000 -1.564345e-001
    outer loop
      vertex  0.000000e+000  0.000000e+000  3.000000e+000
      vertex  0.000000e+000  7.500000e+001  3.000000e+000
      vertex  1.468305e-001  0.000000e+000  2.072949e+000
    endloop
  endfacet
  facet normal -9.876884e-001  0.000000e+000 -1.564345e-001
    outer loop
      vertex  1.468305e-001  0.000000e+000  2.072949e+000
      vertex  0.000000e+000  7.500000e+001  3.000000e+000
      vertex  1.468305e-001  7.500000e+001  2.072949e+000
    endloop
  endfacet
  facet normal -8.910065e-001  -0.000000e+000 -4.539905e-001
    outer loop
      vertex  1.468305e-001  0.000000e+000  2.072949e+000
      vertex  1.468305e-001  7.500000e+001  2.072949e+000
      vertex  5.729490e-001  0.000000e+000  1.236644e+000
    endloop
  endfacet
  facet normal -8.910065e-001  0.000000e+000 -4.539905e-001
    outer loop
      vertex  5.729490e-001  0.000000e+000  1.236644e+000
      vertex  1.468305e-001  7.500000e+001  2.072949e+000
      vertex  5.729490e-001  7.500000e+001  1.236644e+000
    endloop
  endfacet
  facet normal -7.071068e-001  -0.000000e+000 -7.071068e-001
    outer loop
      vertex  5.729490e-001  0.000000e+000  1.236644e+000
      vertex  5.729490e-001  7.500000e+001  1.236644e+000
      vertex  1.236644e+000  0.000000e+000  5.729490e-001
    endloop
  endfacet
  facet normal -7.071068e-001  0.000000e+000 -7.071068e-001
    outer loop
      vertex  1.236644e+000  0.000000e+000  5.729490e-001
      vertex  5.729490e-001  7.500000e+001  1.236644e+000
      vertex  1.236644e+000  7.500000e+001  5.729490e-001
    endloop
  endfacet
  facet normal -4.539905e-001  -0.000000e+000 -8.910065e-001
    outer loop
      vertex  1.236644e+000  0.000000e+000  5.729490e-001
      vertex  1.236644e+000  7.500000e+001  5.729490e-001
      vertex  2.072949e+000  0.000000e+000  1.468305e-001
    endloop
  endfacet
  facet normal -4.539905e-001  0.000000e+000 -8.910065e-001
    outer loop
      vertex  2.072949e+000  0.000000e+000  1.468305e-001
      vertex  1.236644e+000  7.500000e+001  5.729490e-001
      vertex  2.072949e+000  7.500000e+001  1.468305e-001
    endloop
  endfacet
  facet normal -1.564345e-001  -0.000000e+000 -9.876884e-001
    outer loop
      vertex  2.072949e+000  0.000000e+000  1.468305e-001
      vertex  2.072949e+000  7.500000e+001  1.468305e-001
      vertex  3.000000e+000  0.000000e+000  0.000000e+000
    endloop
  endfacet
  facet normal -1.564345e-001  0.000000e+000 -9.876884e-001
    outer loop
      vertex  3.000000e+000  0.000000e+000  0.000000e+000
      vertex  2.072949e+000  7.500000e+001  1.468305e-001
      vertex  3.000000e+000  7.500000e+001  0.000000e+000
    endloop
  endfacet
  facet normal  0.000000e+000  0.000000e+000 -1.000000e+000
    outer loop
      vertex  1.309855e+001  3.684917e+001  2.000000e+000
      vertex  1.160000e+001  3.750000e+001  2.000000e+000
      vertex  1.295000e+001  3.750000e+001  2.000000e+000
    endloop
  endfacet
  facet normal  -0.000000e+000  0.000000e+000 -1.000000e+000
    outer loop
      vertex  1.160000e+001  4.050000e+001  2.000000e+000
      vertex  1.745000e+001  4.050000e+001  2.000000e+000
      vertex  1.478378e+001  3.896239e+001  2.000000e+000
    endloop
  endfacet
  facet normal  0.000000e+000  0.000000e+000 -1.000000e+000
    outer loop
      vertex  1.160000e+001  4.050000e+001  2.000000e+000
      vertex  1.478378e+001  3.896239e+001  2.000000e+000
      vertex  1.411622e+001  3.896239e+001  2.000000e+000
    endloop
  endfacet
  facet normal  -0.000000e+000  0.000000e+000 -1.000000e+000
    outer loop
      vertex  1.160000e+001  4.050000e+001  2.000000e+000
      vertex  1.411622e+001  3.896239e+001  2.000000e+000
      vertex  1.351477e+001  3.867275e+001  2.000000e+000
    endloop
  endfacet
  facet normal  -0.000000e+000  0.000000e+000 -1.000000e+000
    outer loop
      vertex  1.160000e+001  4.050000e+001  2.000000e+000
      vertex  1.351477e+001  3.867275e+001  2.000000e+000
      vertex  1.309855e+001  3.815083e+001  2.000000e+000
    endloop
  endfacet
  facet normal  -0.000000e+000  0.000000e+000 -1.000000e+000
    outer loop
      vertex  1.160000e+001  4.050000e+001  2.000000e+000
      vertex  1.309855e+001  3.815083e+001  2.000000e+000
      vertex  1.295000e+001  3.750000e+001  2.000000e+000
    endloop
  endfacet
  facet normal  0.000000e+000  0.000000e+000 -1.000000e+000
    outer loop
      vertex  1.160000e+001  4.050000e+001  2.000000e+000
      vertex  1.295000e+001  3.750000e+001  2.000000e+000
      vertex  1.160000e+001  3.750000e+001  2.000000e+000
    endloop
  endfacet
  facet normal  0.000000e+000  0.000000e+000 -1.000000e+000
    outer loop
      vertex  1.745000e+001  3.450000e+001  2.000000e+000
      vertex  1.160000e+001  3.450000e+001  2.000000e+000
      vertex  1.411622e+001  3.603761e+001  2.000000e+000
    endloop
  endfacet
  facet normal  0.000000e+000  0.000000e+000 -1.000000e+000
    outer loop
      vertex  1.745000e+001  3.450000e+001  2.000000e+000
      vertex  1.411622e+001  3.603761e+001  2.000000e+000
      vertex  1.478378e+001  3.603761e+001  2.000000e+000
    endloop
  endfacet
  facet normal  0.000000e+000  0.000000e+000 -9.999999e-001
    outer loop
      vertex  1.745000e+001  3.450000e+001  2.000000e+000
      vertex  1.478378e+001  3.603761e+001  2.000000e+000
      vertex  1.538523e+001  3.632725e+001  2.000000e+000
    endloop
  endfacet
  facet normal  0.000000e+000  0.000000e+000 -1.000000e+000
    outer loop
      vertex  1.745000e+001  3.450000e+001  2.000000e+000
      vertex  1.538523e+001  3.632725e+001  2.000000e+000
      vertex  1.580145e+001  3.684917e+001  2.000000e+000
    endloop
  endfacet
  facet normal  0.000000e+000  0.000000e+000 -1.000000e+000
    outer loop
      vertex  1.745000e+001  3.450000e+001  2.000000e+000
      vertex  1.580145e+001  3.684917e+001  2.000000e+000
      vertex  1.745000e+001  4.050000e+001  2.000000e+000
    endloop
  endfacet
  facet normal  0.000000e+000  0.000000e+000 -1.000000e+000
    outer loop
      vertex  1.745000e+001  4.050000e+001  2.000000e+000
      vertex  1.580145e+001  3.684917e+001  2.000000e+000
      vertex  1.595000e+001  3.750000e+001  2.000000e+000
    endloop
  endfacet
  facet normal  0.000000e+000  0.000000e+000 -1.000000e+000
    outer loop
      vertex  1.745000e+001  4.050000e+001  2.000000e+000
      vertex  1.595000e+001  3.750000e+001  2.000000e+000
      vertex  1.580145e+001  3.815083e+001  2.000000e+000
    endloop
  endfacet
  facet normal  0.000000e+000  0.000000e+000 -1.000000e+000
    outer loop
      vertex  1.745000e+001  4.050000e+001  2.000000e+000
      vertex  1.580145e+001  3.815083e+001  2.000000e+000
      vertex  1.538523e+001  3.867275e+001  2.000000e+000
    endloop
  endfacet
  facet normal  0.000000e+000  0.000000e+000 -1.000000e+000
    outer loop
      vertex  1.745000e+001  4.050000e+001  2.000000e+000
      vertex  1.538523e+001  3.867275e+001  2.000000e+000
      vertex  1.478378e+001  3.896239e+001  2.000000e+000
    endloop
  endfacet
  facet normal  0.000000e+000  0.000000e+000 -1.000000e+000
    outer loop
      vertex  1.411622e+001  3.603761e+001  2.000000e+000
      vertex  1.160000e+001  3.450000e+001  2.000000e+000
      vertex  1.351477e+001  3.632725e+001  2.000000e+000
    endloop
  endfacet
  facet normal  -0.000000e+000  0.000000e+000 -1.000000e+000
    outer loop
      vertex  1.351477e+001  3.632725e+001  2.000000e+000
      vertex  1.160000e+001  3.450000e+001  2.000000e+000
      vertex  1.160000e+001  3.750000e+001  2.000000e+000
    endloop
  endfacet
  facet normal  0.000000e+000  0.000000e+000 -1.000000e+000
    outer loop
      vertex  1.351477e+001  3.632725e+001  2.000000e+000
      vertex  1.160000e+001  3.750000e+001  2.000000e+000
      vertex  1.309855e+001  3.684917e+001  2.000000e+000
    endloop
  endfacet
  facet normal  4.338812e-001 -9.009701e-001  0.000000e+000
    outer loop
      vertex  1.411622e+001  3.896239e+001  2.000000e+000
      vertex  1.351477e+001  3.867275e+001  4.000000e+000
      vertex  1.351477e+001  3.867275e+001  2.000000e+000
    endloop
  endfacet
  facet normal  7.818322e-001 -6.234889e-001  0.000000e+000
    outer loop
      vertex  1.351477e+001  3.867275e+001  2.000000e+000
      vertex  1.351477e+001  3.867275e+001  4.000000e+000
      vertex  1.309855e+001  3.815083e+001  4.000000e+000
    endloop
  endfacet
  facet normal  7.818322e-001 -6.234889e-001  0.000000e+000
    outer loop
      vertex  1.351477e+001  3.867275e+001  2.000000e+000
      vertex  1.309855e+001  3.815083e+001  4.000000e+000
      vertex  1.309855e+001  3.815083e+001  2.000000e+000
    endloop
  endfacet
  facet normal  9.749278e-001 -2.225216e-001  0.000000e+000
    outer loop
      vertex  1.309855e+001  3.815083e+001  2.000000e+000
      vertex  1.309855e+001  3.815083e+001  4.000000e+000
      vertex  1.295000e+001  3.750000e+001  4.000000e+000
    endloop
  endfacet
  facet normal  9.749278e-001 -2.225216e-001  0.000000e+000
    outer loop
      vertex  1.309855e+001  3.815083e+001  2.000000e+000
      vertex  1.295000e+001  3.750000e+001  4.000000e+000
      vertex  1.295000e+001  3.750000e+001  2.000000e+000
    endloop
  endfacet
  facet normal  4.338812e-001 -9.009701e-001  0.000000e+000
    outer loop
      vertex  1.351477e+001  3.867275e+001  4.000000e+000
      vertex  1.411622e+001  3.896239e+001  2.000000e+000
      vertex  1.411622e+001  3.896239e+001  4.000000e+000
    endloop
  endfacet
  facet normal  0.000000e+000 -1.000000e+000  0.000000e+000
    outer loop
      vertex  1.411622e+001  3.896239e+001  4.000000e+000
      vertex  1.411622e+001  3.896239e+001  2.000000e+000
      vertex  1.478378e+001  3.896239e+001  2.000000e+000
    endloop
  endfacet
  facet normal  0.000000e+000 -1.000000e+000  0.000000e+000
    outer loop
      vertex  1.411622e+001  3.896239e+001  4.000000e+000
      vertex  1.478378e+001  3.896239e+001  2.000000e+000
      vertex  1.478378e+001  3.896239e+001  4.000000e+000
    endloop
  endfacet
  facet normal -4.338807e-001 -9.009704e-001  -0.000000e+000
    outer loop
      vertex  1.478378e+001  3.896239e+001  4.000000e+000
      vertex  1.478378e+001  3.896239e+001  2.000000e+000
      vertex  1.538523e+001  3.867275e+001  2.000000e+000
    endloop
  endfacet
  facet normal -4.338807e-001 -9.009704e-001  0.000000e+000
    outer loop
      vertex  1.478378e+001  3.896239e+001  4.000000e+000
      vertex  1.538523e+001  3.867275e+001  2.000000e+000
      vertex  1.538523e+001  3.867275e+001  4.000000e+000
    endloop
  endfacet
  facet normal -7.818322e-001 -6.234889e-001  -0.000000e+000
    outer loop
      vertex  1.538523e+001  3.867275e+001  4.000000e+000
      vertex  1.538523e+001  3.867275e+001  2.000000e+000
      vertex  1.580145e+001  3.815083e+001  2.000000e+000
    endloop
  endfacet
  facet normal -7.818322e-001 -6.234889e-001  0.000000e+000
    outer loop
      vertex  1.538523e+001  3.867275e+001  4.000000e+000
      vertex  1.580145e+001  3.815083e+001  2.000000e+000
      vertex  1.580145e+001  3.815083e+001  4.000000e+000
    endloop
  endfacet
  facet normal -9.749281e-001 -2.225203e-001  -0.000000e+000
    outer loop
      vertex  1.580145e+001  3.815083e+001  4.000000e+000
      vertex  1.580145e+001  3.815083e+001  2.000000e+000
      vertex  1.595000e+001  3.750000e+001  2.000000e+000
    endloop
  endfacet
  facet normal -9.749281e-001 -2.225203e-001  0.000000e+000
    outer loop
      vertex  1.580145e+001  3.815083e+001  4.000000e+000
      vertex  1.595000e+001  3.750000e+001  2.000000e+000
      vertex  1.595000e+001  3.750000e+001  4.000000e+000
    endloop
  endfacet
  facet normal -4.338807e-001  9.009704e-001  0.000000e+000
    outer loop
      vertex  1.478378e+001  3.603761e+001  2.000000e+000
      vertex  1.538523e+001  3.632725e+001  4.000000e+000
      vertex  1.538523e+001  3.632725e+001  2.000000e+000
    endloop
  endfacet
  facet normal -7.818322e-001  6.234889e-001  0.000000e+000
    outer loop
      vertex  1.538523e+001  3.632725e+001  2.000000e+000
      vertex  1.538523e+001  3.632725e+001  4.000000e+000
      vertex  1.580145e+001  3.684917e+001  4.000000e+000
    endloop
  endfacet
  facet normal -7.818322e-001  6.234889e-001  0.000000e+000
    outer loop
      vertex  1.538523e+001  3.632725e+001  2.000000e+000
      vertex  1.580145e+001  3.684917e+001  4.000000e+000
      vertex  1.580145e+001  3.684917e+001  2.000000e+000
    endloop
  endfacet
  facet normal -9.749281e-001  2.225203e-001  0.000000e+000
    outer loop
      vertex  1.580145e+001  3.684917e+001  2.000000e+000
      vertex  1.580145e+001  3.684917e+001  4.000000e+000
      vertex  1.595000e+001  3.750000e+001  4.000000e+000
    endloop
  endfacet
  facet normal -9.749281e-001  2.225203e-001  0.000000e+000
    outer loop
      vertex  1.580145e+001  3.684917e+001  2.000000e+000
      vertex  1.595000e+001  3.750000e+001  4.000000e+000
      vertex  1.595000e+001  3.750000e+001  2.000000e+000
    endloop
  endfacet
  facet normal -4.338807e-001  9.009704e-001  0.000000e+000
    outer loop
      vertex  1.538523e+001  3.632725e+001  4.000000e+000
      vertex  1.478378e+001  3.603761e+001  2.000000e+000
      vertex  1.478378e+001  3.603761e+001  4.000000e+000
    endloop
  endfacet
  facet normal  0.000000e+000  1.000000e+000  0.000000e+000
    outer loop
      vertex  1.478378e+001  3.603761e+001  4.000000e+000
      vertex  1.478378e+001  3.603761e+001  2.000000e+000
      vertex  1.411622e+001  3.603761e+001  2.000000e+000
    endloop
  endfacet
  facet normal  0.000000e+000  1.000000e+000  0.000000e+000
    outer loop
      vertex  1.478378e+001  3.603761e+001  4.000000e+000
      vertex  1.411622e+001  3.603761e+001  2.000000e+000
      vertex  1.411622e+001  3.603761e+001  4.000000e+000
    endloop
  endfacet
  facet normal  4.338812e-001  9.009701e-001  0.000000e+000
    outer loop
      vertex  1.411622e+001  3.603761e+001  4.000000e+000
      vertex  1.411622e+001  3.603761e+001  2.000000e+000
      vertex  1.351477e+001  3.632725e+001  2.000000e+000
    endloop
  endfacet
  facet normal  4.338812e-001  9.009701e-001  -0.000000e+000
    outer loop
      vertex  1.411622e+001  3.603761e+001  4.000000e+000
      vertex  1.351477e+001  3.632725e+001  2.000000e+000
      vertex  1.351477e+001  3.632725e+001  4.000000e+000
    endloop
  endfacet
  facet normal  7.818322e-001  6.234889e-001  0.000000e+000
    outer loop
      vertex  1.351477e+001  3.632725e+001  4.000000e+000
      vertex  1.351477e+001  3.632725e+001  2.000000e+000
      vertex  1.309855e+001  3.684917e+001  2.000000e+000
    endloop
  endfacet
  facet normal  7.818322e-001  6.234889e-001  -0.000000e+000
    outer loop
      vertex  1.351477e+001  3.632725e+001  4.000000e+000
      vertex  1.309855e+001  3.684917e+001  2.000000e+000
      vertex  1.309855e+001  3.684917e+001  4.000000e+000
    endloop
  endfacet
  facet normal  9.749278e-001  2.225216e-001  0.000000e+000
    outer loop
      vertex  1.309855e+001  3.684917e+001  4.000000e+000
      vertex  1.309855e+001  3.684917e+001  2.000000e+000
      vertex  1.295000e+001  3.750000e+001  2.000000e+000
    endloop
  endfacet
  facet normal  9.749278e-001  2.225216e-001  -0.000000e+000
    outer loop
      vertex  1.309855e+001  3.684917e+001  4.000000e+000
      vertex  1.295000e+001  3.750000e+001  2.000000e+000
      vertex  1.295000e+001  3.750000e+001  4.000000e+000
    endloop
  endfacet
  facet normal  1.000000e+000  0.000000e+000  0.000000e+000
    outer loop
      vertex  1.745000e+001  3.450000e+001  4.000000e+000
      vertex  1.745000e+001  3.450000e+001  2.000000e+000
      vertex  1.745000e+001  4.050000e+001  4.000000e+000
    endloop
  endfacet
  facet normal  1.000000e+000  0.000000e+000  0.000000e+000
    outer loop
      vertex  1.745000e+001  4.050000e+001  4.000000e+000
      vertex  1.745000e+001  3.450000e+001  2.000000e+000
      vertex  1.745000e+001  4.050000e+001  2.000000e+000
    endloop
  endfacet
  facet normal  1.000000e+000  0.000000e+000  0.000000e+000
    outer loop
      vertex  3.160000e+001  7.300000e+001  1.610000e+001
      vertex  3.160000e+001  7.500000e+001  1.610000e+001
      vertex  3.160000e+001  7.300000e+001  8.260000e+001
    endloop
  endfacet
  facet normal  1.000000e+000  -0.000000e+000  0.000000e+000
    outer loop
      vertex  3.160000e+001  7.300000e+001  8.260000e+001
      vertex  3.160000e+001  7.500000e+001  1.610000e+001
      vertex  3.160000e+001  7.500000e+001  8.260000e+001
    endloop
  endfacet
  facet normal  1.000000e+000  0.000000e+000  0.000000e+000
    outer loop
      vertex  3.160000e+001  0.000000e+000  1.610000e+001
      vertex  3.160000e+001  2.000000e+000  1.610000e+001
      vertex  3.160000e+001  0.000000e+000  8.260000e+001
    endloop
  endfacet
  facet normal  1.000000e+000  -0.000000e+000  0.000000e+000
    outer loop
      vertex  3.160000e+001  0.000000e+000  8.260000e+001
      vertex  3.160000e+001  2.000000e+000  1.610000e+001
      vertex  3.160000e+001  2.000000e+000  8.260000e+001
    endloop
  endfacet
  facet normal  0.000000e+000  0.000000e+000 -1.000000e+000
    outer loop
      vertex  3.160000e+001  7.300000e+001  1.610000e+001
      vertex  1.160000e+001  7.300000e+001  1.610000e+001
      vertex  3.160000e+001  7.500000e+001  1.610000e+001
    endloop
  endfacet
  facet normal  -0.000000e+000  0.000000e+000 -1.000000e+000
    outer loop
      vertex  3.160000e+001  7.500000e+001  1.610000e+001
      vertex  1.160000e+001  7.300000e+001  1.610000e+001
      vertex  1.160000e+001  7.500000e+001  1.610000e+001
    endloop
  endfacet
  facet normal  0.000000e+000  0.000000e+000 -1.000000e+000
    outer loop
      vertex  3.160000e+001  0.000000e+000  1.610000e+001
      vertex  1.160000e+001  0.000000e+000  1.610000e+001
      vertex  3.160000e+001  2.000000e+000  1.610000e+001
    endloop
  endfacet
  facet normal  -0.000000e+000  0.000000e+000 -1.000000e+000
    outer loop
      vertex  3.160000e+001  2.000000e+000  1.610000e+001
      vertex  1.160000e+001  0.000000e+000  1.610000e+001
      vertex  1.160000e+001  2.000000e+000  1.610000e+001
    endloop
  endfacet
  facet normal  0.000000e+000  0.000000e+000  1.000000e+000
    outer loop
      vertex  1.160000e+001  2.000000e+000  1.610000e+001
      vertex  1.160000e+001  2.900000e+001  1.610000e+001
      vertex  2.000000e+000  2.000000e+000  1.610000e+001
    endloop
  endfacet
  facet normal  0.000000e+000  0.000000e+000  1.000000e+000
    outer loop
      vertex  2.000000e+000  2.000000e+000  1.610000e+001
      vertex  1.160000e+001  2.900000e+001  1.610000e+001
      vertex  2.000000e+000  2.900000e+001  1.610000e+001
    endloop
  endfacet
  facet normal  0.000000e+000  0.000000e+000  1.000000e+000
    outer loop
      vertex  1.160000e+001  4.600000e+001  1.610000e+001
      vertex  1.160000e+001  7.300000e+001  1.610000e+001
      vertex  2.000000e+000  4.600000e+001  1.610000e+001
    endloop
  endfacet
  facet normal  0.000000e+000  0.000000e+000  1.000000e+000
    outer loop
      vertex  2.000000e+000  4.600000e+001  1.610000e+001
      vertex  1.160000e+001  7.300000e+001  1.610000e+001
      vertex  2.000000e+000  7.300000e+001  1.610000e+001
    endloop
  endfacet
endsolid CATIA STL
