solid CATIA STL
  facet normal  -0.000000e+000  0.000000e+000  1.000000e+000
    outer loop
      vertex  1.160000e+001  4.600000e+001  2.000000e+000
      vertex  2.000000e+000  4.600000e+001  2.000000e+000
      vertex  1.160000e+001  4.050000e+001  2.000000e+000
    endloop
  endfacet
  facet normal  0.000000e+000  0.000000e+000  1.000000e+000
    outer loop
      vertex  1.160000e+001  4.050000e+001  2.000000e+000
      vertex  2.000000e+000  4.600000e+001  2.000000e+000
      vertex  2.000000e+000  4.050000e+001  2.000000e+000
    endloop
  endfacet
  facet normal  -0.000000e+000  0.000000e+000  1.000000e+000
    outer loop
      vertex  1.160000e+001  3.450000e+001  2.000000e+000
      vertex  2.000000e+000  3.450000e+001  2.000000e+000
      vertex  1.160000e+001  2.900000e+001  2.000000e+000
    endloop
  endfacet
  facet normal  0.000000e+000  0.000000e+000  1.000000e+000
    outer loop
      vertex  1.160000e+001  2.900000e+001  2.000000e+000
      vertex  2.000000e+000  3.450000e+001  2.000000e+000
      vertex  2.000000e+000  2.900000e+001  2.000000e+000
    endloop
  endfacet
  facet normal  0.000000e+000  0.000000e+000  1.000000e+000
    outer loop
      vertex  7.000000e+000  4.050000e+001  4.000000e+000
      vertex  7.000000e+000  3.450000e+001  4.000000e+000
      vertex  1.366477e+001  3.867275e+001  4.000000e+000
    endloop
  endfacet
  facet normal  0.000000e+000  -0.000000e+000  1.000000e+000
    outer loop
      vertex  7.000000e+000  4.050000e+001  4.000000e+000
      vertex  1.366477e+001  3.867275e+001  4.000000e+000
      vertex  1.426622e+001  3.896239e+001  4.000000e+000
    endloop
  endfacet
  facet normal  0.000000e+000  -0.000000e+000  1.000000e+000
    outer loop
      vertex  7.000000e+000  4.050000e+001  4.000000e+000
      vertex  1.426622e+001  3.896239e+001  4.000000e+000
      vertex  1.493378e+001  3.896239e+001  4.000000e+000
    endloop
  endfacet
  facet normal  0.000000e+000  -0.000000e+000  1.000000e+000
    outer loop
      vertex  7.000000e+000  4.050000e+001  4.000000e+000
      vertex  1.493378e+001  3.896239e+001  4.000000e+000
      vertex  1.760000e+001  4.050000e+001  4.000000e+000
    endloop
  endfacet
  facet normal  0.000000e+000  0.000000e+000  1.000000e+000
    outer loop
      vertex  7.000000e+000  3.450000e+001  4.000000e+000
      vertex  1.760000e+001  3.450000e+001  4.000000e+000
      vertex  1.493378e+001  3.603761e+001  4.000000e+000
    endloop
  endfacet
  facet normal  0.000000e+000  0.000000e+000  1.000000e+000
    outer loop
      vertex  7.000000e+000  3.450000e+001  4.000000e+000
      vertex  1.493378e+001  3.603761e+001  4.000000e+000
      vertex  1.426622e+001  3.603761e+001  4.000000e+000
    endloop
  endfacet
  facet normal  0.000000e+000  0.000000e+000  1.000000e+000
    outer loop
      vertex  7.000000e+000  3.450000e+001  4.000000e+000
      vertex  1.426622e+001  3.603761e+001  4.000000e+000
      vertex  1.366477e+001  3.632725e+001  4.000000e+000
    endloop
  endfacet
  facet normal  0.000000e+000  0.000000e+000  1.000000e+000
    outer loop
      vertex  7.000000e+000  3.450000e+001  4.000000e+000
      vertex  1.366477e+001  3.632725e+001  4.000000e+000
      vertex  1.324855e+001  3.684917e+001  4.000000e+000
    endloop
  endfacet
  facet normal  0.000000e+000  0.000000e+000  1.000000e+000
    outer loop
      vertex  7.000000e+000  3.450000e+001  4.000000e+000
      vertex  1.324855e+001  3.684917e+001  4.000000e+000
      vertex  1.310000e+001  3.750000e+001  4.000000e+000
    endloop
  endfacet
  facet normal  0.000000e+000  -0.000000e+000  1.000000e+000
    outer loop
      vertex  7.000000e+000  3.450000e+001  4.000000e+000
      vertex  1.310000e+001  3.750000e+001  4.000000e+000
      vertex  1.324855e+001  3.815083e+001  4.000000e+000
    endloop
  endfacet
  facet normal  0.000000e+000  -0.000000e+000  1.000000e+000
    outer loop
      vertex  7.000000e+000  3.450000e+001  4.000000e+000
      vertex  1.324855e+001  3.815083e+001  4.000000e+000
      vertex  1.366477e+001  3.867275e+001  4.000000e+000
    endloop
  endfacet
  facet normal  0.000000e+000  0.000000e+000  1.000000e+000
    outer loop
      vertex  1.760000e+001  3.450000e+001  4.000000e+000
      vertex  1.595145e+001  3.815083e+001  4.000000e+000
      vertex  1.610000e+001  3.750000e+001  4.000000e+000
    endloop
  endfacet
  facet normal  0.000000e+000  0.000000e+000  1.000000e+000
    outer loop
      vertex  1.760000e+001  3.450000e+001  4.000000e+000
      vertex  1.610000e+001  3.750000e+001  4.000000e+000
      vertex  1.595145e+001  3.684917e+001  4.000000e+000
    endloop
  endfacet
  facet normal  0.000000e+000  0.000000e+000  1.000000e+000
    outer loop
      vertex  1.760000e+001  3.450000e+001  4.000000e+000
      vertex  1.595145e+001  3.684917e+001  4.000000e+000
      vertex  1.553523e+001  3.632725e+001  4.000000e+000
    endloop
  endfacet
  facet normal  0.000000e+000  0.000000e+000  1.000000e+000
    outer loop
      vertex  1.760000e+001  3.450000e+001  4.000000e+000
      vertex  1.553523e+001  3.632725e+001  4.000000e+000
      vertex  1.493378e+001  3.603761e+001  4.000000e+000
    endloop
  endfacet
  facet normal  -0.000000e+000  0.000000e+000  1.000000e+000
    outer loop
      vertex  1.760000e+001  4.050000e+001  4.000000e+000
      vertex  1.493378e+001  3.896239e+001  4.000000e+000
      vertex  1.553523e+001  3.867275e+001  4.000000e+000
    endloop
  endfacet
  facet normal  -0.000000e+000  0.000000e+000  1.000000e+000
    outer loop
      vertex  1.760000e+001  4.050000e+001  4.000000e+000
      vertex  1.553523e+001  3.867275e+001  4.000000e+000
      vertex  1.595145e+001  3.815083e+001  4.000000e+000
    endloop
  endfacet
  facet normal  -0.000000e+000  0.000000e+000  1.000000e+000
    outer loop
      vertex  1.760000e+001  4.050000e+001  4.000000e+000
      vertex  1.595145e+001  3.815083e+001  4.000000e+000
      vertex  1.760000e+001  3.450000e+001  4.000000e+000
    endloop
  endfacet
  facet normal  1.000000e+000  0.000000e+000  0.000000e+000
    outer loop
      vertex  2.000000e+000  7.300000e+001  4.160000e+001
      vertex  2.000000e+000  2.000000e+000  1.610000e+001
      vertex  2.000000e+000  2.900000e+001  1.610000e+001
    endloop
  endfacet
  facet normal  1.000000e+000  0.000000e+000  0.000000e+000
    outer loop
      vertex  2.000000e+000  7.300000e+001  4.160000e+001
      vertex  2.000000e+000  2.900000e+001  1.610000e+001
      vertex  2.000000e+000  4.600000e+001  1.610000e+001
    endloop
  endfacet
  facet normal  1.000000e+000  0.000000e+000  0.000000e+000
    outer loop
      vertex  2.000000e+000  7.300000e+001  4.160000e+001
      vertex  2.000000e+000  4.600000e+001  1.610000e+001
      vertex  2.000000e+000  7.300000e+001  1.610000e+001
    endloop
  endfacet
  facet normal  9.999999e-001  0.000000e+000  0.000000e+000
    outer loop
      vertex  2.000000e+000  2.000000e+000  1.610000e+001
      vertex  2.000000e+000  7.300000e+001  4.160000e+001
      vertex  2.000000e+000  7.100000e+001  4.160000e+001
    endloop
  endfacet
  facet normal  1.000000e+000  0.000000e+000  0.000000e+000
    outer loop
      vertex  2.000000e+000  2.000000e+000  1.610000e+001
      vertex  2.000000e+000  7.100000e+001  4.160000e+001
      vertex  2.000000e+000  6.125000e+001  4.160000e+001
    endloop
  endfacet
  facet normal  9.999999e-001  0.000000e+000  0.000000e+000
    outer loop
      vertex  2.000000e+000  2.000000e+000  1.610000e+001
      vertex  2.000000e+000  6.125000e+001  4.160000e+001
      vertex  2.000000e+000  5.925000e+001  4.160000e+001
    endloop
  endfacet
  facet normal  1.000000e+000  0.000000e+000  0.000000e+000
    outer loop
      vertex  2.000000e+000  2.000000e+000  1.610000e+001
      vertex  2.000000e+000  5.925000e+001  4.160000e+001
      vertex  2.000000e+000  1.575000e+001  4.160000e+001
    endloop
  endfacet
  facet normal  9.999999e-001  0.000000e+000  0.000000e+000
    outer loop
      vertex  2.000000e+000  2.000000e+000  1.610000e+001
      vertex  2.000000e+000  1.575000e+001  4.160000e+001
      vertex  2.000000e+000  1.375000e+001  4.160000e+001
    endloop
  endfacet
  facet normal  1.000000e+000  0.000000e+000  0.000000e+000
    outer loop
      vertex  2.000000e+000  2.000000e+000  1.610000e+001
      vertex  2.000000e+000  1.375000e+001  4.160000e+001
      vertex  2.000000e+000  4.000000e+000  4.160000e+001
    endloop
  endfacet
  facet normal  9.999999e-001  0.000000e+000  0.000000e+000
    outer loop
      vertex  2.000000e+000  2.000000e+000  1.610000e+001
      vertex  2.000000e+000  4.000000e+000  4.160000e+001
      vertex  2.000000e+000  2.000000e+000  4.160000e+001
    endloop
  endfacet
  facet normal  1.000000e+000  0.000000e+000  0.000000e+000
    outer loop
      vertex  2.000000e+000  4.050000e+001  2.000000e+000
      vertex  2.000000e+000  4.600000e+001  2.000000e+000
      vertex  2.000000e+000  4.050000e+001  9.000000e+000
    endloop
  endfacet
  facet normal  1.000000e+000  -0.000000e+000  0.000000e+000
    outer loop
      vertex  2.000000e+000  4.050000e+001  9.000000e+000
      vertex  2.000000e+000  4.600000e+001  2.000000e+000
      vertex  2.000000e+000  4.600000e+001  1.610000e+001
    endloop
  endfacet
  facet normal  1.000000e+000  0.000000e+000  0.000000e+000
    outer loop
      vertex  2.000000e+000  4.050000e+001  9.000000e+000
      vertex  2.000000e+000  4.600000e+001  1.610000e+001
      vertex  2.000000e+000  3.450000e+001  9.000000e+000
    endloop
  endfacet
  facet normal  1.000000e+000  0.000000e+000  -0.000000e+000
    outer loop
      vertex  2.000000e+000  3.450000e+001  9.000000e+000
      vertex  2.000000e+000  4.600000e+001  1.610000e+001
      vertex  2.000000e+000  2.900000e+001  1.610000e+001
    endloop
  endfacet
  facet normal  1.000000e+000  0.000000e+000  0.000000e+000
    outer loop
      vertex  2.000000e+000  3.450000e+001  9.000000e+000
      vertex  2.000000e+000  2.900000e+001  1.610000e+001
      vertex  2.000000e+000  3.450000e+001  2.000000e+000
    endloop
  endfacet
  facet normal  1.000000e+000  0.000000e+000  0.000000e+000
    outer loop
      vertex  2.000000e+000  3.450000e+001  2.000000e+000
      vertex  2.000000e+000  2.900000e+001  1.610000e+001
      vertex  2.000000e+000  2.900000e+001  2.000000e+000
    endloop
  endfacet
  facet normal  1.000000e+000  0.000000e+000  0.000000e+000
    outer loop
      vertex  2.000000e+000  6.125000e+001  4.160000e+001
      vertex  2.000000e+000  7.100000e+001  4.160000e+001
      vertex  2.000000e+000  6.125000e+001  6.160000e+001
    endloop
  endfacet
  facet normal  1.000000e+000  -0.000000e+000  0.000000e+000
    outer loop
      vertex  2.000000e+000  6.125000e+001  6.160000e+001
      vertex  2.000000e+000  7.100000e+001  4.160000e+001
      vertex  2.000000e+000  7.100000e+001  6.160000e+001
    endloop
  endfacet
  facet normal  1.000000e+000  0.000000e+000  0.000000e+000
    outer loop
      vertex  2.000000e+000  1.575000e+001  4.160000e+001
      vertex  2.000000e+000  5.925000e+001  4.160000e+001
      vertex  2.000000e+000  1.575000e+001  6.160000e+001
    endloop
  endfacet
  facet normal  1.000000e+000  -0.000000e+000  0.000000e+000
    outer loop
      vertex  2.000000e+000  1.575000e+001  6.160000e+001
      vertex  2.000000e+000  5.925000e+001  4.160000e+001
      vertex  2.000000e+000  5.925000e+001  6.160000e+001
    endloop
  endfacet
  facet normal  1.000000e+000  0.000000e+000  0.000000e+000
    outer loop
      vertex  2.000000e+000  4.000000e+000  4.160000e+001
      vertex  2.000000e+000  1.375000e+001  4.160000e+001
      vertex  2.000000e+000  4.000000e+000  6.160000e+001
    endloop
  endfacet
  facet normal  1.000000e+000  -0.000000e+000  0.000000e+000
    outer loop
      vertex  2.000000e+000  4.000000e+000  6.160000e+001
      vertex  2.000000e+000  1.375000e+001  4.160000e+001
      vertex  2.000000e+000  1.375000e+001  6.160000e+001
    endloop
  endfacet
  facet normal  0.000000e+000 -1.000000e+000  0.000000e+000
    outer loop
      vertex  7.000000e+000  3.450000e+001  4.000000e+000
      vertex  2.000000e+000  3.450000e+001  9.000000e+000
      vertex  2.000000e+000  3.450000e+001  2.000000e+000
    endloop
  endfacet
  facet normal  0.000000e+000 -1.000000e+000  0.000000e+000
    outer loop
      vertex  2.000000e+000  3.450000e+001  2.000000e+000
      vertex  1.160000e+001  3.450000e+001  2.000000e+000
      vertex  7.000000e+000  3.450000e+001  4.000000e+000
    endloop
  endfacet
  facet normal  0.000000e+000 -1.000000e+000  0.000000e+000
    outer loop
      vertex  7.000000e+000  3.450000e+001  4.000000e+000
      vertex  1.160000e+001  3.450000e+001  2.000000e+000
      vertex  1.760000e+001  3.450000e+001  2.000000e+000
    endloop
  endfacet
  facet normal  0.000000e+000 -1.000000e+000  0.000000e+000
    outer loop
      vertex  7.000000e+000  3.450000e+001  4.000000e+000
      vertex  1.760000e+001  3.450000e+001  2.000000e+000
      vertex  1.760000e+001  3.450000e+001  4.000000e+000
    endloop
  endfacet
  facet normal  0.000000e+000  1.000000e+000  0.000000e+000
    outer loop
      vertex  2.000000e+000  4.050000e+001  9.000000e+000
      vertex  7.000000e+000  4.050000e+001  4.000000e+000
      vertex  2.000000e+000  4.050000e+001  2.000000e+000
    endloop
  endfacet
  facet normal  0.000000e+000  1.000000e+000  0.000000e+000
    outer loop
      vertex  2.000000e+000  4.050000e+001  2.000000e+000
      vertex  7.000000e+000  4.050000e+001  4.000000e+000
      vertex  1.160000e+001  4.050000e+001  2.000000e+000
    endloop
  endfacet
  facet normal  0.000000e+000  1.000000e+000  -0.000000e+000
    outer loop
      vertex  1.160000e+001  4.050000e+001  2.000000e+000
      vertex  7.000000e+000  4.050000e+001  4.000000e+000
      vertex  1.760000e+001  4.050000e+001  4.000000e+000
    endloop
  endfacet
  facet normal  0.000000e+000  1.000000e+000  0.000000e+000
    outer loop
      vertex  1.160000e+001  4.050000e+001  2.000000e+000
      vertex  1.760000e+001  4.050000e+001  4.000000e+000
      vertex  1.760000e+001  4.050000e+001  2.000000e+000
    endloop
  endfacet
  facet normal  0.000000e+000 -1.000000e+000  0.000000e+000
    outer loop
      vertex  1.160000e+001  4.600000e+001  1.610000e+001
      vertex  2.000000e+000  4.600000e+001  1.610000e+001
      vertex  1.160000e+001  4.600000e+001  2.000000e+000
    endloop
  endfacet
  facet normal  0.000000e+000 -1.000000e+000  0.000000e+000
    outer loop
      vertex  1.160000e+001  4.600000e+001  2.000000e+000
      vertex  2.000000e+000  4.600000e+001  1.610000e+001
      vertex  2.000000e+000  4.600000e+001  2.000000e+000
    endloop
  endfacet
  facet normal  0.000000e+000  1.000000e+000  -0.000000e+000
    outer loop
      vertex  1.160000e+001  2.900000e+001  1.610000e+001
      vertex  1.160000e+001  2.900000e+001  2.000000e+000
      vertex  2.000000e+000  2.900000e+001  1.610000e+001
    endloop
  endfacet
  facet normal  0.000000e+000  1.000000e+000  0.000000e+000
    outer loop
      vertex  2.000000e+000  2.900000e+001  1.610000e+001
      vertex  1.160000e+001  2.900000e+001  2.000000e+000
      vertex  2.000000e+000  2.900000e+001  2.000000e+000
    endloop
  endfacet
  facet normal  7.071068e-001  0.000000e+000  7.071068e-001
    outer loop
      vertex  7.000000e+000  4.050000e+001  4.000000e+000
      vertex  2.000000e+000  4.050000e+001  9.000000e+000
      vertex  7.000000e+000  3.450000e+001  4.000000e+000
    endloop
  endfacet
  facet normal  7.071068e-001  0.000000e+000  7.071068e-001
    outer loop
      vertex  7.000000e+000  3.450000e+001  4.000000e+000
      vertex  2.000000e+000  4.050000e+001  9.000000e+000
      vertex  2.000000e+000  3.450000e+001  9.000000e+000
    endloop
  endfacet
  facet normal  1.000000e+000  0.000000e+000  0.000000e+000
    outer loop
      vertex  1.060000e+001  6.400000e+001  3.000000e+000
      vertex  1.060000e+001  7.200000e+001  3.000000e+000
      vertex  1.060000e+001  6.400000e+001  1.300000e+001
    endloop
  endfacet
  facet normal  1.000000e+000  -0.000000e+000  0.000000e+000
    outer loop
      vertex  1.060000e+001  6.400000e+001  1.300000e+001
      vertex  1.060000e+001  7.200000e+001  3.000000e+000
      vertex  1.060000e+001  7.200000e+001  1.300000e+001
    endloop
  endfacet
  facet normal  7.071068e-001  0.000000e+000  7.071068e-001
    outer loop
      vertex  1.160000e+001  6.300000e+001  2.000000e+000
      vertex  1.160000e+001  7.300000e+001  2.000000e+000
      vertex  1.060000e+001  6.400000e+001  3.000000e+000
    endloop
  endfacet
  facet normal  7.071068e-001  -0.000000e+000  7.071068e-001
    outer loop
      vertex  1.060000e+001  6.400000e+001  3.000000e+000
      vertex  1.160000e+001  7.300000e+001  2.000000e+000
      vertex  1.060000e+001  7.200000e+001  3.000000e+000
    endloop
  endfacet
  facet normal  7.071068e-001  7.071068e-001  0.000000e+000
    outer loop
      vertex  1.160000e+001  6.300000e+001  2.000000e+000
      vertex  1.060000e+001  6.400000e+001  3.000000e+000
      vertex  1.160000e+001  6.300000e+001  1.400000e+001
    endloop
  endfacet
  facet normal  7.071068e-001  7.071068e-001  0.000000e+000
    outer loop
      vertex  1.160000e+001  6.300000e+001  1.400000e+001
      vertex  1.060000e+001  6.400000e+001  3.000000e+000
      vertex  1.060000e+001  6.400000e+001  1.300000e+001
    endloop
  endfacet
  facet normal  7.071068e-001  0.000000e+000 -7.071068e-001
    outer loop
      vertex  1.160000e+001  7.300000e+001  1.400000e+001
      vertex  1.160000e+001  6.300000e+001  1.400000e+001
      vertex  1.060000e+001  7.200000e+001  1.300000e+001
    endloop
  endfacet
  facet normal  7.071068e-001  0.000000e+000 -7.071068e-001
    outer loop
      vertex  1.060000e+001  7.200000e+001  1.300000e+001
      vertex  1.160000e+001  6.300000e+001  1.400000e+001
      vertex  1.060000e+001  6.400000e+001  1.300000e+001
    endloop
  endfacet
  facet normal  7.071068e-001 -7.071068e-001  0.000000e+000
    outer loop
      vertex  1.160000e+001  7.300000e+001  1.400000e+001
      vertex  1.060000e+001  7.200000e+001  1.300000e+001
      vertex  1.160000e+001  7.300000e+001  2.000000e+000
    endloop
  endfacet
  facet normal  7.071068e-001 -7.071068e-001  0.000000e+000
    outer loop
      vertex  1.160000e+001  7.300000e+001  2.000000e+000
      vertex  1.060000e+001  7.200000e+001  1.300000e+001
      vertex  1.060000e+001  7.200000e+001  3.000000e+000
    endloop
  endfacet
  facet normal  1.000000e+000  0.000000e+000  0.000000e+000
    outer loop
      vertex  1.060000e+001  3.000000e+000  3.000000e+000
      vertex  1.060000e+001  1.100000e+001  3.000000e+000
      vertex  1.060000e+001  3.000000e+000  1.300000e+001
    endloop
  endfacet
  facet normal  1.000000e+000  -0.000000e+000  0.000000e+000
    outer loop
      vertex  1.060000e+001  3.000000e+000  1.300000e+001
      vertex  1.060000e+001  1.100000e+001  3.000000e+000
      vertex  1.060000e+001  1.100000e+001  1.300000e+001
    endloop
  endfacet
  facet normal  1.000000e+000  0.000000e+000  0.000000e+000
    outer loop
      vertex  1.160000e+001  0.000000e+000  2.220446e-016
      vertex  1.160000e+001  7.500000e+001  2.220446e-016
      vertex  1.160000e+001  7.300000e+001  2.000000e+000
    endloop
  endfacet
  facet normal  1.000000e+000  0.000000e+000  0.000000e+000
    outer loop
      vertex  1.160000e+001  0.000000e+000  2.220446e-016
      vertex  1.160000e+001  7.300000e+001  2.000000e+000
      vertex  1.160000e+001  6.300000e+001  2.000000e+000
    endloop
  endfacet
  facet normal  1.000000e+000  0.000000e+000  0.000000e+000
    outer loop
      vertex  1.160000e+001  0.000000e+000  2.220446e-016
      vertex  1.160000e+001  6.300000e+001  2.000000e+000
      vertex  1.160000e+001  4.600000e+001  2.000000e+000
    endloop
  endfacet
  facet normal  1.000000e+000  0.000000e+000  0.000000e+000
    outer loop
      vertex  1.160000e+001  0.000000e+000  2.220446e-016
      vertex  1.160000e+001  4.600000e+001  2.000000e+000
      vertex  1.160000e+001  4.050000e+001  2.000000e+000
    endloop
  endfacet
  facet normal  1.000000e+000  0.000000e+000  0.000000e+000
    outer loop
      vertex  1.160000e+001  0.000000e+000  2.220446e-016
      vertex  1.160000e+001  4.050000e+001  2.000000e+000
      vertex  1.160000e+001  3.750000e+001  2.000000e+000
    endloop
  endfacet
  facet normal  1.000000e+000  0.000000e+000  0.000000e+000
    outer loop
      vertex  1.160000e+001  0.000000e+000  2.220446e-016
      vertex  1.160000e+001  3.750000e+001  2.000000e+000
      vertex  1.160000e+001  3.450000e+001  2.000000e+000
    endloop
  endfacet
  facet normal  1.000000e+000  0.000000e+000  0.000000e+000
    outer loop
      vertex  1.160000e+001  0.000000e+000  2.220446e-016
      vertex  1.160000e+001  3.450000e+001  2.000000e+000
      vertex  1.160000e+001  2.900000e+001  2.000000e+000
    endloop
  endfacet
  facet normal  1.000000e+000  0.000000e+000  0.000000e+000
    outer loop
      vertex  1.160000e+001  0.000000e+000  2.220446e-016
      vertex  1.160000e+001  2.900000e+001  2.000000e+000
      vertex  1.160000e+001  1.200000e+001  2.000000e+000
    endloop
  endfacet
  facet normal  1.000000e+000  0.000000e+000  0.000000e+000
    outer loop
      vertex  1.160000e+001  0.000000e+000  2.220446e-016
      vertex  1.160000e+001  1.200000e+001  2.000000e+000
      vertex  1.160000e+001  2.000000e+000  2.000000e+000
    endloop
  endfacet
  facet normal  1.000000e+000  0.000000e+000  -0.000000e+000
    outer loop
      vertex  1.160000e+001  0.000000e+000  2.220446e-016
      vertex  1.160000e+001  2.000000e+000  2.000000e+000
      vertex  1.160000e+001  2.000000e+000  1.400000e+001
    endloop
  endfacet
  facet normal  1.000000e+000  0.000000e+000  0.000000e+000
    outer loop
      vertex  1.160000e+001  0.000000e+000  2.220446e-016
      vertex  1.160000e+001  2.000000e+000  1.400000e+001
      vertex  1.160000e+001  0.000000e+000  1.610000e+001
    endloop
  endfacet
  facet normal  1.000000e+000  0.000000e+000  0.000000e+000
    outer loop
      vertex  1.160000e+001  4.600000e+001  2.000000e+000
      vertex  1.160000e+001  6.300000e+001  2.000000e+000
      vertex  1.160000e+001  4.600000e+001  1.610000e+001
    endloop
  endfacet
  facet normal  1.000000e+000  0.000000e+000  0.000000e+000
    outer loop
      vertex  1.160000e+001  4.600000e+001  1.610000e+001
      vertex  1.160000e+001  6.300000e+001  2.000000e+000
      vertex  1.160000e+001  6.300000e+001  1.400000e+001
    endloop
  endfacet
  facet normal  9.999999e-001  0.000000e+000  -0.000000e+000
    outer loop
      vertex  1.160000e+001  4.600000e+001  1.610000e+001
      vertex  1.160000e+001  6.300000e+001  1.400000e+001
      vertex  1.160000e+001  7.300000e+001  1.610000e+001
    endloop
  endfacet
  facet normal  9.999999e-001  0.000000e+000  0.000000e+000
    outer loop
      vertex  1.160000e+001  7.300000e+001  1.610000e+001
      vertex  1.160000e+001  6.300000e+001  1.400000e+001
      vertex  1.160000e+001  7.300000e+001  1.400000e+001
    endloop
  endfacet
  facet normal  1.000000e+000  0.000000e+000  0.000000e+000
    outer loop
      vertex  1.160000e+001  7.300000e+001  1.610000e+001
      vertex  1.160000e+001  7.300000e+001  1.400000e+001
      vertex  1.160000e+001  7.500000e+001  1.610000e+001
    endloop
  endfacet
  facet normal  1.000000e+000  0.000000e+000  0.000000e+000
    outer loop
      vertex  1.160000e+001  1.200000e+001  2.000000e+000
      vertex  1.160000e+001  2.900000e+001  2.000000e+000
      vertex  1.160000e+001  1.200000e+001  1.400000e+001
    endloop
  endfacet
  facet normal  1.000000e+000  -0.000000e+000  0.000000e+000
    outer loop
      vertex  1.160000e+001  1.200000e+001  1.400000e+001
      vertex  1.160000e+001  2.900000e+001  2.000000e+000
      vertex  1.160000e+001  2.900000e+001  1.610000e+001
    endloop
  endfacet
  facet normal  1.000000e+000  0.000000e+000  0.000000e+000
    outer loop
      vertex  1.160000e+001  1.200000e+001  1.400000e+001
      vertex  1.160000e+001  2.900000e+001  1.610000e+001
      vertex  1.160000e+001  2.000000e+000  1.400000e+001
    endloop
  endfacet
  facet normal  1.000000e+000  0.000000e+000  0.000000e+000
    outer loop
      vertex  1.160000e+001  2.000000e+000  1.400000e+001
      vertex  1.160000e+001  2.900000e+001  1.610000e+001
      vertex  1.160000e+001  2.000000e+000  1.610000e+001
    endloop
  endfacet
  facet normal  1.000000e+000  0.000000e+000  0.000000e+000
    outer loop
      vertex  1.160000e+001  2.000000e+000  1.400000e+001
      vertex  1.160000e+001  2.000000e+000  1.610000e+001
      vertex  1.160000e+001  0.000000e+000  1.610000e+001
    endloop
  endfacet
  facet normal  1.000000e+000  0.000000e+000  0.000000e+000
    outer loop
      vertex  1.160000e+001  7.300000e+001  1.400000e+001
      vertex  1.160000e+001  7.300000e+001  2.000000e+000
      vertex  1.160000e+001  7.500000e+001  1.610000e+001
    endloop
  endfacet
  facet normal  1.000000e+000  0.000000e+000  0.000000e+000
    outer loop
      vertex  1.160000e+001  7.500000e+001  1.610000e+001
      vertex  1.160000e+001  7.300000e+001  2.000000e+000
      vertex  1.160000e+001  7.500000e+001  2.220446e-016
    endloop
  endfacet
  facet normal  7.071068e-001 -7.071068e-001  0.000000e+000
    outer loop
      vertex  1.160000e+001  1.200000e+001  2.000000e+000
      vertex  1.160000e+001  1.200000e+001  1.400000e+001
      vertex  1.060000e+001  1.100000e+001  3.000000e+000
    endloop
  endfacet
  facet normal  7.071068e-001 -7.071068e-001  0.000000e+000
    outer loop
      vertex  1.060000e+001  1.100000e+001  3.000000e+000
      vertex  1.160000e+001  1.200000e+001  1.400000e+001
      vertex  1.060000e+001  1.100000e+001  1.300000e+001
    endloop
  endfacet
  facet normal  7.071068e-001  0.000000e+000  7.071068e-001
    outer loop
      vertex  1.160000e+001  1.200000e+001  2.000000e+000
      vertex  1.060000e+001  1.100000e+001  3.000000e+000
      vertex  1.160000e+001  2.000000e+000  2.000000e+000
    endloop
  endfacet
  facet normal  7.071068e-001  0.000000e+000  7.071068e-001
    outer loop
      vertex  1.160000e+001  2.000000e+000  2.000000e+000
      vertex  1.060000e+001  1.100000e+001  3.000000e+000
      vertex  1.060000e+001  3.000000e+000  3.000000e+000
    endloop
  endfacet
  facet normal  7.071068e-001  7.071068e-001  -0.000000e+000
    outer loop
      vertex  1.160000e+001  2.000000e+000  1.400000e+001
      vertex  1.160000e+001  2.000000e+000  2.000000e+000
      vertex  1.060000e+001  3.000000e+000  1.300000e+001
    endloop
  endfacet
  facet normal  7.071068e-001  7.071068e-001  0.000000e+000
    outer loop
      vertex  1.060000e+001  3.000000e+000  1.300000e+001
      vertex  1.160000e+001  2.000000e+000  2.000000e+000
      vertex  1.060000e+001  3.000000e+000  3.000000e+000
    endloop
  endfacet
  facet normal  7.071068e-001  0.000000e+000 -7.071068e-001
    outer loop
      vertex  1.160000e+001  2.000000e+000  1.400000e+001
      vertex  1.060000e+001  3.000000e+000  1.300000e+001
      vertex  1.160000e+001  1.200000e+001  1.400000e+001
    endloop
  endfacet
  facet normal  7.071068e-001  0.000000e+000 -7.071068e-001
    outer loop
      vertex  1.160000e+001  1.200000e+001  1.400000e+001
      vertex  1.060000e+001  3.000000e+000  1.300000e+001
      vertex  1.060000e+001  1.100000e+001  1.300000e+001
    endloop
  endfacet
  facet normal  0.000000e+000  0.000000e+000 -1.000000e+000
    outer loop
      vertex  2.000000e+000  2.000000e+000  4.160000e+001
      vertex  2.000000e+000  4.000000e+000  4.160000e+001
      vertex  7.000000e+000  2.000000e+000  4.160000e+001
    endloop
  endfacet
  facet normal  0.000000e+000  0.000000e+000 -1.000000e+000
    outer loop
      vertex  7.000000e+000  2.000000e+000  4.160000e+001
      vertex  2.000000e+000  4.000000e+000  4.160000e+001
      vertex  5.000000e+000  4.000000e+000  4.160000e+001
    endloop
  endfacet
  facet normal  0.000000e+000  0.000000e+000 -9.999999e-001
    outer loop
      vertex  7.000000e+000  2.000000e+000  4.160000e+001
      vertex  5.000000e+000  4.000000e+000  4.160000e+001
      vertex  7.000000e+000  1.575000e+001  4.160000e+001
    endloop
  endfacet
  facet normal  0.000000e+000  0.000000e+000 -1.000000e+000
    outer loop
      vertex  7.000000e+000  1.575000e+001  4.160000e+001
      vertex  5.000000e+000  4.000000e+000  4.160000e+001
      vertex  5.000000e+000  1.375000e+001  4.160000e+001
    endloop
  endfacet
  facet normal  0.000000e+000  0.000000e+000 -1.000000e+000
    outer loop
      vertex  7.000000e+000  1.575000e+001  4.160000e+001
      vertex  5.000000e+000  1.375000e+001  4.160000e+001
      vertex  2.000000e+000  1.575000e+001  4.160000e+001
    endloop
  endfacet
  facet normal  0.000000e+000  0.000000e+000 -1.000000e+000
    outer loop
      vertex  2.000000e+000  1.575000e+001  4.160000e+001
      vertex  5.000000e+000  1.375000e+001  4.160000e+001
      vertex  2.000000e+000  1.375000e+001  4.160000e+001
    endloop
  endfacet
  facet normal  0.000000e+000  1.000000e+000  0.000000e+000
    outer loop
      vertex  7.000000e+000  1.575000e+001  4.160000e+001
      vertex  2.000000e+000  1.575000e+001  4.160000e+001
      vertex  7.000000e+000  1.575000e+001  6.160000e+001
    endloop
  endfacet
  facet normal  0.000000e+000  1.000000e+000  0.000000e+000
    outer loop
      vertex  7.000000e+000  1.575000e+001  6.160000e+001
      vertex  2.000000e+000  1.575000e+001  4.160000e+001
      vertex  2.000000e+000  1.575000e+001  6.160000e+001
    endloop
  endfacet
  facet normal  0.000000e+000  -0.000000e+000  1.000000e+000
    outer loop
      vertex  0.000000e+000  0.000000e+000  6.160000e+001
      vertex  2.000000e+000  4.000000e+000  6.160000e+001
      vertex  2.000000e+000  1.375000e+001  6.160000e+001
    endloop
  endfacet
  facet normal  0.000000e+000  -0.000000e+000  1.000000e+000
    outer loop
      vertex  0.000000e+000  0.000000e+000  6.160000e+001
      vertex  2.000000e+000  1.375000e+001  6.160000e+001
      vertex  2.000000e+000  1.575000e+001  6.160000e+001
    endloop
  endfacet
  facet normal  0.000000e+000  -0.000000e+000  1.000000e+000
    outer loop
      vertex  0.000000e+000  0.000000e+000  6.160000e+001
      vertex  2.000000e+000  1.575000e+001  6.160000e+001
      vertex  2.000000e+000  5.925000e+001  6.160000e+001
    endloop
  endfacet
  facet normal  0.000000e+000  -0.000000e+000  1.000000e+000
    outer loop
      vertex  0.000000e+000  0.000000e+000  6.160000e+001
      vertex  2.000000e+000  5.925000e+001  6.160000e+001
      vertex  2.000000e+000  6.125000e+001  6.160000e+001
    endloop
  endfacet
  facet normal  0.000000e+000  -0.000000e+000  1.000000e+000
    outer loop
      vertex  0.000000e+000  0.000000e+000  6.160000e+001
      vertex  2.000000e+000  6.125000e+001  6.160000e+001
      vertex  2.000000e+000  7.100000e+001  6.160000e+001
    endloop
  endfacet
  facet normal  0.000000e+000  0.000000e+000  1.000000e+000
    outer loop
      vertex  0.000000e+000  0.000000e+000  6.160000e+001
      vertex  2.000000e+000  7.100000e+001  6.160000e+001
      vertex  0.000000e+000  7.500000e+001  6.160000e+001
    endloop
  endfacet
  facet normal  0.000000e+000  0.000000e+000  1.000000e+000
    outer loop
      vertex  3.160000e+001  0.000000e+000  6.160000e+001
      vertex  3.160000e+001  2.000000e+000  6.160000e+001
      vertex  0.000000e+000  0.000000e+000  6.160000e+001
    endloop
  endfacet
  facet normal  0.000000e+000  0.000000e+000  1.000000e+000
    outer loop
      vertex  0.000000e+000  0.000000e+000  6.160000e+001
      vertex  3.160000e+001  2.000000e+000  6.160000e+001
      vertex  7.000000e+000  2.000000e+000  6.160000e+001
    endloop
  endfacet
  facet normal  0.000000e+000  0.000000e+000  1.000000e+000
    outer loop
      vertex  0.000000e+000  0.000000e+000  6.160000e+001
      vertex  7.000000e+000  2.000000e+000  6.160000e+001
      vertex  2.000000e+000  4.000000e+000  6.160000e+001
    endloop
  endfacet
  facet normal  -0.000000e+000  0.000000e+000  1.000000e+000
    outer loop
      vertex  2.000000e+000  4.000000e+000  6.160000e+001
      vertex  7.000000e+000  2.000000e+000  6.160000e+001
      vertex  5.000000e+000  4.000000e+000  6.160000e+001
    endloop
  endfacet
  facet normal  0.000000e+000  0.000000e+000  1.000000e+000
    outer loop
      vertex  5.000000e+000  4.000000e+000  6.160000e+001
      vertex  7.000000e+000  2.000000e+000  6.160000e+001
      vertex  5.000000e+000  1.375000e+001  6.160000e+001
    endloop
  endfacet
  facet normal  -0.000000e+000  0.000000e+000  9.999999e-001
    outer loop
      vertex  5.000000e+000  1.375000e+001  6.160000e+001
      vertex  7.000000e+000  2.000000e+000  6.160000e+001
      vertex  7.000000e+000  1.575000e+001  6.160000e+001
    endloop
  endfacet
  facet normal  0.000000e+000  0.000000e+000  1.000000e+000
    outer loop
      vertex  5.000000e+000  1.375000e+001  6.160000e+001
      vertex  7.000000e+000  1.575000e+001  6.160000e+001
      vertex  2.000000e+000  1.375000e+001  6.160000e+001
    endloop
  endfacet
  facet normal  0.000000e+000  0.000000e+000  1.000000e+000
    outer loop
      vertex  2.000000e+000  1.375000e+001  6.160000e+001
      vertex  7.000000e+000  1.575000e+001  6.160000e+001
      vertex  2.000000e+000  1.575000e+001  6.160000e+001
    endloop
  endfacet
  facet normal  0.000000e+000  -0.000000e+000  1.000000e+000
    outer loop
      vertex  0.000000e+000  7.500000e+001  6.160000e+001
      vertex  2.000000e+000  7.100000e+001  6.160000e+001
      vertex  7.000000e+000  7.300000e+001  6.160000e+001
    endloop
  endfacet
  facet normal  0.000000e+000  0.000000e+000  1.000000e+000
    outer loop
      vertex  7.000000e+000  7.300000e+001  6.160000e+001
      vertex  2.000000e+000  7.100000e+001  6.160000e+001
      vertex  5.000000e+000  7.100000e+001  6.160000e+001
    endloop
  endfacet
  facet normal  -0.000000e+000  0.000000e+000  9.999999e-001
    outer loop
      vertex  7.000000e+000  7.300000e+001  6.160000e+001
      vertex  5.000000e+000  7.100000e+001  6.160000e+001
      vertex  7.000000e+000  5.925000e+001  6.160000e+001
    endloop
  endfacet
  facet normal  0.000000e+000  0.000000e+000  1.000000e+000
    outer loop
      vertex  7.000000e+000  5.925000e+001  6.160000e+001
      vertex  5.000000e+000  7.100000e+001  6.160000e+001
      vertex  5.000000e+000  6.125000e+001  6.160000e+001
    endloop
  endfacet
  facet normal  0.000000e+000  0.000000e+000  1.000000e+000
    outer loop
      vertex  7.000000e+000  5.925000e+001  6.160000e+001
      vertex  5.000000e+000  6.125000e+001  6.160000e+001
      vertex  2.000000e+000  5.925000e+001  6.160000e+001
    endloop
  endfacet
  facet normal  0.000000e+000  0.000000e+000  1.000000e+000
    outer loop
      vertex  2.000000e+000  5.925000e+001  6.160000e+001
      vertex  5.000000e+000  6.125000e+001  6.160000e+001
      vertex  2.000000e+000  6.125000e+001  6.160000e+001
    endloop
  endfacet
  facet normal  0.000000e+000  -0.000000e+000  1.000000e+000
    outer loop
      vertex  0.000000e+000  7.500000e+001  6.160000e+001
      vertex  7.000000e+000  7.300000e+001  6.160000e+001
      vertex  3.160000e+001  7.500000e+001  6.160000e+001
    endloop
  endfacet
  facet normal  0.000000e+000  0.000000e+000  1.000000e+000
    outer loop
      vertex  3.160000e+001  7.500000e+001  6.160000e+001
      vertex  7.000000e+000  7.300000e+001  6.160000e+001
      vertex  3.160000e+001  7.300000e+001  6.160000e+001
    endloop
  endfacet
  facet normal  0.000000e+000 -1.000000e+000  -0.000000e+000
    outer loop
      vertex  7.000000e+000  5.925000e+001  4.160000e+001
      vertex  7.000000e+000  5.925000e+001  6.160000e+001
      vertex  2.000000e+000  5.925000e+001  4.160000e+001
    endloop
  endfacet
  facet normal  0.000000e+000 -1.000000e+000  0.000000e+000
    outer loop
      vertex  2.000000e+000  5.925000e+001  4.160000e+001
      vertex  7.000000e+000  5.925000e+001  6.160000e+001
      vertex  2.000000e+000  5.925000e+001  6.160000e+001
    endloop
  endfacet
  facet normal  0.000000e+000  0.000000e+000 -1.000000e+000
    outer loop
      vertex  2.000000e+000  5.925000e+001  4.160000e+001
      vertex  2.000000e+000  6.125000e+001  4.160000e+001
      vertex  7.000000e+000  5.925000e+001  4.160000e+001
    endloop
  endfacet
  facet normal  0.000000e+000  0.000000e+000 -1.000000e+000
    outer loop
      vertex  7.000000e+000  5.925000e+001  4.160000e+001
      vertex  2.000000e+000  6.125000e+001  4.160000e+001
      vertex  5.000000e+000  6.125000e+001  4.160000e+001
    endloop
  endfacet
  facet normal  0.000000e+000  0.000000e+000 -9.999999e-001
    outer loop
      vertex  7.000000e+000  5.925000e+001  4.160000e+001
      vertex  5.000000e+000  6.125000e+001  4.160000e+001
      vertex  7.000000e+000  7.300000e+001  4.160000e+001
    endloop
  endfacet
  facet normal  0.000000e+000  0.000000e+000 -1.000000e+000
    outer loop
      vertex  7.000000e+000  7.300000e+001  4.160000e+001
      vertex  5.000000e+000  6.125000e+001  4.160000e+001
      vertex  5.000000e+000  7.100000e+001  4.160000e+001
    endloop
  endfacet
  facet normal  0.000000e+000  0.000000e+000 -1.000000e+000
    outer loop
      vertex  7.000000e+000  7.300000e+001  4.160000e+001
      vertex  5.000000e+000  7.100000e+001  4.160000e+001
      vertex  2.000000e+000  7.300000e+001  4.160000e+001
    endloop
  endfacet
  facet normal  0.000000e+000  0.000000e+000 -1.000000e+000
    outer loop
      vertex  2.000000e+000  7.300000e+001  4.160000e+001
      vertex  5.000000e+000  7.100000e+001  4.160000e+001
      vertex  2.000000e+000  7.100000e+001  4.160000e+001
    endloop
  endfacet
  facet normal  1.000000e+000  0.000000e+000  0.000000e+000
    outer loop
      vertex  7.000000e+000  5.925000e+001  4.160000e+001
      vertex  7.000000e+000  7.300000e+001  4.160000e+001
      vertex  7.000000e+000  5.925000e+001  6.160000e+001
    endloop
  endfacet
  facet normal  1.000000e+000  -0.000000e+000  0.000000e+000
    outer loop
      vertex  7.000000e+000  5.925000e+001  6.160000e+001
      vertex  7.000000e+000  7.300000e+001  4.160000e+001
      vertex  7.000000e+000  7.300000e+001  6.160000e+001
    endloop
  endfacet
  facet normal -1.000000e+000  0.000000e+000  0.000000e+000
    outer loop
      vertex  5.000000e+000  6.125000e+001  4.160000e+001
      vertex  5.000000e+000  6.125000e+001  6.160000e+001
      vertex  5.000000e+000  7.100000e+001  4.160000e+001
    endloop
  endfacet
  facet normal -1.000000e+000  0.000000e+000  0.000000e+000
    outer loop
      vertex  5.000000e+000  7.100000e+001  4.160000e+001
      vertex  5.000000e+000  6.125000e+001  6.160000e+001
      vertex  5.000000e+000  7.100000e+001  6.160000e+001
    endloop
  endfacet
  facet normal -1.000000e+000  0.000000e+000  0.000000e+000
    outer loop
      vertex  5.000000e+000  4.000000e+000  4.160000e+001
      vertex  5.000000e+000  4.000000e+000  6.160000e+001
      vertex  5.000000e+000  1.375000e+001  4.160000e+001
    endloop
  endfacet
  facet normal -1.000000e+000  0.000000e+000  0.000000e+000
    outer loop
      vertex  5.000000e+000  1.375000e+001  4.160000e+001
      vertex  5.000000e+000  4.000000e+000  6.160000e+001
      vertex  5.000000e+000  1.375000e+001  6.160000e+001
    endloop
  endfacet
  facet normal  1.000000e+000  0.000000e+000  0.000000e+000
    outer loop
      vertex  7.000000e+000  2.000000e+000  4.160000e+001
      vertex  7.000000e+000  1.575000e+001  4.160000e+001
      vertex  7.000000e+000  2.000000e+000  6.160000e+001
    endloop
  endfacet
  facet normal  1.000000e+000  -0.000000e+000  0.000000e+000
    outer loop
      vertex  7.000000e+000  2.000000e+000  6.160000e+001
      vertex  7.000000e+000  1.575000e+001  4.160000e+001
      vertex  7.000000e+000  1.575000e+001  6.160000e+001
    endloop
  endfacet
  facet normal  0.000000e+000  1.000000e+000  0.000000e+000
    outer loop
      vertex  1.160000e+001  2.000000e+000  1.610000e+001
      vertex  2.000000e+000  2.000000e+000  1.610000e+001
      vertex  2.000000e+000  2.000000e+000  4.160000e+001
    endloop
  endfacet
  facet normal  0.000000e+000  1.000000e+000  -0.000000e+000
    outer loop
      vertex  3.160000e+001  2.000000e+000  1.610000e+001
      vertex  1.160000e+001  2.000000e+000  1.610000e+001
      vertex  2.000000e+000  2.000000e+000  4.160000e+001
    endloop
  endfacet
  facet normal  -0.000000e+000  1.000000e+000  0.000000e+000
    outer loop
      vertex  3.160000e+001  2.000000e+000  1.610000e+001
      vertex  2.000000e+000  2.000000e+000  4.160000e+001
      vertex  7.000000e+000  2.000000e+000  4.160000e+001
    endloop
  endfacet
  facet normal  -0.000000e+000  9.999999e-001  0.000000e+000
    outer loop
      vertex  3.160000e+001  2.000000e+000  1.610000e+001
      vertex  7.000000e+000  2.000000e+000  4.160000e+001
      vertex  7.000000e+000  2.000000e+000  6.160000e+001
    endloop
  endfacet
  facet normal  -0.000000e+000  1.000000e+000  0.000000e+000
    outer loop
      vertex  3.160000e+001  2.000000e+000  1.610000e+001
      vertex  7.000000e+000  2.000000e+000  6.160000e+001
      vertex  3.160000e+001  2.000000e+000  6.160000e+001
    endloop
  endfacet
  facet normal  0.000000e+000 -1.000000e+000  0.000000e+000
    outer loop
      vertex  2.000000e+000  7.300000e+001  4.160000e+001
      vertex  2.000000e+000  7.300000e+001  1.610000e+001
      vertex  1.160000e+001  7.300000e+001  1.610000e+001
    endloop
  endfacet
  facet normal  -0.000000e+000 -1.000000e+000  -0.000000e+000
    outer loop
      vertex  3.160000e+001  7.300000e+001  1.610000e+001
      vertex  3.160000e+001  7.300000e+001  6.160000e+001
      vertex  7.000000e+000  7.300000e+001  6.160000e+001
    endloop
  endfacet
  facet normal  0.000000e+000 -9.999999e-001  0.000000e+000
    outer loop
      vertex  3.160000e+001  7.300000e+001  1.610000e+001
      vertex  7.000000e+000  7.300000e+001  6.160000e+001
      vertex  7.000000e+000  7.300000e+001  4.160000e+001
    endloop
  endfacet
  facet normal  -0.000000e+000 -1.000000e+000  -0.000000e+000
    outer loop
      vertex  3.160000e+001  7.300000e+001  1.610000e+001
      vertex  7.000000e+000  7.300000e+001  4.160000e+001
      vertex  2.000000e+000  7.300000e+001  4.160000e+001
    endloop
  endfacet
  facet normal  0.000000e+000 -1.000000e+000  0.000000e+000
    outer loop
      vertex  3.160000e+001  7.300000e+001  1.610000e+001
      vertex  2.000000e+000  7.300000e+001  4.160000e+001
      vertex  1.160000e+001  7.300000e+001  1.610000e+001
    endloop
  endfacet
  facet normal  0.000000e+000  1.000000e+000  0.000000e+000
    outer loop
      vertex  5.000000e+000  6.125000e+001  4.160000e+001
      vertex  2.000000e+000  6.125000e+001  4.160000e+001
      vertex  5.000000e+000  6.125000e+001  6.160000e+001
    endloop
  endfacet
  facet normal  0.000000e+000  1.000000e+000  0.000000e+000
    outer loop
      vertex  5.000000e+000  6.125000e+001  6.160000e+001
      vertex  2.000000e+000  6.125000e+001  4.160000e+001
      vertex  2.000000e+000  6.125000e+001  6.160000e+001
    endloop
  endfacet
  facet normal  0.000000e+000  1.000000e+000  -0.000000e+000
    outer loop
      vertex  5.000000e+000  4.000000e+000  6.160000e+001
      vertex  5.000000e+000  4.000000e+000  4.160000e+001
      vertex  2.000000e+000  4.000000e+000  6.160000e+001
    endloop
  endfacet
  facet normal  0.000000e+000  1.000000e+000  0.000000e+000
    outer loop
      vertex  2.000000e+000  4.000000e+000  6.160000e+001
      vertex  5.000000e+000  4.000000e+000  4.160000e+001
      vertex  2.000000e+000  4.000000e+000  4.160000e+001
    endloop
  endfacet
  facet normal  0.000000e+000 -1.000000e+000  0.000000e+000
    outer loop
      vertex  5.000000e+000  7.100000e+001  6.160000e+001
      vertex  2.000000e+000  7.100000e+001  6.160000e+001
      vertex  5.000000e+000  7.100000e+001  4.160000e+001
    endloop
  endfacet
  facet normal  0.000000e+000 -1.000000e+000  0.000000e+000
    outer loop
      vertex  5.000000e+000  7.100000e+001  4.160000e+001
      vertex  2.000000e+000  7.100000e+001  6.160000e+001
      vertex  2.000000e+000  7.100000e+001  4.160000e+001
    endloop
  endfacet
  facet normal  0.000000e+000 -1.000000e+000  -0.000000e+000
    outer loop
      vertex  5.000000e+000  1.375000e+001  4.160000e+001
      vertex  5.000000e+000  1.375000e+001  6.160000e+001
      vertex  2.000000e+000  1.375000e+001  4.160000e+001
    endloop
  endfacet
  facet normal  0.000000e+000 -1.000000e+000  0.000000e+000
    outer loop
      vertex  2.000000e+000  1.375000e+001  4.160000e+001
      vertex  5.000000e+000  1.375000e+001  6.160000e+001
      vertex  2.000000e+000  1.375000e+001  6.160000e+001
    endloop
  endfacet
  facet normal  2.581914e-017  0.000000e+000 -1.000000e+000
    outer loop
      vertex  1.160000e+001  0.000000e+000  2.220446e-016
      vertex  3.000000e+000  0.000000e+000  0.000000e+000
      vertex  1.160000e+001  7.500000e+001  2.220446e-016
    endloop
  endfacet
  facet normal  2.581914e-017  0.000000e+000 -1.000000e+000
    outer loop
      vertex  1.160000e+001  7.500000e+001  2.220446e-016
      vertex  3.000000e+000  0.000000e+000  0.000000e+000
      vertex  3.000000e+000  7.500000e+001  0.000000e+000
    endloop
  endfacet
  facet normal -1.000000e+000  0.000000e+000  0.000000e+000
    outer loop
      vertex  0.000000e+000  0.000000e+000  3.000000e+000
      vertex  0.000000e+000  0.000000e+000  6.160000e+001
      vertex  0.000000e+000  7.500000e+001  3.000000e+000
    endloop
  endfacet
  facet normal -1.000000e+000  0.000000e+000  0.000000e+000
    outer loop
      vertex  0.000000e+000  7.500000e+001  3.000000e+000
      vertex  0.000000e+000  0.000000e+000  6.160000e+001
      vertex  0.000000e+000  7.500000e+001  6.160000e+001
    endloop
  endfacet
  facet normal  0.000000e+000  1.000000e+000  -0.000000e+000
    outer loop
      vertex  1.160000e+001  7.500000e+001  2.220446e-016
      vertex  3.000000e+000  7.500000e+001  0.000000e+000
      vertex  2.072949e+000  7.500000e+001  1.468305e-001
    endloop
  endfacet
  facet normal  -0.000000e+000  1.000000e+000  -0.000000e+000
    outer loop
      vertex  1.160000e+001  7.500000e+001  2.220446e-016
      vertex  2.072949e+000  7.500000e+001  1.468305e-001
      vertex  1.236644e+000  7.500000e+001  5.729490e-001
    endloop
  endfacet
  facet normal  -0.000000e+000  9.999999e-001  -0.000000e+000
    outer loop
      vertex  1.160000e+001  7.500000e+001  2.220446e-016
      vertex  1.236644e+000  7.500000e+001  5.729490e-001
      vertex  5.729490e-001  7.500000e+001  1.236644e+000
    endloop
  endfacet
  facet normal  -0.000000e+000  1.000000e+000  -0.000000e+000
    outer loop
      vertex  1.160000e+001  7.500000e+001  2.220446e-016
      vertex  5.729490e-001  7.500000e+001  1.236644e+000
      vertex  1.468305e-001  7.500000e+001  2.072949e+000
    endloop
  endfacet
  facet normal  -0.000000e+000  9.999999e-001  -0.000000e+000
    outer loop
      vertex  1.160000e+001  7.500000e+001  2.220446e-016
      vertex  1.468305e-001  7.500000e+001  2.072949e+000
      vertex  0.000000e+000  7.500000e+001  3.000000e+000
    endloop
  endfacet
  facet normal  -0.000000e+000  1.000000e+000  0.000000e+000
    outer loop
      vertex  1.160000e+001  7.500000e+001  2.220446e-016
      vertex  0.000000e+000  7.500000e+001  3.000000e+000
      vertex  0.000000e+000  7.500000e+001  6.160000e+001
    endloop
  endfacet
  facet normal  0.000000e+000  1.000000e+000  0.000000e+000
    outer loop
      vertex  1.160000e+001  7.500000e+001  2.220446e-016
      vertex  0.000000e+000  7.500000e+001  6.160000e+001
      vertex  1.160000e+001  7.500000e+001  1.610000e+001
    endloop
  endfacet
  facet normal  0.000000e+000  1.000000e+000  0.000000e+000
    outer loop
      vertex  3.160000e+001  7.500000e+001  1.610000e+001
      vertex  1.160000e+001  7.500000e+001  1.610000e+001
      vertex  3.160000e+001  7.500000e+001  6.160000e+001
    endloop
  endfacet
  facet normal  0.000000e+000  1.000000e+000  0.000000e+000
    outer loop
      vertex  3.160000e+001  7.500000e+001  6.160000e+001
      vertex  1.160000e+001  7.500000e+001  1.610000e+001
      vertex  0.000000e+000  7.500000e+001  6.160000e+001
    endloop
  endfacet
  facet normal  0.000000e+000 -1.000000e+000  0.000000e+000
    outer loop
      vertex  1.160000e+001  0.000000e+000  1.610000e+001
      vertex  3.160000e+001  0.000000e+000  1.610000e+001
      vertex  3.160000e+001  0.000000e+000  6.160000e+001
    endloop
  endfacet
  facet normal  -0.000000e+000 -1.000000e+000  0.000000e+000
    outer loop
      vertex  1.160000e+001  0.000000e+000  1.610000e+001
      vertex  3.160000e+001  0.000000e+000  6.160000e+001
      vertex  0.000000e+000  0.000000e+000  6.160000e+001
    endloop
  endfacet
  facet normal  0.000000e+000 -1.000000e+000  0.000000e+000
    outer loop
      vertex  1.160000e+001  0.000000e+000  1.610000e+001
      vertex  0.000000e+000  0.000000e+000  6.160000e+001
      vertex  0.000000e+000  0.000000e+000  3.000000e+000
    endloop
  endfacet
  facet normal  0.000000e+000 -1.000000e+000  0.000000e+000
    outer loop
      vertex  1.160000e+001  0.000000e+000  1.610000e+001
      vertex  0.000000e+000  0.000000e+000  3.000000e+000
      vertex  1.468305e-001  0.000000e+000  2.072949e+000
    endloop
  endfacet
  facet normal  0.000000e+000 -1.000000e+000  0.000000e+000
    outer loop
      vertex  1.160000e+001  0.000000e+000  1.610000e+001
      vertex  1.468305e-001  0.000000e+000  2.072949e+000
      vertex  5.729490e-001  0.000000e+000  1.236644e+000
    endloop
  endfacet
  facet normal  0.000000e+000 -1.000000e+000  0.000000e+000
    outer loop
      vertex  1.160000e+001  0.000000e+000  1.610000e+001
      vertex  5.729490e-001  0.000000e+000  1.236644e+000
      vertex  1.236644e+000  0.000000e+000  5.729490e-001
    endloop
  endfacet
  facet normal  0.000000e+000 -1.000000e+000  0.000000e+000
    outer loop
      vertex  1.160000e+001  0.000000e+000  1.610000e+001
      vertex  1.236644e+000  0.000000e+000  5.729490e-001
      vertex  2.072949e+000  0.000000e+000  1.468305e-001
    endloop
  endfacet
  facet normal  0.000000e+000 -1.000000e+000  0.000000e+000
    outer loop
      vertex  1.160000e+001  0.000000e+000  1.610000e+001
      vertex  2.072949e+000  0.000000e+000  1.468305e-001
      vertex  3.000000e+000  0.000000e+000  0.000000e+000
    endloop
  endfacet
  facet normal  0.000000e+000 -1.000000e+000  0.000000e+000
    outer loop
      vertex  1.160000e+001  0.000000e+000  1.610000e+001
      vertex  3.000000e+000  0.000000e+000  0.000000e+000
      vertex  1.160000e+001  0.000000e+000  2.220446e-016
    endloop
  endfacet
  facet normal -9.876884e-001  -0.000000e+000 -1.564345e-001
    outer loop
      vertex  0.000000e+000  0.000000e+000  3.000000e+000
      vertex  0.000000e+000  7.500000e+001  3.000000e+000
      vertex  1.468305e-001  0.000000e+000  2.072949e+000
    endloop
  endfacet
  facet normal -9.876884e-001  0.000000e+000 -1.564345e-001
    outer loop
      vertex  1.468305e-001  0.000000e+000  2.072949e+000
      vertex  0.000000e+000  7.500000e+001  3.000000e+000
      vertex  1.468305e-001  7.500000e+001  2.072949e+000
    endloop
  endfacet
  facet normal -8.910065e-001  -0.000000e+000 -4.539905e-001
    outer loop
      vertex  1.468305e-001  0.000000e+000  2.072949e+000
      vertex  1.468305e-001  7.500000e+001  2.072949e+000
      vertex  5.729490e-001  0.000000e+000  1.236644e+000
    endloop
  endfacet
  facet normal -8.910065e-001  0.000000e+000 -4.539905e-001
    outer loop
      vertex  5.729490e-001  0.000000e+000  1.236644e+000
      vertex  1.468305e-001  7.500000e+001  2.072949e+000
      vertex  5.729490e-001  7.500000e+001  1.236644e+000
    endloop
  endfacet
  facet normal -7.071068e-001  -0.000000e+000 -7.071068e-001
    outer loop
      vertex  5.729490e-001  0.000000e+000  1.236644e+000
      vertex  5.729490e-001  7.500000e+001  1.236644e+000
      vertex  1.236644e+000  0.000000e+000  5.729490e-001
    endloop
  endfacet
  facet normal -7.071068e-001  0.000000e+000 -7.071068e-001
    outer loop
      vertex  1.236644e+000  0.000000e+000  5.729490e-001
      vertex  5.729490e-001  7.500000e+001  1.236644e+000
      vertex  1.236644e+000  7.500000e+001  5.729490e-001
    endloop
  endfacet
  facet normal -4.539905e-001  -0.000000e+000 -8.910065e-001
    outer loop
      vertex  1.236644e+000  0.000000e+000  5.729490e-001
      vertex  1.236644e+000  7.500000e+001  5.729490e-001
      vertex  2.072949e+000  0.000000e+000  1.468305e-001
    endloop
  endfacet
  facet normal -4.539905e-001  0.000000e+000 -8.910065e-001
    outer loop
      vertex  2.072949e+000  0.000000e+000  1.468305e-001
      vertex  1.236644e+000  7.500000e+001  5.729490e-001
      vertex  2.072949e+000  7.500000e+001  1.468305e-001
    endloop
  endfacet
  facet normal -1.564345e-001  -0.000000e+000 -9.876884e-001
    outer loop
      vertex  2.072949e+000  0.000000e+000  1.468305e-001
      vertex  2.072949e+000  7.500000e+001  1.468305e-001
      vertex  3.000000e+000  0.000000e+000  0.000000e+000
    endloop
  endfacet
  facet normal -1.564345e-001  0.000000e+000 -9.876884e-001
    outer loop
      vertex  3.000000e+000  0.000000e+000  0.000000e+000
      vertex  2.072949e+000  7.500000e+001  1.468305e-001
      vertex  3.000000e+000  7.500000e+001  0.000000e+000
    endloop
  endfacet
  facet normal  0.000000e+000  0.000000e+000 -1.000000e+000
    outer loop
      vertex  1.324855e+001  3.684917e+001  2.000000e+000
      vertex  1.160000e+001  3.750000e+001  2.000000e+000
      vertex  1.310000e+001  3.750000e+001  2.000000e+000
    endloop
  endfacet
  facet normal  -0.000000e+000  0.000000e+000 -1.000000e+000
    outer loop
      vertex  1.160000e+001  4.050000e+001  2.000000e+000
      vertex  1.760000e+001  4.050000e+001  2.000000e+000
      vertex  1.493378e+001  3.896239e+001  2.000000e+000
    endloop
  endfacet
  facet normal  0.000000e+000  0.000000e+000 -1.000000e+000
    outer loop
      vertex  1.160000e+001  4.050000e+001  2.000000e+000
      vertex  1.493378e+001  3.896239e+001  2.000000e+000
      vertex  1.426622e+001  3.896239e+001  2.000000e+000
    endloop
  endfacet
  facet normal  -0.000000e+000  0.000000e+000 -1.000000e+000
    outer loop
      vertex  1.160000e+001  4.050000e+001  2.000000e+000
      vertex  1.426622e+001  3.896239e+001  2.000000e+000
      vertex  1.366477e+001  3.867275e+001  2.000000e+000
    endloop
  endfacet
  facet normal  -0.000000e+000  0.000000e+000 -1.000000e+000
    outer loop
      vertex  1.160000e+001  4.050000e+001  2.000000e+000
      vertex  1.366477e+001  3.867275e+001  2.000000e+000
      vertex  1.324855e+001  3.815083e+001  2.000000e+000
    endloop
  endfacet
  facet normal  -0.000000e+000  0.000000e+000 -1.000000e+000
    outer loop
      vertex  1.160000e+001  4.050000e+001  2.000000e+000
      vertex  1.324855e+001  3.815083e+001  2.000000e+000
      vertex  1.310000e+001  3.750000e+001  2.000000e+000
    endloop
  endfacet
  facet normal  0.000000e+000  0.000000e+000 -1.000000e+000
    outer loop
      vertex  1.160000e+001  4.050000e+001  2.000000e+000
      vertex  1.310000e+001  3.750000e+001  2.000000e+000
      vertex  1.160000e+001  3.750000e+001  2.000000e+000
    endloop
  endfacet
  facet normal  0.000000e+000  0.000000e+000 -1.000000e+000
    outer loop
      vertex  1.760000e+001  3.450000e+001  2.000000e+000
      vertex  1.160000e+001  3.450000e+001  2.000000e+000
      vertex  1.426622e+001  3.603761e+001  2.000000e+000
    endloop
  endfacet
  facet normal  0.000000e+000  0.000000e+000 -1.000000e+000
    outer loop
      vertex  1.760000e+001  3.450000e+001  2.000000e+000
      vertex  1.426622e+001  3.603761e+001  2.000000e+000
      vertex  1.493378e+001  3.603761e+001  2.000000e+000
    endloop
  endfacet
  facet normal  0.000000e+000  0.000000e+000 -1.000000e+000
    outer loop
      vertex  1.760000e+001  3.450000e+001  2.000000e+000
      vertex  1.493378e+001  3.603761e+001  2.000000e+000
      vertex  1.553523e+001  3.632725e+001  2.000000e+000
    endloop
  endfacet
  facet normal  0.000000e+000  0.000000e+000 -1.000000e+000
    outer loop
      vertex  1.760000e+001  3.450000e+001  2.000000e+000
      vertex  1.553523e+001  3.632725e+001  2.000000e+000
      vertex  1.595145e+001  3.684917e+001  2.000000e+000
    endloop
  endfacet
  facet normal  0.000000e+000  0.000000e+000 -1.000000e+000
    outer loop
      vertex  1.760000e+001  3.450000e+001  2.000000e+000
      vertex  1.595145e+001  3.684917e+001  2.000000e+000
      vertex  1.760000e+001  4.050000e+001  2.000000e+000
    endloop
  endfacet
  facet normal  0.000000e+000  0.000000e+000 -1.000000e+000
    outer loop
      vertex  1.760000e+001  4.050000e+001  2.000000e+000
      vertex  1.595145e+001  3.684917e+001  2.000000e+000
      vertex  1.610000e+001  3.750000e+001  2.000000e+000
    endloop
  endfacet
  facet normal  0.000000e+000  0.000000e+000 -1.000000e+000
    outer loop
      vertex  1.760000e+001  4.050000e+001  2.000000e+000
      vertex  1.610000e+001  3.750000e+001  2.000000e+000
      vertex  1.595145e+001  3.815083e+001  2.000000e+000
    endloop
  endfacet
  facet normal  0.000000e+000  0.000000e+000 -1.000000e+000
    outer loop
      vertex  1.760000e+001  4.050000e+001  2.000000e+000
      vertex  1.595145e+001  3.815083e+001  2.000000e+000
      vertex  1.553523e+001  3.867275e+001  2.000000e+000
    endloop
  endfacet
  facet normal  0.000000e+000  0.000000e+000 -1.000000e+000
    outer loop
      vertex  1.760000e+001  4.050000e+001  2.000000e+000
      vertex  1.553523e+001  3.867275e+001  2.000000e+000
      vertex  1.493378e+001  3.896239e+001  2.000000e+000
    endloop
  endfacet
  facet normal  0.000000e+000  0.000000e+000 -1.000000e+000
    outer loop
      vertex  1.426622e+001  3.603761e+001  2.000000e+000
      vertex  1.160000e+001  3.450000e+001  2.000000e+000
      vertex  1.366477e+001  3.632725e+001  2.000000e+000
    endloop
  endfacet
  facet normal  -0.000000e+000  0.000000e+000 -9.999999e-001
    outer loop
      vertex  1.366477e+001  3.632725e+001  2.000000e+000
      vertex  1.160000e+001  3.450000e+001  2.000000e+000
      vertex  1.160000e+001  3.750000e+001  2.000000e+000
    endloop
  endfacet
  facet normal  0.000000e+000  0.000000e+000 -9.999999e-001
    outer loop
      vertex  1.366477e+001  3.632725e+001  2.000000e+000
      vertex  1.160000e+001  3.750000e+001  2.000000e+000
      vertex  1.324855e+001  3.684917e+001  2.000000e+000
    endloop
  endfacet
  facet normal  4.338812e-001 -9.009701e-001  0.000000e+000
    outer loop
      vertex  1.426622e+001  3.896239e+001  2.000000e+000
      vertex  1.366477e+001  3.867275e+001  4.000000e+000
      vertex  1.366477e+001  3.867275e+001  2.000000e+000
    endloop
  endfacet
  facet normal  7.818322e-001 -6.234889e-001  0.000000e+000
    outer loop
      vertex  1.366477e+001  3.867275e+001  2.000000e+000
      vertex  1.366477e+001  3.867275e+001  4.000000e+000
      vertex  1.324855e+001  3.815083e+001  4.000000e+000
    endloop
  endfacet
  facet normal  7.818322e-001 -6.234889e-001  0.000000e+000
    outer loop
      vertex  1.366477e+001  3.867275e+001  2.000000e+000
      vertex  1.324855e+001  3.815083e+001  4.000000e+000
      vertex  1.324855e+001  3.815083e+001  2.000000e+000
    endloop
  endfacet
  facet normal  9.749281e-001 -2.225203e-001  0.000000e+000
    outer loop
      vertex  1.324855e+001  3.815083e+001  2.000000e+000
      vertex  1.324855e+001  3.815083e+001  4.000000e+000
      vertex  1.310000e+001  3.750000e+001  4.000000e+000
    endloop
  endfacet
  facet normal  9.749281e-001 -2.225203e-001  0.000000e+000
    outer loop
      vertex  1.324855e+001  3.815083e+001  2.000000e+000
      vertex  1.310000e+001  3.750000e+001  4.000000e+000
      vertex  1.310000e+001  3.750000e+001  2.000000e+000
    endloop
  endfacet
  facet normal  4.338812e-001 -9.009701e-001  0.000000e+000
    outer loop
      vertex  1.366477e+001  3.867275e+001  4.000000e+000
      vertex  1.426622e+001  3.896239e+001  2.000000e+000
      vertex  1.426622e+001  3.896239e+001  4.000000e+000
    endloop
  endfacet
  facet normal  0.000000e+000 -1.000000e+000  0.000000e+000
    outer loop
      vertex  1.426622e+001  3.896239e+001  4.000000e+000
      vertex  1.426622e+001  3.896239e+001  2.000000e+000
      vertex  1.493378e+001  3.896239e+001  2.000000e+000
    endloop
  endfacet
  facet normal  0.000000e+000 -1.000000e+000  0.000000e+000
    outer loop
      vertex  1.426622e+001  3.896239e+001  4.000000e+000
      vertex  1.493378e+001  3.896239e+001  2.000000e+000
      vertex  1.493378e+001  3.896239e+001  4.000000e+000
    endloop
  endfacet
  facet normal -4.338812e-001 -9.009701e-001  -0.000000e+000
    outer loop
      vertex  1.493378e+001  3.896239e+001  4.000000e+000
      vertex  1.493378e+001  3.896239e+001  2.000000e+000
      vertex  1.553523e+001  3.867275e+001  2.000000e+000
    endloop
  endfacet
  facet normal -4.338812e-001 -9.009701e-001  0.000000e+000
    outer loop
      vertex  1.493378e+001  3.896239e+001  4.000000e+000
      vertex  1.553523e+001  3.867275e+001  2.000000e+000
      vertex  1.553523e+001  3.867275e+001  4.000000e+000
    endloop
  endfacet
  facet normal -7.818322e-001 -6.234889e-001  -0.000000e+000
    outer loop
      vertex  1.553523e+001  3.867275e+001  4.000000e+000
      vertex  1.553523e+001  3.867275e+001  2.000000e+000
      vertex  1.595145e+001  3.815083e+001  2.000000e+000
    endloop
  endfacet
  facet normal -7.818322e-001 -6.234889e-001  0.000000e+000
    outer loop
      vertex  1.553523e+001  3.867275e+001  4.000000e+000
      vertex  1.595145e+001  3.815083e+001  2.000000e+000
      vertex  1.595145e+001  3.815083e+001  4.000000e+000
    endloop
  endfacet
  facet normal -9.749278e-001 -2.225216e-001  -0.000000e+000
    outer loop
      vertex  1.595145e+001  3.815083e+001  4.000000e+000
      vertex  1.595145e+001  3.815083e+001  2.000000e+000
      vertex  1.610000e+001  3.750000e+001  2.000000e+000
    endloop
  endfacet
  facet normal -9.749278e-001 -2.225216e-001  0.000000e+000
    outer loop
      vertex  1.595145e+001  3.815083e+001  4.000000e+000
      vertex  1.610000e+001  3.750000e+001  2.000000e+000
      vertex  1.610000e+001  3.750000e+001  4.000000e+000
    endloop
  endfacet
  facet normal -4.338812e-001  9.009701e-001  0.000000e+000
    outer loop
      vertex  1.493378e+001  3.603761e+001  2.000000e+000
      vertex  1.553523e+001  3.632725e+001  4.000000e+000
      vertex  1.553523e+001  3.632725e+001  2.000000e+000
    endloop
  endfacet
  facet normal -7.818322e-001  6.234889e-001  0.000000e+000
    outer loop
      vertex  1.553523e+001  3.632725e+001  2.000000e+000
      vertex  1.553523e+001  3.632725e+001  4.000000e+000
      vertex  1.595145e+001  3.684917e+001  4.000000e+000
    endloop
  endfacet
  facet normal -7.818322e-001  6.234889e-001  0.000000e+000
    outer loop
      vertex  1.553523e+001  3.632725e+001  2.000000e+000
      vertex  1.595145e+001  3.684917e+001  4.000000e+000
      vertex  1.595145e+001  3.684917e+001  2.000000e+000
    endloop
  endfacet
  facet normal -9.749278e-001  2.225216e-001  0.000000e+000
    outer loop
      vertex  1.595145e+001  3.684917e+001  2.000000e+000
      vertex  1.595145e+001  3.684917e+001  4.000000e+000
      vertex  1.610000e+001  3.750000e+001  4.000000e+000
    endloop
  endfacet
  facet normal -9.749278e-001  2.225216e-001  0.000000e+000
    outer loop
      vertex  1.595145e+001  3.684917e+001  2.000000e+000
      vertex  1.610000e+001  3.750000e+001  4.000000e+000
      vertex  1.610000e+001  3.750000e+001  2.000000e+000
    endloop
  endfacet
  facet normal -4.338812e-001  9.009701e-001  0.000000e+000
    outer loop
      vertex  1.553523e+001  3.632725e+001  4.000000e+000
      vertex  1.493378e+001  3.603761e+001  2.000000e+000
      vertex  1.493378e+001  3.603761e+001  4.000000e+000
    endloop
  endfacet
  facet normal  0.000000e+000  1.000000e+000  0.000000e+000
    outer loop
      vertex  1.493378e+001  3.603761e+001  4.000000e+000
      vertex  1.493378e+001  3.603761e+001  2.000000e+000
      vertex  1.426622e+001  3.603761e+001  2.000000e+000
    endloop
  endfacet
  facet normal  0.000000e+000  1.000000e+000  0.000000e+000
    outer loop
      vertex  1.493378e+001  3.603761e+001  4.000000e+000
      vertex  1.426622e+001  3.603761e+001  2.000000e+000
      vertex  1.426622e+001  3.603761e+001  4.000000e+000
    endloop
  endfacet
  facet normal  4.338812e-001  9.009701e-001  0.000000e+000
    outer loop
      vertex  1.426622e+001  3.603761e+001  4.000000e+000
      vertex  1.426622e+001  3.603761e+001  2.000000e+000
      vertex  1.366477e+001  3.632725e+001  2.000000e+000
    endloop
  endfacet
  facet normal  4.338812e-001  9.009701e-001  -0.000000e+000
    outer loop
      vertex  1.426622e+001  3.603761e+001  4.000000e+000
      vertex  1.366477e+001  3.632725e+001  2.000000e+000
      vertex  1.366477e+001  3.632725e+001  4.000000e+000
    endloop
  endfacet
  facet normal  7.818322e-001  6.234889e-001  0.000000e+000
    outer loop
      vertex  1.366477e+001  3.632725e+001  4.000000e+000
      vertex  1.366477e+001  3.632725e+001  2.000000e+000
      vertex  1.324855e+001  3.684917e+001  2.000000e+000
    endloop
  endfacet
  facet normal  7.818322e-001  6.234889e-001  -0.000000e+000
    outer loop
      vertex  1.366477e+001  3.632725e+001  4.000000e+000
      vertex  1.324855e+001  3.684917e+001  2.000000e+000
      vertex  1.324855e+001  3.684917e+001  4.000000e+000
    endloop
  endfacet
  facet normal  9.749281e-001  2.225203e-001  0.000000e+000
    outer loop
      vertex  1.324855e+001  3.684917e+001  4.000000e+000
      vertex  1.324855e+001  3.684917e+001  2.000000e+000
      vertex  1.310000e+001  3.750000e+001  2.000000e+000
    endloop
  endfacet
  facet normal  9.749281e-001  2.225203e-001  -0.000000e+000
    outer loop
      vertex  1.324855e+001  3.684917e+001  4.000000e+000
      vertex  1.310000e+001  3.750000e+001  2.000000e+000
      vertex  1.310000e+001  3.750000e+001  4.000000e+000
    endloop
  endfacet
  facet normal  1.000000e+000  0.000000e+000  0.000000e+000
    outer loop
      vertex  1.760000e+001  3.450000e+001  4.000000e+000
      vertex  1.760000e+001  3.450000e+001  2.000000e+000
      vertex  1.760000e+001  4.050000e+001  4.000000e+000
    endloop
  endfacet
  facet normal  1.000000e+000  0.000000e+000  0.000000e+000
    outer loop
      vertex  1.760000e+001  4.050000e+001  4.000000e+000
      vertex  1.760000e+001  3.450000e+001  2.000000e+000
      vertex  1.760000e+001  4.050000e+001  2.000000e+000
    endloop
  endfacet
  facet normal  1.000000e+000  0.000000e+000  0.000000e+000
    outer loop
      vertex  3.160000e+001  7.300000e+001  1.610000e+001
      vertex  3.160000e+001  7.500000e+001  1.610000e+001
      vertex  3.160000e+001  7.300000e+001  6.160000e+001
    endloop
  endfacet
  facet normal  1.000000e+000  -0.000000e+000  0.000000e+000
    outer loop
      vertex  3.160000e+001  7.300000e+001  6.160000e+001
      vertex  3.160000e+001  7.500000e+001  1.610000e+001
      vertex  3.160000e+001  7.500000e+001  6.160000e+001
    endloop
  endfacet
  facet normal  1.000000e+000  0.000000e+000  0.000000e+000
    outer loop
      vertex  3.160000e+001  0.000000e+000  1.610000e+001
      vertex  3.160000e+001  2.000000e+000  1.610000e+001
      vertex  3.160000e+001  0.000000e+000  6.160000e+001
    endloop
  endfacet
  facet normal  1.000000e+000  -0.000000e+000  0.000000e+000
    outer loop
      vertex  3.160000e+001  0.000000e+000  6.160000e+001
      vertex  3.160000e+001  2.000000e+000  1.610000e+001
      vertex  3.160000e+001  2.000000e+000  6.160000e+001
    endloop
  endfacet
  facet normal  0.000000e+000  0.000000e+000 -1.000000e+000
    outer loop
      vertex  3.160000e+001  7.300000e+001  1.610000e+001
      vertex  1.160000e+001  7.300000e+001  1.610000e+001
      vertex  3.160000e+001  7.500000e+001  1.610000e+001
    endloop
  endfacet
  facet normal  -0.000000e+000  0.000000e+000 -1.000000e+000
    outer loop
      vertex  3.160000e+001  7.500000e+001  1.610000e+001
      vertex  1.160000e+001  7.300000e+001  1.610000e+001
      vertex  1.160000e+001  7.500000e+001  1.610000e+001
    endloop
  endfacet
  facet normal  0.000000e+000  0.000000e+000 -1.000000e+000
    outer loop
      vertex  3.160000e+001  0.000000e+000  1.610000e+001
      vertex  1.160000e+001  0.000000e+000  1.610000e+001
      vertex  3.160000e+001  2.000000e+000  1.610000e+001
    endloop
  endfacet
  facet normal  -0.000000e+000  0.000000e+000 -1.000000e+000
    outer loop
      vertex  3.160000e+001  2.000000e+000  1.610000e+001
      vertex  1.160000e+001  0.000000e+000  1.610000e+001
      vertex  1.160000e+001  2.000000e+000  1.610000e+001
    endloop
  endfacet
  facet normal  0.000000e+000  0.000000e+000  1.000000e+000
    outer loop
      vertex  1.160000e+001  2.000000e+000  1.610000e+001
      vertex  1.160000e+001  2.900000e+001  1.610000e+001
      vertex  2.000000e+000  2.000000e+000  1.610000e+001
    endloop
  endfacet
  facet normal  0.000000e+000  0.000000e+000  1.000000e+000
    outer loop
      vertex  2.000000e+000  2.000000e+000  1.610000e+001
      vertex  1.160000e+001  2.900000e+001  1.610000e+001
      vertex  2.000000e+000  2.900000e+001  1.610000e+001
    endloop
  endfacet
  facet normal  0.000000e+000  0.000000e+000  1.000000e+000
    outer loop
      vertex  1.160000e+001  4.600000e+001  1.610000e+001
      vertex  1.160000e+001  7.300000e+001  1.610000e+001
      vertex  2.000000e+000  4.600000e+001  1.610000e+001
    endloop
  endfacet
  facet normal  0.000000e+000  0.000000e+000  1.000000e+000
    outer loop
      vertex  2.000000e+000  4.600000e+001  1.610000e+001
      vertex  1.160000e+001  7.300000e+001  1.610000e+001
      vertex  2.000000e+000  7.300000e+001  1.610000e+001
    endloop
  endfacet
endsolid CATIA STL
